<svg width="773" height="459" viewBox="0 0 773 459" fill="none" xmlns="http://www.w3.org/2000/svg">
<g filter="url(#filter0_d_260_742)">
<path d="M65.0158 420H64C45.7746 420 31 405.225 31 387V95C31 76.7746 45.7746 62 64 62H65.0158C65.5437 45.342 79.2138 32 96 32H689C705.786 32 719.456 45.342 719.984 62H731C749.225 62 764 76.7746 764 95V387C764 405.225 749.225 420 731 420H719.984C719.456 436.658 705.786 450 689 450H96C79.2138 450 65.5437 436.658 65.0158 420Z" fill="#ECD19D"/>
<path d="M68.5141 419.889L68.4067 416.5H65.0158H64C47.7076 416.5 34.5 403.292 34.5 387V95C34.5 78.7076 47.7076 65.5 64 65.5H65.0158H68.4067L68.5141 62.1109C68.9823 47.3357 81.1096 35.5 96 35.5H689C703.89 35.5 716.018 47.3357 716.486 62.1109L716.593 65.5H719.984H731C747.292 65.5 760.5 78.7076 760.5 95V387C760.5 403.292 747.292 416.5 731 416.5H719.984H716.593L716.486 419.889C716.018 434.664 703.89 446.5 689 446.5H96C81.1096 446.5 68.9823 434.664 68.5141 419.889Z" stroke="#FF8906" stroke-opacity="0.2" stroke-width="7"/>
</g>
<g filter="url(#filter1_d_260_742)">
<path d="M67.6064 419.857C67.5292 417.429 65.5383 415.5 63.1086 415.5H62.09C46.2886 415.5 33.5 402.729 33.5 387V95C33.5 79.2714 46.2886 66.5 62.09 66.5H63.1086C65.5383 66.5 67.5292 64.5713 67.6064 62.1429C68.0584 47.9166 79.7717 36.5 94.1774 36.5H688.795C703.201 36.5 714.914 47.9166 715.366 62.1429C715.444 64.5713 717.434 66.5 719.864 66.5H730.91C746.711 66.5 759.5 79.2714 759.5 95V387C759.5 402.729 746.711 415.5 730.91 415.5H719.864C717.434 415.5 715.444 417.429 715.366 419.857C714.914 434.083 703.201 445.5 688.795 445.5H94.1773C79.7717 445.5 68.0584 434.083 67.6064 419.857Z" stroke="#FF8906" stroke-width="9" stroke-linejoin="round" shape-rendering="crispEdges"/>
</g>
<g filter="url(#filter2_d_260_742)">
<path d="M55.4656 419.339C51.2548 418.485 47.3344 416.835 43.8699 414.551C43.8087 414.632 43.7444 414.71 43.677 414.787C42.0414 416.659 39.1985 416.85 37.3273 415.214C36.0942 414.136 34.9324 412.979 33.8498 411.751C32.2067 409.886 32.3861 407.042 34.2507 405.399C34.3277 405.331 34.4063 405.267 34.4865 405.205C32.1883 401.746 30.5263 397.831 29.6668 393.624C29.5661 393.637 29.4642 393.647 29.3613 393.654C26.8813 393.815 24.7403 391.935 24.5794 389.455C24.5267 388.643 24.5 387.824 24.5 387V384.567C24.5 382.081 26.5147 380.067 29 380.067V364.733C26.5147 364.733 24.5 362.719 24.5 360.233V355.367C24.5 352.881 26.5147 350.867 29 350.867V335.533C26.5147 335.533 24.5 333.519 24.5 331.033V326.167C24.5 323.681 26.5147 321.667 29 321.667V306.333C26.5147 306.333 24.5 304.319 24.5 301.833V296.967C24.5 294.481 26.5147 292.467 29 292.467V277.133C26.5147 277.133 24.5 275.119 24.5 272.633V267.767C24.5 265.281 26.5147 263.267 29 263.267V247.933C26.5147 247.933 24.5 245.919 24.5 243.433V238.567C24.5 236.081 26.5147 234.067 29 234.067V218.733C26.5147 218.733 24.5 216.719 24.5 214.233V209.367C24.5 206.881 26.5147 204.867 29 204.867V189.533C26.5147 189.533 24.5 187.519 24.5 185.033V180.167C24.5 177.681 26.5147 175.667 29 175.667V160.333C26.5147 160.333 24.5 158.319 24.5 155.833V150.967C24.5 148.481 26.5147 146.467 29 146.467V131.133C26.5147 131.133 24.5 129.119 24.5 126.633V121.767C24.5 119.281 26.5147 117.267 29 117.267V101.933C26.5147 101.933 24.5 99.9186 24.5 97.4333V95C24.5 94.1759 24.5267 93.3574 24.5794 92.5453C24.7403 90.0652 26.8813 88.1852 29.3613 88.3461C29.4642 88.3528 29.5661 88.3629 29.6668 88.3763C30.5263 84.1695 32.1883 80.2537 34.4865 76.795C34.4063 76.7334 34.3277 76.6686 34.2507 76.6008C32.3861 74.9576 32.2067 72.1141 33.8498 70.2495C34.9324 69.021 36.0942 67.8639 37.3273 66.7861C39.1985 65.1505 42.0414 65.3414 43.677 67.2126C43.7444 67.2897 43.8087 67.3685 43.8699 67.4488C47.3344 65.1655 51.2548 63.5147 55.4656 62.6614C55.4525 62.5615 55.4426 62.4605 55.436 62.3584C55.2807 59.9452 57.0574 57.8541 59.4381 57.5959C60.3183 56.2154 61.9231 55.3661 63.6647 55.5331C63.7744 55.5436 63.8828 55.558 63.9898 55.5761C64.8736 51.99 66.383 48.6492 68.3962 45.6755C68.3118 45.6088 68.2291 45.5387 68.1485 45.4651C66.3127 43.7898 66.1826 40.9435 67.8579 39.1078C68.881 37.9866 69.9752 36.9311 71.1333 35.9484C73.0283 34.3405 75.868 34.5731 77.476 36.4681C77.5466 36.5513 77.6137 36.6364 77.6772 36.723C80.7145 34.8222 84.1047 33.4306 87.7275 32.6682C87.7132 32.5619 87.7025 32.4543 87.6957 32.3456C87.5394 29.8652 89.4234 27.7278 91.9037 27.5714C92.6561 27.524 93.4142 27.5 94.1774 27.5H96.6549C99.1402 27.5 101.155 29.5147 101.155 32H116.931C116.931 29.5147 118.945 27.5 121.431 27.5H126.386C128.871 27.5 130.886 29.5147 130.886 32H146.662C146.662 29.5147 148.676 27.5 151.162 27.5H156.117C158.602 27.5 160.617 29.5147 160.617 32H176.392C176.392 29.5147 178.407 27.5 180.892 27.5H185.848C188.333 27.5 190.348 29.5147 190.348 32H206.123C206.123 29.5147 208.138 27.5 210.623 27.5H215.579C218.064 27.5 220.079 29.5147 220.079 32H235.854C235.854 29.5147 237.869 27.5 240.354 27.5H245.309C247.795 27.5 249.809 29.5147 249.809 32H265.585C265.585 29.5147 267.6 27.5 270.085 27.5H275.04C277.526 27.5 279.54 29.5147 279.54 32H295.316C295.316 29.5147 297.331 27.5 299.816 27.5H304.771C307.257 27.5 309.271 29.5147 309.271 32H325.047C325.047 29.5147 327.062 27.5 329.547 27.5H334.502C336.987 27.5 339.002 29.5147 339.002 32H354.778C354.778 29.5147 356.793 27.5 359.278 27.5H364.233C366.718 27.5 368.733 29.5147 368.733 32H384.509C384.509 29.5147 386.523 27.5 389.009 27.5H393.964C396.449 27.5 398.464 29.5147 398.464 32H414.24C414.24 29.5147 416.254 27.5 418.74 27.5H423.695C426.18 27.5 428.195 29.5147 428.195 32H443.971C443.971 29.5147 445.985 27.5 448.471 27.5H453.426C455.911 27.5 457.926 29.5147 457.926 32H473.701C473.701 29.5147 475.716 27.5 478.201 27.5H483.157C485.642 27.5 487.657 29.5147 487.657 32H503.432C503.432 29.5147 505.447 27.5 507.932 27.5H512.887C515.373 27.5 517.387 29.5147 517.387 32H533.163C533.163 29.5147 535.178 27.5 537.663 27.5H542.618C545.104 27.5 547.118 29.5147 547.118 32H562.894C562.894 29.5147 564.909 27.5 567.394 27.5H572.349C574.835 27.5 576.849 29.5147 576.849 32H592.625C592.625 29.5147 594.64 27.5 597.125 27.5H602.08C604.565 27.5 606.58 29.5147 606.58 32H622.356C622.356 29.5147 624.371 27.5 626.856 27.5H631.811C634.296 27.5 636.311 29.5147 636.311 32H652.087C652.087 29.5147 654.102 27.5 656.587 27.5H661.542C664.027 27.5 666.042 29.5147 666.042 32H681.818C681.818 29.5147 683.832 27.5 686.318 27.5H688.795C689.559 27.5 690.317 27.524 691.069 27.5714C693.549 27.7278 695.433 29.8652 695.277 32.3456C695.27 32.4543 695.259 32.5619 695.245 32.6682C698.868 33.4306 702.258 34.8222 705.296 36.723C705.359 36.6364 705.426 36.5513 705.497 36.4681C707.105 34.5731 709.944 34.3405 711.839 35.9484C712.998 36.9311 714.092 37.9866 715.115 39.1078C716.79 40.9435 716.66 43.7898 714.824 45.4651C714.744 45.5387 714.661 45.6088 714.577 45.6755C716.59 48.6492 718.099 51.99 718.983 55.5761C719.09 55.558 719.198 55.5436 719.308 55.5331C721.575 55.3158 723.609 56.8197 724.117 58.9759C724.842 59.7749 725.285 60.8358 725.285 62H725.489C725.489 59.5147 727.504 57.5 729.989 57.5H730.91C731.733 57.5 732.551 57.5265 733.362 57.5787C735.842 57.7383 737.724 59.8783 737.564 62.3584C737.557 62.4605 737.547 62.5615 737.534 62.6614C741.745 63.5147 745.666 65.1655 749.13 67.4487C749.191 67.3685 749.256 67.2897 749.323 67.2126C750.959 65.3414 753.801 65.1504 755.673 66.7861C756.906 67.8639 758.068 69.021 759.15 70.2495C760.793 72.1141 760.614 74.9576 758.749 76.6008C758.672 76.6686 758.594 76.7334 758.513 76.795C760.812 80.2537 762.474 84.1695 763.333 88.3763C763.434 88.3629 763.536 88.3528 763.639 88.3461C766.119 88.1852 768.26 90.0652 768.421 92.5453C768.473 93.3574 768.5 94.1759 768.5 95V97.4333C768.5 99.9186 766.485 101.933 764 101.933V117.267C766.485 117.267 768.5 119.281 768.5 121.767V126.633C768.5 129.119 766.485 131.133 764 131.133V146.467C766.485 146.467 768.5 148.481 768.5 150.967V155.833C768.5 158.319 766.485 160.333 764 160.333V175.667C766.485 175.667 768.5 177.681 768.5 180.167V185.033C768.5 187.519 766.485 189.533 764 189.533V204.867C766.485 204.867 768.5 206.881 768.5 209.367V214.233C768.5 216.719 766.485 218.733 764 218.733V234.067C766.485 234.067 768.5 236.081 768.5 238.567V243.433C768.5 245.919 766.485 247.933 764 247.933V263.267C766.485 263.267 768.5 265.281 768.5 267.767V272.633C768.5 275.119 766.485 277.133 764 277.133V292.467C766.485 292.467 768.5 294.481 768.5 296.967V301.833C768.5 304.319 766.485 306.333 764 306.333V321.667C766.485 321.667 768.5 323.681 768.5 326.167V331.033C768.5 333.519 766.485 335.533 764 335.533V350.867C766.485 350.867 768.5 352.881 768.5 355.367V360.233C768.5 362.719 766.485 364.733 764 364.733V380.067C766.485 380.067 768.5 382.081 768.5 384.567V387C768.5 387.824 768.473 388.643 768.421 389.455C768.26 391.935 766.119 393.815 763.639 393.654C763.536 393.647 763.434 393.637 763.333 393.624C762.474 397.831 760.812 401.746 758.513 405.205C758.594 405.267 758.672 405.331 758.749 405.399C760.614 407.042 760.793 409.886 759.15 411.751C758.068 412.979 756.906 414.136 755.673 415.214C753.801 416.85 750.959 416.659 749.323 414.787C749.256 414.71 749.191 414.632 749.13 414.551C745.666 416.835 741.745 418.485 737.534 419.339C737.547 419.439 737.557 419.54 737.564 419.642C737.724 422.122 735.842 424.262 733.362 424.421C732.551 424.474 731.733 424.5 730.91 424.5H729.989C727.504 424.5 725.489 422.485 725.489 420H725.285C725.285 421.164 724.842 422.225 724.117 423.024C723.609 425.18 721.575 426.684 719.308 426.467C719.198 426.456 719.09 426.442 718.983 426.424C718.099 430.01 716.59 433.351 714.577 436.324C714.661 436.391 714.744 436.461 714.824 436.535C716.66 438.21 716.79 441.056 715.115 442.892C714.092 444.013 712.998 445.069 711.839 446.052C709.944 447.66 707.105 447.427 705.497 445.532C705.426 445.449 705.359 445.364 705.296 445.277C702.258 447.178 698.868 448.569 695.245 449.332C695.259 449.438 695.27 449.546 695.277 449.654C695.433 452.135 693.549 454.272 691.069 454.429C690.317 454.476 689.559 454.5 688.795 454.5H686.318C683.833 454.5 681.818 452.485 681.818 450H666.042C666.042 452.485 664.027 454.5 661.542 454.5H656.587C654.102 454.5 652.087 452.485 652.087 450H636.311C636.311 452.485 634.296 454.5 631.811 454.5H626.856C624.371 454.5 622.356 452.485 622.356 450H606.58C606.58 452.485 604.565 454.5 602.08 454.5H597.125C594.64 454.5 592.625 452.485 592.625 450H576.849C576.849 452.485 574.835 454.5 572.349 454.5H567.394C564.909 454.5 562.894 452.485 562.894 450H547.118C547.118 452.485 545.104 454.5 542.618 454.5H537.663C535.178 454.5 533.163 452.485 533.163 450H517.388C517.388 452.485 515.373 454.5 512.888 454.5H507.932C505.447 454.5 503.432 452.485 503.432 450H487.657C487.657 452.485 485.642 454.5 483.157 454.5H478.201C475.716 454.5 473.701 452.485 473.701 450H457.926C457.926 452.485 455.911 454.5 453.426 454.5H448.471C445.985 454.5 443.971 452.485 443.971 450H428.195C428.195 452.485 426.18 454.5 423.695 454.5H418.74C416.254 454.5 414.24 452.485 414.24 450H398.464C398.464 452.485 396.449 454.5 393.964 454.5H389.009C386.524 454.5 384.509 452.485 384.509 450H368.733C368.733 452.485 366.718 454.5 364.233 454.5H359.278C356.793 454.5 354.778 452.485 354.778 450H339.002C339.002 452.485 336.987 454.5 334.502 454.5H329.547C327.062 454.5 325.047 452.485 325.047 450H309.271C309.271 452.485 307.257 454.5 304.771 454.5H299.816C297.331 454.5 295.316 452.485 295.316 450H279.54C279.54 452.485 277.526 454.5 275.04 454.5H270.085C267.6 454.5 265.585 452.485 265.585 450H249.809C249.809 452.485 247.795 454.5 245.309 454.5H240.354C237.869 454.5 235.854 452.485 235.854 450H220.079C220.079 452.485 218.064 454.5 215.579 454.5H210.623C208.138 454.5 206.123 452.485 206.123 450H190.348C190.348 452.485 188.333 454.5 185.848 454.5H180.893C178.407 454.5 176.393 452.485 176.393 450H160.617C160.617 452.485 158.602 454.5 156.117 454.5H151.162C148.676 454.5 146.662 452.485 146.662 450H130.886C130.886 452.485 128.871 454.5 126.386 454.5H121.431C118.945 454.5 116.931 452.485 116.931 450H101.155C101.155 452.485 99.1403 454.5 96.655 454.5H94.1773C93.4142 454.5 92.6561 454.476 91.9037 454.429C89.4234 454.272 87.5394 452.135 87.6957 449.654C87.7025 449.546 87.7132 449.438 87.7275 449.332C84.1047 448.569 80.7144 447.178 77.6772 445.277C77.6137 445.364 77.5466 445.449 77.476 445.532C75.868 447.427 73.0283 447.66 71.1333 446.052C69.9752 445.069 68.881 444.013 67.8579 442.892C66.1826 441.056 66.3127 438.21 68.1485 436.535C68.2291 436.461 68.3118 436.391 68.3962 436.324C66.383 433.351 64.8736 430.01 63.9898 426.424C63.8828 426.442 63.7744 426.456 63.6647 426.467C61.9231 426.634 60.3183 425.785 59.4381 424.404C57.0574 424.146 55.2807 422.055 55.436 419.642C55.4426 419.54 55.4525 419.439 55.4656 419.339Z" stroke="#CC3100" stroke-width="9" stroke-linecap="round" stroke-linejoin="round" stroke-dasharray="5 25" shape-rendering="crispEdges"/>
</g>
<defs>
<filter id="filter0_d_260_742" x="11" y="9" width="753" height="441" filterUnits="userSpaceOnUse" color-interpolation-filters="sRGB">
<feFlood flood-opacity="0" result="BackgroundImageFix"/>
<feColorMatrix in="SourceAlpha" type="matrix" values="0 0 0 0 0 0 0 0 0 0 0 0 0 0 0 0 0 0 127 0" result="hardAlpha"/>
<feOffset dx="-14" dy="-17"/>
<feGaussianBlur stdDeviation="3"/>
<feComposite in2="hardAlpha" operator="out"/>
<feColorMatrix type="matrix" values="0 0 0 0 0 0 0 0 0 0 0 0 0 0 0 0 0 0 0.25 0"/>
<feBlend mode="normal" in2="BackgroundImageFix" result="effect1_dropShadow_260_742"/>
<feBlend mode="normal" in="SourceGraphic" in2="effect1_dropShadow_260_742" result="shape"/>
</filter>
<filter id="filter1_d_260_742" x="9" y="9" width="755" height="441" filterUnits="userSpaceOnUse" color-interpolation-filters="sRGB">
<feFlood flood-opacity="0" result="BackgroundImageFix"/>
<feColorMatrix in="SourceAlpha" type="matrix" values="0 0 0 0 0 0 0 0 0 0 0 0 0 0 0 0 0 0 127 0" result="hardAlpha"/>
<feOffset dx="-14" dy="-17"/>
<feGaussianBlur stdDeviation="3"/>
<feComposite in2="hardAlpha" operator="out"/>
<feColorMatrix type="matrix" values="0 0 0 0 0 0 0 0 0 0 0 0 0 0 0 0 0 0 0.25 0"/>
<feBlend mode="normal" in2="BackgroundImageFix" result="effect1_dropShadow_260_742"/>
<feBlend mode="normal" in="SourceGraphic" in2="effect1_dropShadow_260_742" result="shape"/>
</filter>
<filter id="filter2_d_260_742" x="0" y="0" width="773" height="459" filterUnits="userSpaceOnUse" color-interpolation-filters="sRGB">
<feFlood flood-opacity="0" result="BackgroundImageFix"/>
<feColorMatrix in="SourceAlpha" type="matrix" values="0 0 0 0 0 0 0 0 0 0 0 0 0 0 0 0 0 0 127 0" result="hardAlpha"/>
<feOffset dx="-14" dy="-17"/>
<feGaussianBlur stdDeviation="3"/>
<feComposite in2="hardAlpha" operator="out"/>
<feColorMatrix type="matrix" values="0 0 0 0 0 0 0 0 0 0 0 0 0 0 0 0 0 0 0.25 0"/>
<feBlend mode="normal" in2="BackgroundImageFix" result="effect1_dropShadow_260_742"/>
<feBlend mode="normal" in="SourceGraphic" in2="effect1_dropShadow_260_742" result="shape"/>
</filter>
</defs>
</svg>
