<svg width="773" height="459" viewBox="0 0 773 459" fill="none" xmlns="http://www.w3.org/2000/svg">
<g filter="url(#filter0_d_260_746)">
<path d="M45.0158 397H44C25.7746 397 11 382.225 11 364V72C11 53.7746 25.7746 39 44 39H45.0158C45.5437 22.342 59.2138 9 76 9H669C685.786 9 699.456 22.342 699.984 39H711C729.225 39 744 53.7746 744 72V364C744 382.225 729.225 397 711 397H699.984C699.456 413.658 685.786 427 669 427H76C59.2138 427 45.5437 413.658 45.0158 397Z" fill="#ECD19D"/>
<path d="M48.5141 396.889L48.4067 393.5H45.0158H44C27.7076 393.5 14.5 380.292 14.5 364V72C14.5 55.7076 27.7076 42.5 44 42.5H45.0158H48.4067L48.5141 39.1109C48.9823 24.3357 61.1096 12.5 76 12.5H669C683.89 12.5 696.018 24.3357 696.486 39.1109L696.593 42.5H699.984H711C727.292 42.5 740.5 55.7076 740.5 72V364C740.5 380.292 727.292 393.5 711 393.5H699.984H696.593L696.486 396.889C696.018 411.664 683.89 423.5 669 423.5H76C61.1096 423.5 48.9823 411.664 48.5141 396.889Z" stroke="#FF8906" stroke-opacity="0.2" stroke-width="7"/>
</g>
<g filter="url(#filter1_d_260_746)">
<path d="M47.6064 396.857C47.5292 394.429 45.5383 392.5 43.1086 392.5H42.09C26.2886 392.5 13.5 379.729 13.5 364V72C13.5 56.2714 26.2886 43.5 42.09 43.5H43.1086C45.5383 43.5 47.5292 41.5713 47.6064 39.1429C48.0584 24.9166 59.7717 13.5 74.1774 13.5H668.795C683.201 13.5 694.914 24.9166 695.366 39.1429C695.444 41.5713 697.434 43.5 699.864 43.5H710.91C726.711 43.5 739.5 56.2714 739.5 72V364C739.5 379.729 726.711 392.5 710.91 392.5H699.864C697.434 392.5 695.444 394.429 695.366 396.857C694.914 411.083 683.201 422.5 668.795 422.5H74.1773C59.7717 422.5 48.0584 411.083 47.6064 396.857Z" stroke="#FF8906" stroke-width="9" stroke-linejoin="round" shape-rendering="crispEdges"/>
</g>
<g filter="url(#filter2_d_260_746)">
<path d="M35.4656 396.339C31.2548 395.485 27.3344 393.835 23.8699 391.551C23.8087 391.632 23.7444 391.71 23.677 391.787C22.0414 393.659 19.1985 393.85 17.3273 392.214C16.0942 391.136 14.9324 389.979 13.8498 388.751C12.2067 386.886 12.3861 384.042 14.2507 382.399C14.3277 382.331 14.4063 382.267 14.4865 382.205C12.1883 378.746 10.5263 374.831 9.66676 370.624C9.56606 370.637 9.46422 370.647 9.36135 370.654C6.88128 370.815 4.74033 368.935 4.57941 366.455C4.52672 365.643 4.5 364.824 4.5 364V361.567C4.5 359.081 6.51472 357.067 9 357.067V341.733C6.51472 341.733 4.5 339.719 4.5 337.233V332.367C4.5 329.881 6.51472 327.867 9 327.867V312.533C6.51472 312.533 4.5 310.519 4.5 308.033V303.167C4.5 300.681 6.51472 298.667 9 298.667V283.333C6.51472 283.333 4.5 281.319 4.5 278.833V273.967C4.5 271.481 6.51472 269.467 9 269.467V254.133C6.51472 254.133 4.5 252.119 4.5 249.633V244.767C4.5 242.281 6.51472 240.267 9 240.267V224.933C6.51472 224.933 4.5 222.919 4.5 220.433V215.567C4.5 213.081 6.51472 211.067 9 211.067V195.733C6.51472 195.733 4.5 193.719 4.5 191.233V186.367C4.5 183.881 6.51472 181.867 9 181.867V166.533C6.51472 166.533 4.5 164.519 4.5 162.033V157.167C4.5 154.681 6.51472 152.667 9 152.667V137.333C6.51472 137.333 4.5 135.319 4.5 132.833V127.967C4.5 125.481 6.51472 123.467 9 123.467V108.133C6.51472 108.133 4.5 106.119 4.5 103.633V98.7667C4.5 96.2814 6.51472 94.2667 9 94.2667V78.9333C6.51472 78.9333 4.5 76.9186 4.5 74.4333V72C4.5 71.1759 4.52672 70.3574 4.57941 69.5453C4.74034 67.0652 6.88128 65.1852 9.36135 65.3461C9.46422 65.3528 9.56606 65.3629 9.66676 65.3763C10.5263 61.1695 12.1883 57.2537 14.4865 53.795C14.4063 53.7334 14.3277 53.6686 14.2507 53.6008C12.3861 51.9576 12.2067 49.1141 13.8498 47.2495C14.9324 46.021 16.0942 44.8639 17.3273 43.7861C19.1985 42.1505 22.0414 42.3414 23.677 44.2126C23.7444 44.2897 23.8087 44.3685 23.8699 44.4488C27.3344 42.1655 31.2548 40.5147 35.4656 39.6614C35.4525 39.5615 35.4426 39.4605 35.436 39.3584C35.2807 36.9452 37.0574 34.8541 39.4381 34.5959C40.3183 33.2154 41.9231 32.3661 43.6647 32.5331C43.7744 32.5436 43.8828 32.558 43.9898 32.5761C44.8736 28.99 46.383 25.6492 48.3962 22.6755C48.3118 22.6088 48.2291 22.5387 48.1485 22.4651C46.3127 20.7898 46.1826 17.9435 47.8579 16.1078C48.881 14.9866 49.9752 13.9311 51.1333 12.9484C53.0283 11.3405 55.868 11.5731 57.476 13.4681C57.5466 13.5513 57.6137 13.6364 57.6772 13.723C60.7145 11.8222 64.1047 10.4306 67.7275 9.66819C67.7132 9.56189 67.7025 9.45431 67.6957 9.34559C67.5394 6.86523 69.4234 4.72778 71.9037 4.57145C72.6561 4.52403 73.4142 4.5 74.1774 4.5H76.6549C79.1402 4.5 81.1549 6.51472 81.1549 9H96.9307C96.9307 6.51472 98.9454 4.5 101.431 4.5H106.386C108.871 4.5 110.886 6.51472 110.886 9H126.662C126.662 6.51472 128.676 4.5 131.162 4.5H136.117C138.602 4.5 140.617 6.51472 140.617 9H156.392C156.392 6.51472 158.407 4.5 160.892 4.5H165.848C168.333 4.5 170.348 6.51472 170.348 9H186.123C186.123 6.51472 188.138 4.5 190.623 4.5H195.579C198.064 4.5 200.079 6.51472 200.079 9H215.854C215.854 6.51472 217.869 4.5 220.354 4.5H225.309C227.795 4.5 229.809 6.51472 229.809 9H245.585C245.585 6.51472 247.6 4.5 250.085 4.5H255.04C257.526 4.5 259.54 6.51472 259.54 9H275.316C275.316 6.51472 277.331 4.5 279.816 4.5H284.771C287.257 4.5 289.271 6.51472 289.271 9H305.047C305.047 6.51472 307.062 4.5 309.547 4.5H314.502C316.987 4.5 319.002 6.51472 319.002 9H334.778C334.778 6.51472 336.793 4.5 339.278 4.5H344.233C346.718 4.5 348.733 6.51472 348.733 9H364.509C364.509 6.51472 366.523 4.5 369.009 4.5H373.964C376.449 4.5 378.464 6.51472 378.464 9H394.24C394.24 6.51472 396.254 4.5 398.74 4.5H403.695C406.18 4.5 408.195 6.51472 408.195 9H423.971C423.971 6.51472 425.985 4.5 428.471 4.5H433.426C435.911 4.5 437.926 6.51472 437.926 9H453.701C453.701 6.51472 455.716 4.5 458.201 4.5H463.157C465.642 4.5 467.657 6.51472 467.657 9H483.432C483.432 6.51472 485.447 4.5 487.932 4.5H492.887C495.373 4.5 497.387 6.51472 497.387 9H513.163C513.163 6.51472 515.178 4.5 517.663 4.5H522.618C525.104 4.5 527.118 6.51472 527.118 9H542.894C542.894 6.51472 544.909 4.5 547.394 4.5H552.349C554.835 4.5 556.849 6.51472 556.849 9H572.625C572.625 6.51472 574.64 4.5 577.125 4.5H582.08C584.565 4.5 586.58 6.51472 586.58 9H602.356C602.356 6.51472 604.371 4.5 606.856 4.5H611.811C614.296 4.5 616.311 6.51472 616.311 9H632.087C632.087 6.51472 634.102 4.5 636.587 4.5H641.542C644.027 4.5 646.042 6.51472 646.042 9H661.818C661.818 6.51472 663.832 4.5 666.318 4.5H668.795C669.559 4.5 670.317 4.52403 671.069 4.57145C673.549 4.72778 675.433 6.86523 675.277 9.34559C675.27 9.45431 675.259 9.56188 675.245 9.66819C678.868 10.4306 682.258 11.8222 685.296 13.723C685.359 13.6364 685.426 13.5513 685.497 13.4681C687.105 11.5731 689.944 11.3405 691.839 12.9484C692.998 13.9311 694.092 14.9866 695.115 16.1078C696.79 17.9435 696.66 20.7898 694.824 22.4651C694.744 22.5387 694.661 22.6088 694.577 22.6755C696.59 25.6492 698.099 28.99 698.983 32.5761C699.09 32.558 699.198 32.5436 699.308 32.5331C701.575 32.3158 703.609 33.8197 704.117 35.9759C704.842 36.7749 705.285 37.8358 705.285 39H705.489C705.489 36.5147 707.504 34.5 709.989 34.5H710.91C711.733 34.5 712.551 34.5265 713.362 34.5787C715.842 34.7383 717.724 36.8783 717.564 39.3584C717.557 39.4605 717.547 39.5615 717.534 39.6614C721.745 40.5147 725.666 42.1655 729.13 44.4487C729.191 44.3685 729.256 44.2897 729.323 44.2126C730.959 42.3414 733.801 42.1504 735.673 43.7861C736.906 44.8639 738.068 46.021 739.15 47.2495C740.793 49.1141 740.614 51.9576 738.749 53.6008C738.672 53.6686 738.594 53.7334 738.513 53.795C740.812 57.2537 742.474 61.1695 743.333 65.3763C743.434 65.3629 743.536 65.3528 743.639 65.3461C746.119 65.1852 748.26 67.0652 748.421 69.5453C748.473 70.3574 748.5 71.1759 748.5 72V74.4333C748.5 76.9186 746.485 78.9333 744 78.9333V94.2667C746.485 94.2667 748.5 96.2814 748.5 98.7667V103.633C748.5 106.119 746.485 108.133 744 108.133V123.467C746.485 123.467 748.5 125.481 748.5 127.967V132.833C748.5 135.319 746.485 137.333 744 137.333V152.667C746.485 152.667 748.5 154.681 748.5 157.167V162.033C748.5 164.519 746.485 166.533 744 166.533V181.867C746.485 181.867 748.5 183.881 748.5 186.367V191.233C748.5 193.719 746.485 195.733 744 195.733V211.067C746.485 211.067 748.5 213.081 748.5 215.567V220.433C748.5 222.919 746.485 224.933 744 224.933V240.267C746.485 240.267 748.5 242.281 748.5 244.767V249.633C748.5 252.119 746.485 254.133 744 254.133V269.467C746.485 269.467 748.5 271.481 748.5 273.967V278.833C748.5 281.319 746.485 283.333 744 283.333V298.667C746.485 298.667 748.5 300.681 748.5 303.167V308.033C748.5 310.519 746.485 312.533 744 312.533V327.867C746.485 327.867 748.5 329.881 748.5 332.367V337.233C748.5 339.719 746.485 341.733 744 341.733V357.067C746.485 357.067 748.5 359.081 748.5 361.567V364C748.5 364.824 748.473 365.643 748.421 366.455C748.26 368.935 746.119 370.815 743.639 370.654C743.536 370.647 743.434 370.637 743.333 370.624C742.474 374.831 740.812 378.746 738.513 382.205C738.594 382.267 738.672 382.331 738.749 382.399C740.614 384.042 740.793 386.886 739.15 388.751C738.068 389.979 736.906 391.136 735.673 392.214C733.801 393.85 730.959 393.659 729.323 391.787C729.256 391.71 729.191 391.632 729.13 391.551C725.666 393.835 721.745 395.485 717.534 396.339C717.547 396.439 717.557 396.54 717.564 396.642C717.724 399.122 715.842 401.262 713.362 401.421C712.551 401.474 711.733 401.5 710.91 401.5H709.989C707.504 401.5 705.489 399.485 705.489 397H705.285C705.285 398.164 704.842 399.225 704.117 400.024C703.609 402.18 701.575 403.684 699.308 403.467C699.198 403.456 699.09 403.442 698.983 403.424C698.099 407.01 696.59 410.351 694.577 413.324C694.661 413.391 694.744 413.461 694.824 413.535C696.66 415.21 696.79 418.056 695.115 419.892C694.092 421.013 692.998 422.069 691.839 423.052C689.944 424.66 687.105 424.427 685.497 422.532C685.426 422.449 685.359 422.364 685.296 422.277C682.258 424.178 678.868 425.569 675.245 426.332C675.259 426.438 675.27 426.546 675.277 426.654C675.433 429.135 673.549 431.272 671.069 431.429C670.317 431.476 669.559 431.5 668.795 431.5H666.318C663.833 431.5 661.818 429.485 661.818 427H646.042C646.042 429.485 644.027 431.5 641.542 431.5H636.587C634.102 431.5 632.087 429.485 632.087 427H616.311C616.311 429.485 614.296 431.5 611.811 431.5H606.856C604.371 431.5 602.356 429.485 602.356 427H586.58C586.58 429.485 584.565 431.5 582.08 431.5H577.125C574.64 431.5 572.625 429.485 572.625 427H556.849C556.849 429.485 554.835 431.5 552.349 431.5H547.394C544.909 431.5 542.894 429.485 542.894 427H527.118C527.118 429.485 525.104 431.5 522.618 431.5H517.663C515.178 431.5 513.163 429.485 513.163 427H497.388C497.388 429.485 495.373 431.5 492.888 431.5H487.932C485.447 431.5 483.432 429.485 483.432 427H467.657C467.657 429.485 465.642 431.5 463.157 431.5H458.201C455.716 431.5 453.701 429.485 453.701 427H437.926C437.926 429.485 435.911 431.5 433.426 431.5H428.471C425.985 431.5 423.971 429.485 423.971 427H408.195C408.195 429.485 406.18 431.5 403.695 431.5H398.74C396.254 431.5 394.24 429.485 394.24 427H378.464C378.464 429.485 376.449 431.5 373.964 431.5H369.009C366.524 431.5 364.509 429.485 364.509 427H348.733C348.733 429.485 346.718 431.5 344.233 431.5H339.278C336.793 431.5 334.778 429.485 334.778 427H319.002C319.002 429.485 316.987 431.5 314.502 431.5H309.547C307.062 431.5 305.047 429.485 305.047 427H289.271C289.271 429.485 287.257 431.5 284.771 431.5H279.816C277.331 431.5 275.316 429.485 275.316 427H259.54C259.54 429.485 257.526 431.5 255.04 431.5H250.085C247.6 431.5 245.585 429.485 245.585 427H229.809C229.809 429.485 227.795 431.5 225.309 431.5H220.354C217.869 431.5 215.854 429.485 215.854 427H200.079C200.079 429.485 198.064 431.5 195.579 431.5H190.623C188.138 431.5 186.123 429.485 186.123 427H170.348C170.348 429.485 168.333 431.5 165.848 431.5H160.893C158.407 431.5 156.393 429.485 156.393 427H140.617C140.617 429.485 138.602 431.5 136.117 431.5H131.162C128.676 431.5 126.662 429.485 126.662 427H110.886C110.886 429.485 108.871 431.5 106.386 431.5H101.431C98.9455 431.5 96.9307 429.485 96.9307 427H81.155C81.155 429.485 79.1403 431.5 76.655 431.5H74.1773C73.4142 431.5 72.6561 431.476 71.9037 431.429C69.4234 431.272 67.5394 429.135 67.6957 426.654C67.7025 426.546 67.7132 426.438 67.7275 426.332C64.1047 425.569 60.7144 424.178 57.6772 422.277C57.6137 422.364 57.5466 422.449 57.476 422.532C55.868 424.427 53.0283 424.66 51.1333 423.052C49.9752 422.069 48.881 421.013 47.8579 419.892C46.1826 418.056 46.3127 415.21 48.1485 413.535C48.2291 413.461 48.3118 413.391 48.3962 413.324C46.383 410.351 44.8736 407.01 43.9898 403.424C43.8828 403.442 43.7744 403.456 43.6647 403.467C41.9231 403.634 40.3183 402.785 39.4381 401.404C37.0574 401.146 35.2807 399.055 35.436 396.642C35.4426 396.54 35.4525 396.439 35.4656 396.339Z" stroke="#CC3100" stroke-width="9" stroke-linecap="round" stroke-linejoin="round" stroke-dasharray="5 25" shape-rendering="crispEdges"/>
</g>
<defs>
<filter id="filter0_d_260_746" x="11" y="9" width="753" height="441" filterUnits="userSpaceOnUse" color-interpolation-filters="sRGB">
<feFlood flood-opacity="0" result="BackgroundImageFix"/>
<feColorMatrix in="SourceAlpha" type="matrix" values="0 0 0 0 0 0 0 0 0 0 0 0 0 0 0 0 0 0 127 0" result="hardAlpha"/>
<feOffset dx="14" dy="17"/>
<feGaussianBlur stdDeviation="3"/>
<feComposite in2="hardAlpha" operator="out"/>
<feColorMatrix type="matrix" values="0 0 0 0 0 0 0 0 0 0 0 0 0 0 0 0 0 0 0.25 0"/>
<feBlend mode="normal" in2="BackgroundImageFix" result="effect1_dropShadow_260_746"/>
<feBlend mode="normal" in="SourceGraphic" in2="effect1_dropShadow_260_746" result="shape"/>
</filter>
<filter id="filter1_d_260_746" x="9" y="9" width="755" height="441" filterUnits="userSpaceOnUse" color-interpolation-filters="sRGB">
<feFlood flood-opacity="0" result="BackgroundImageFix"/>
<feColorMatrix in="SourceAlpha" type="matrix" values="0 0 0 0 0 0 0 0 0 0 0 0 0 0 0 0 0 0 127 0" result="hardAlpha"/>
<feOffset dx="14" dy="17"/>
<feGaussianBlur stdDeviation="3"/>
<feComposite in2="hardAlpha" operator="out"/>
<feColorMatrix type="matrix" values="0 0 0 0 0 0 0 0 0 0 0 0 0 0 0 0 0 0 0.25 0"/>
<feBlend mode="normal" in2="BackgroundImageFix" result="effect1_dropShadow_260_746"/>
<feBlend mode="normal" in="SourceGraphic" in2="effect1_dropShadow_260_746" result="shape"/>
</filter>
<filter id="filter2_d_260_746" x="0" y="0" width="773" height="459" filterUnits="userSpaceOnUse" color-interpolation-filters="sRGB">
<feFlood flood-opacity="0" result="BackgroundImageFix"/>
<feColorMatrix in="SourceAlpha" type="matrix" values="0 0 0 0 0 0 0 0 0 0 0 0 0 0 0 0 0 0 127 0" result="hardAlpha"/>
<feOffset dx="14" dy="17"/>
<feGaussianBlur stdDeviation="3"/>
<feComposite in2="hardAlpha" operator="out"/>
<feColorMatrix type="matrix" values="0 0 0 0 0 0 0 0 0 0 0 0 0 0 0 0 0 0 0.25 0"/>
<feBlend mode="normal" in2="BackgroundImageFix" result="effect1_dropShadow_260_746"/>
<feBlend mode="normal" in="SourceGraphic" in2="effect1_dropShadow_260_746" result="shape"/>
</filter>
</defs>
</svg>
