<svg width="1538" height="1602" viewBox="0 0 1538 1602" fill="none" xmlns="http://www.w3.org/2000/svg">
<g clip-path="url(#clip0_260_38)">
<path d="M250.059 527.717L244.583 535.017L264.315 549.816L266.268 547.211L267.446 549.58L268.088 552.661L270.081 554.155L271.329 552.492L273.219 553.91L271.971 555.573L339.271 606.048L344.747 598.747L250.667 528.188C250.458 528.031 250.245 527.871 250.04 527.718L250.059 527.717Z" fill="#E3B391"/>
<path d="M297.464 464.509C297.669 464.663 297.882 464.823 298.091 464.98L392.175 535.542L397.65 528.242L330.338 477.758L329.091 479.422L327.2 478.004L328.451 476.336L326.459 474.841L323.317 475.092L320.714 474.625L322.671 472.015L302.939 457.217L297.468 464.512L297.464 464.509Z" fill="#E3B391"/>
<path d="M237.749 467.259L207.686 507.344L238.909 530.761L240.862 528.157L242.752 529.574L243.93 531.943L243.664 531.409L247.899 525.763C242.832 520.616 240.085 513.33 240.173 505.274C240.26 497.218 243.176 488.944 248.374 482.008L253.083 475.729C258.287 468.79 265.416 463.669 273.13 461.327C280.844 458.985 288.612 459.585 294.973 463.013L299.204 457.371L299.787 457.482L297.184 457.015L295.294 455.597L297.251 452.988L266.02 429.564L237.749 467.259Z" fill="#B88A6A"/>
<path d="M299.219 457.352L294.019 464.286L297.465 464.509L302.94 457.209L299.219 457.352Z" fill="#E5C2A2"/>
<path d="M302.939 457.209L297.464 464.51L298.825 465.531L304.301 458.23L302.939 457.209Z" fill="#C29A7D"/>
<path d="M266.049 429.542L207.693 507.35L212.764 511.153L239.738 475.189L247.168 479.455L250.458 475.068L244.282 469.129L271.12 433.345L266.049 429.542Z" fill="#EFD1B6"/>
<path d="M243.94 531.936L243.679 531.406L248.876 524.476L250.058 527.717L244.583 535.017L243.94 531.936Z" fill="#E5C2A2"/>
<path d="M250.058 527.717L244.583 535.017L245.944 536.038L251.42 528.738L250.058 527.717Z" fill="#C29A7D"/>
<path d="M299.219 457.352L297.206 456.986L295.284 455.545C280.797 447.122 259.72 453.512 246.884 470.627L246.446 471.211L250.463 475.071L247.173 479.458L242.339 476.687L241.765 477.452C228.933 494.562 228.697 516.589 240.839 528.139L242.761 529.58L243.679 531.406L247.957 525.702C237.545 514.863 237.617 496.352 248.392 481.984L253.101 475.705C263.877 461.338 281.624 456.09 294.945 463.051L299.219 457.352Z" fill="#E3B391"/>
<path d="M158.634 551.338L294.541 370.128L296.246 371.407L160.339 552.617" fill="#C6A289"/>
<path d="M155.514 551.939L294.24 366.969L294.541 370.128L158.634 551.338" fill="#D8B095"/>
<path d="M144.369 534.513L274.391 361.15L289.888 372.772L159.866 546.135" fill="#E5C2A2"/>
<path d="M255.093 354.593L132.675 517.819L148.176 529.444L270.594 366.219L255.093 354.593Z" fill="#D8B095"/>
<path d="M221.111 349.179L117.955 486.72L142.304 504.981L245.459 367.44L221.111 349.179Z" fill="#C9A58B"/>
<path d="M191.758 378.383L137.772 450.365L142.54 453.94L196.525 381.959L191.758 378.383Z" fill="#C09E86"/>
<path d="M184.019 388.702C173.484 391.829 163.733 398.793 156.631 408.262C149.528 417.732 145.573 429.043 145.522 440.032L184.019 388.702Z" fill="#AD8E79"/>
<path d="M162.31 549.988L294.274 374.035L299.882 378.241L167.917 554.194" fill="#A0795D"/>
<path d="M171.885 537.222L166.046 545.007L171.658 549.216L177.496 541.431L171.885 537.222Z" fill="#BA8C6B"/>
<path d="M182.671 522.84L176.832 530.625L182.444 534.834L188.282 527.049L182.671 522.84Z" fill="#BA8C6B"/>
<path d="M193.457 508.458L187.622 516.239L193.234 520.447L199.069 512.667L193.457 508.458Z" fill="#BA8C6B"/>
<path d="M204.241 494.081L198.405 501.861L204.017 506.07L209.852 498.29L204.241 494.081Z" fill="#BA8C6B"/>
<path d="M215.027 479.699L209.191 487.479L214.803 491.688L220.638 483.908L215.027 479.699Z" fill="#BA8C6B"/>
<path d="M225.816 465.312L219.978 473.097L225.589 477.306L231.428 469.521L225.816 465.312Z" fill="#BA8C6B"/>
<path d="M236.603 450.93L230.765 458.716L236.376 462.924L242.215 455.139L236.603 450.93Z" fill="#BA8C6B"/>
<path d="M247.39 436.548L241.551 444.333L247.162 448.542L253.001 440.757L247.39 436.548Z" fill="#BA8C6B"/>
<path d="M258.176 422.166L252.337 429.951L257.949 434.16L263.787 426.375L258.176 422.166Z" fill="#BA8C6B"/>
<path d="M268.963 407.785L263.124 415.57L268.736 419.778L274.574 411.993L268.963 407.785Z" fill="#BA8C6B"/>
<path d="M279.752 393.398L273.913 401.183L279.525 405.392L285.363 397.607L279.752 393.398Z" fill="#BA8C6B"/>
<path d="M290.539 379.016L284.7 386.801L290.312 391.01L296.151 383.225L290.539 379.016Z" fill="#BA8C6B"/>
<path d="M165.458 557.474L302.342 374.961L304.372 378.445L169.371 558.447" fill="#E4B58E"/>
<path d="M157.49 460.348C158.765 461.302 159.67 462.69 160.091 464.337C160.511 465.983 160.429 467.814 159.854 469.597C159.279 471.381 158.238 473.036 156.861 474.355C155.484 475.674 153.834 476.597 152.12 477.007C150.405 477.417 148.703 477.295 147.229 476.658C145.755 476.02 144.575 474.896 143.838 473.426C143.101 471.956 142.841 470.208 143.09 468.401C143.339 466.594 144.086 464.811 145.236 463.277C146.779 461.221 148.936 459.757 151.234 459.208C153.531 458.658 155.782 459.068 157.49 460.348Z" fill="#E5C2A2"/>
<path d="M218.502 378.999C219.777 379.953 220.681 381.342 221.102 382.988C221.523 384.634 221.441 386.465 220.866 388.248C220.291 390.032 219.249 391.687 217.873 393.006C216.496 394.325 214.846 395.248 213.132 395.658C211.417 396.068 209.715 395.946 208.241 395.309C206.767 394.671 205.587 393.547 204.85 392.077C204.113 390.607 203.852 388.859 204.101 387.052C204.35 385.245 205.097 383.462 206.248 381.928C207.79 379.872 209.947 378.408 212.245 377.859C214.543 377.309 216.794 377.719 218.502 378.999Z" fill="#E5C2A2"/>
<path d="M197.744 392L187.318 405.902L186.146 405.023L161.782 437.508L162.954 438.387L152.524 452.294L166.616 462.863L177.046 448.956L178.214 449.832L202.578 417.347L201.41 416.471L211.836 402.569L197.744 392Z" fill="#E5C2A2"/>
<path d="M420.394 463.388L381.076 515.811L397.639 528.233L436.956 475.81L420.394 463.388Z" fill="#D39E79"/>
<path d="M415.46 459.688L376.143 512.112L381.075 515.811L420.393 463.388L415.46 459.688Z" fill="#BA8C6B"/>
<path d="M369.656 425.335L330.339 477.758L376.143 512.112L415.461 459.688L369.656 425.335Z" fill="#D39E79"/>
<path d="M369.363 421.788L327.197 478.009L329.088 479.427L371.253 423.206L369.363 421.788Z" fill="#D39E79"/>
<path d="M365.765 422.425L326.451 474.843L323.313 475.097L365.479 418.876L365.765 422.425Z" fill="#A0795D"/>
<path d="M365.48 418.876L323.314 475.097L320.718 474.612L364.291 416.514L365.48 418.876Z" fill="#BA8C6B"/>
<path d="M342.253 404.791L302.939 457.209L299.798 457.46L341.963 401.239L342.253 404.791Z" fill="#A0795D"/>
<path d="M338.893 397.465L295.319 455.564L297.21 456.981L340.783 398.883L338.893 397.465Z" fill="#D39E79"/>
<path d="M341.963 401.239L299.798 457.46L297.209 456.981L340.782 398.883L341.963 401.239Z" fill="#BA8C6B"/>
<path d="M365.769 422.42L326.451 474.843L328.444 476.338L367.761 423.914L365.769 422.42Z" fill="#8C6A51"/>
<path d="M342.257 404.786L302.939 457.209L322.675 472.011L361.992 419.587L342.257 404.786Z" fill="#D39E79"/>
<path d="M305.367 377.118L266.05 429.542L297.273 452.959L336.59 400.536L305.367 377.118Z" fill="#D39E79"/>
<path d="M307.341 378.606L268.027 431.025L265.112 430.792L306.305 375.869L307.341 378.606Z" fill="#BA8C6B"/>
<path d="M307.344 378.601L268.026 431.025L269.017 431.768L308.334 379.344L307.344 378.601Z" fill="#A0795D"/>
<path d="M413.881 472.071L387.585 507.133L404.148 519.555L430.443 484.493L413.881 472.071Z" fill="#E5C2A2"/>
<path d="M408.947 468.372L382.651 503.433L387.584 507.133L413.88 472.071L408.947 468.372Z" fill="#C29A7D"/>
<path d="M363.144 434.019L336.848 469.08L382.652 503.433L408.948 468.372L363.144 434.019Z" fill="#E3B391"/>
<path d="M362.854 430.467L333.706 469.33L335.596 470.748L364.744 431.884L362.854 430.467Z" fill="#E5C2A2"/>
<path d="M359.256 431.103L332.96 466.165L329.822 466.418L358.97 427.555L359.256 431.103Z" fill="#C29A7D"/>
<path d="M358.971 427.554L329.823 466.418L327.227 465.934L357.782 425.193L358.971 427.554Z" fill="#E5C2A2"/>
<path d="M335.744 413.469L309.448 448.531L306.307 448.781L335.454 409.918L335.744 413.469Z" fill="#B18D73"/>
<path d="M332.384 406.144L301.828 446.885L303.718 448.303L334.274 407.562L332.384 406.144Z" fill="#E5C2A2"/>
<path d="M335.454 409.918L306.306 448.781L303.718 448.303L334.273 407.562L335.454 409.918Z" fill="#C29A7D"/>
<path d="M321.784 399.665L292.637 438.529L294.527 439.947L323.675 401.083L321.784 399.665Z" fill="#C29A7D"/>
<path d="M321.784 399.665L292.636 438.529L290.044 438.047L320.6 397.306L321.784 399.665Z" fill="#E5C2A2"/>
<path d="M359.256 431.103L332.96 466.165L334.953 467.659L361.249 432.598L359.256 431.103Z" fill="#B18D73"/>
<path d="M335.744 413.469L309.448 448.531L329.184 463.332L355.48 428.271L335.744 413.469Z" fill="#E3B391"/>
<path d="M335.746 422.107L317.741 446.114L328.013 453.818L346.018 429.811L335.746 422.107Z" fill="#E5C2A2"/>
<path d="M322.074 403.217L295.778 438.278L303.781 444.281L330.077 409.219L322.074 403.217Z" fill="#E3B391"/>
<path d="M319.566 409.973L301.562 433.979L305.756 437.125L323.761 413.119L319.566 409.973Z" fill="#E5C2A2"/>
<path d="M303.441 403.003C304.787 404.011 305.743 405.478 306.188 407.217C306.632 408.956 306.545 410.89 305.938 412.774C305.331 414.658 304.23 416.407 302.776 417.8C301.321 419.193 299.578 420.168 297.767 420.601C295.956 421.034 294.158 420.905 292.601 420.232C291.044 419.559 289.797 418.371 289.019 416.818C288.24 415.265 287.965 413.418 288.228 411.51C288.491 409.601 289.28 407.718 290.496 406.097C292.125 403.925 294.404 402.378 296.831 401.798C299.259 401.218 301.636 401.651 303.441 403.003Z" fill="#E5C2A2"/>
<path d="M301.808 405.179C302.801 405.923 303.506 407.004 303.834 408.286C304.162 409.568 304.098 410.994 303.651 412.383C303.203 413.772 302.392 415.061 301.32 416.089C300.248 417.116 298.963 417.835 297.627 418.154C296.292 418.473 294.967 418.379 293.818 417.883C292.67 417.386 291.751 416.51 291.177 415.366C290.603 414.221 290.4 412.859 290.594 411.452C290.788 410.045 291.37 408.656 292.266 407.461C293.467 405.86 295.147 404.72 296.936 404.292C298.725 403.864 300.478 404.183 301.808 405.179Z" fill="#EFD1B6"/>
<path d="M299.961 658.462L339.275 606.043L322.716 593.624L283.402 646.043" fill="#D39E79"/>
<path d="M283.403 646.043L322.716 593.624L317.784 589.925L278.47 642.343" fill="#BA8C6B"/>
<path d="M278.47 642.343L317.783 589.925L271.979 555.571L232.665 607.99" fill="#D39E79"/>
<path d="M231.065 610.124L273.231 553.903L271.34 552.485L229.175 608.706" fill="#D39E79"/>
<path d="M228.778 605.075L268.092 552.656L267.456 549.573L225.291 605.794" fill="#A0795D"/>
<path d="M225.291 605.794L267.457 549.573L266.269 547.211L222.691 605.314" fill="#BA8C6B"/>
<path d="M205.266 587.441L244.58 535.022L243.941 531.936L201.775 588.157" fill="#A0795D"/>
<path d="M199.183 587.683L242.76 529.58L240.87 528.163L197.293 586.266" fill="#D39E79"/>
<path d="M201.776 588.157L243.941 531.936L242.761 529.58L199.184 587.683" fill="#BA8C6B"/>
<path d="M230.775 606.572L270.089 554.154L268.092 552.656L228.778 605.075" fill="#8C6A51"/>
<path d="M205.266 587.441L244.579 535.022L264.311 549.821L224.997 602.239" fill="#D39E79"/>
<path d="M168.376 559.773L207.69 507.355L238.913 530.772L199.599 583.191" fill="#D39E79"/>
<path d="M170.354 561.256L209.668 508.838L208.632 506.1L167.436 561.028" fill="#BA8C6B"/>
<path d="M171.344 561.999L210.658 509.58L209.667 508.838L170.354 561.256" fill="#A0795D"/>
<path d="M316.207 602.303L289.911 637.364L306.474 649.786L332.77 614.725L316.207 602.303Z" fill="#E5C2A2"/>
<path d="M311.274 598.603L284.979 633.665L289.911 637.364L316.207 602.303L311.274 598.603Z" fill="#C29A7D"/>
<path d="M265.47 564.25L239.174 599.311L284.978 633.665L311.274 598.603L265.47 564.25Z" fill="#E3B391"/>
<path d="M264.828 561.169L235.684 600.028L237.574 601.445L266.718 562.586L264.828 561.169Z" fill="#E5C2A2"/>
<path d="M235.287 596.396L261.583 561.335L260.944 558.256L231.8 597.115L235.287 596.396Z" fill="#C29A7D"/>
<path d="M231.8 597.115L260.944 558.256L259.759 555.89L229.2 596.636L231.8 597.115Z" fill="#E5C2A2"/>
<path d="M211.775 578.762L238.071 543.701L237.428 540.619L208.284 579.478L211.775 578.762Z" fill="#B18D73"/>
<path d="M234.357 536.846L203.802 577.587L205.692 579.005L236.248 538.264L234.357 536.846Z" fill="#E5C2A2"/>
<path d="M208.284 579.478L237.429 540.619L236.252 538.259L205.692 579.005L208.284 579.478Z" fill="#C29A7D"/>
<path d="M223.758 530.367L194.614 569.226L196.505 570.644L225.649 531.785L223.758 530.367Z" fill="#C29A7D"/>
<path d="M194.615 569.226L223.759 530.367L222.578 528.004L192.019 568.749L194.615 569.226Z" fill="#E5C2A2"/>
<path d="M261.583 561.335L235.287 596.396L237.28 597.891L263.576 562.829L261.583 561.335Z" fill="#B18D73"/>
<path d="M238.071 543.701L211.775 578.762L231.511 593.564L257.807 558.502L238.071 543.701Z" fill="#E3B391"/>
<path d="M238.073 552.339L220.068 576.345L230.341 584.049L248.345 560.043L238.073 552.339Z" fill="#E5C2A2"/>
<path d="M224.401 533.448L198.105 568.51L206.109 574.512L232.404 539.451L224.401 533.448Z" fill="#E3B391"/>
<path d="M221.893 540.204L203.889 564.211L208.084 567.357L226.088 543.35L221.893 540.204Z" fill="#E5C2A2"/>
<path d="M192.7 550.658C194.045 551.668 195.72 552.175 197.515 552.115C199.309 552.055 201.141 551.43 202.779 550.319C204.418 549.209 205.789 547.663 206.719 545.876C207.649 544.09 208.097 542.144 208.005 540.284C207.914 538.424 207.287 536.734 206.205 535.428C205.122 534.121 203.633 533.257 201.924 532.944C200.216 532.632 198.366 532.885 196.607 533.672C194.849 534.459 193.261 535.744 192.046 537.364C190.417 539.537 189.57 542.157 189.693 544.65C189.816 547.143 190.897 549.304 192.7 550.658Z" fill="#E5C2A2"/>
<path d="M194.318 548.5C195.31 549.243 196.544 549.616 197.866 549.571C199.187 549.526 200.537 549.065 201.743 548.247C202.95 547.428 203.959 546.289 204.644 544.973C205.329 543.657 205.658 542.224 205.59 540.854C205.523 539.484 205.061 538.239 204.263 537.277C203.466 536.315 202.368 535.679 201.11 535.449C199.852 535.219 198.489 535.406 197.193 535.985C195.898 536.565 194.729 537.511 193.834 538.705C192.633 540.306 192.01 542.237 192.1 544.074C192.191 545.911 192.989 547.503 194.318 548.5Z" fill="#EFD1B6"/>
</g>
<g clip-path="url(#clip1_260_38)">
<path d="M711.709 210.019L699.253 210.019L699.253 243.687L703.697 243.687L702.075 246.913L699.236 250.138L699.236 253.538L702.075 253.538L702.075 256.764L699.236 256.764L699.236 371.6L711.693 371.6L711.693 211.069C711.693 210.712 711.693 210.349 711.693 209.999L711.709 210.019Z" fill="#E3B391"/>
<path d="M819.562 210.019C819.562 210.369 819.562 210.733 819.562 211.089L819.562 371.627L832.018 371.627L832.018 256.771L829.18 256.771L829.18 253.545L832.026 253.545L832.026 250.145L829.18 246.919L827.558 243.694L832.01 243.694L832.01 210.026L819.562 210.026L819.562 210.019Z" fill="#E3B391"/>
<path d="M767.65 147.059L699.252 147.059L699.252 200.336L703.696 200.336L703.696 203.561L702.074 206.787L702.439 206.059L712.074 206.059C713.545 196.311 719.251 187.344 728.121 180.841C736.991 174.338 748.414 170.747 760.246 170.741L770.959 170.741C782.799 170.741 794.231 174.332 803.106 180.838C811.982 187.344 817.689 196.318 819.156 206.073L828.782 206.073L829.139 206.8L827.517 203.575L827.517 200.349L831.97 200.349L831.97 147.059L767.65 147.059Z" fill="#B88A6A"/>
<path d="M828.816 206.073L816.983 206.073L819.562 210.019L832.019 210.019L828.816 206.073Z" fill="#E5C2A2"/>
<path d="M832.018 210.019L819.562 210.019L819.562 212.342L832.018 212.342L832.018 210.019Z" fill="#C29A7D"/>
<path d="M832.018 147.073L699.252 147.073L699.252 155.725L760.619 155.725L762.046 167.334L769.532 167.334L770.959 155.725L832.018 155.725L832.018 147.073Z" fill="#EFD1B6"/>
<path d="M702.09 206.793L702.455 206.073L714.28 206.073L711.709 210.019L699.252 210.019L702.09 206.793Z" fill="#E5C2A2"/>
<path d="M711.709 210.019L699.252 210.019L699.252 212.342L711.709 212.342L711.709 210.019Z" fill="#C29A7D"/>
<path d="M828.816 206.073L827.567 203.575L827.567 200.295C824.899 177.576 800.658 159.792 771.455 159.792L770.457 159.792L769.533 167.341L762.047 167.341L761.115 159.792L759.809 159.792C730.613 159.792 706.365 177.576 703.697 200.295L703.697 203.575L702.456 206.073L712.188 206.073C715.497 185.825 735.771 170.741 760.287 170.741L771 170.741C795.517 170.741 815.783 185.825 819.092 206.073L828.816 206.073Z" fill="#E3B391"/>
<path d="M611.033 129.525L920.237 129.525L920.237 132.434L611.033 132.434" fill="#C6A289"/>
<path d="M607.822 126.609L923.441 126.609L920.238 129.525L611.034 129.525" fill="#D8B095"/>
<path d="M617.724 100.166L913.538 100.166L913.538 126.609L617.724 126.609" fill="#E5C2A2"/>
<path d="M904.893 73.7228L626.377 73.7228L626.377 100.173L904.893 100.173L904.893 73.7228Z" fill="#D8B095"/>
<path d="M882.973 32.176L648.282 32.176L648.282 73.7227L882.973 73.7227L882.973 32.176Z" fill="#C9A58B"/>
<path d="M827.039 24.0417L704.216 24.0417L704.216 32.176L827.039 32.176L827.039 24.0417Z" fill="#C09E86"/>
<path d="M809.433 24.0418C797.389 15.0976 781.798 10.1528 765.64 10.1528C749.482 10.1528 733.89 15.0976 721.847 24.0418L809.433 24.0418Z" fill="#AD8E79"/>
<path d="M615.519 132.434L915.753 132.434L915.753 142.002L615.519 142.002" fill="#A0795D"/>
<path d="M637.302 132.434L624.018 132.434L624.018 142.009L637.302 142.009L637.302 132.434Z" fill="#BA8C6B"/>
<path d="M661.842 132.434L648.558 132.434L648.558 142.009L661.842 142.009L661.842 132.434Z" fill="#BA8C6B"/>
<path d="M686.382 132.434L673.106 132.434L673.106 142.009L686.382 142.009L686.382 132.434Z" fill="#BA8C6B"/>
<path d="M710.914 132.434L697.639 132.434L697.639 142.009L710.914 142.009L710.914 132.434Z" fill="#BA8C6B"/>
<path d="M735.455 132.434L722.179 132.434L722.179 142.009L735.455 142.009L735.455 132.434Z" fill="#BA8C6B"/>
<path d="M760.004 132.434L746.72 132.434L746.72 142.009L760.004 142.009L760.004 132.434Z" fill="#BA8C6B"/>
<path d="M784.544 132.434L771.26 132.434L771.26 142.009L784.544 142.009L784.544 132.434Z" fill="#BA8C6B"/>
<path d="M809.084 132.434L795.8 132.434L795.8 142.009L809.084 142.009L809.084 132.434Z" fill="#BA8C6B"/>
<path d="M833.625 132.434L820.341 132.434L820.341 142.009L833.625 142.009L833.625 132.434Z" fill="#BA8C6B"/>
<path d="M858.165 132.434L844.881 132.434L844.881 142.009L858.165 142.009L858.165 132.434Z" fill="#BA8C6B"/>
<path d="M882.714 132.434L869.43 132.434L869.43 142.009L882.714 142.009L882.714 132.434Z" fill="#BA8C6B"/>
<path d="M907.254 132.434L893.97 132.434L893.97 142.009L907.254 142.009L907.254 132.434Z" fill="#BA8C6B"/>
<path d="M609.923 142.002L921.349 142.002L919.208 147.073L612.064 147.073" fill="#E4B58E"/>
<path d="M709.463 53.7507C709.464 55.9244 708.689 58.0498 707.236 59.8579C705.783 61.6659 703.716 63.0755 701.298 63.9083C698.88 64.7411 696.218 64.9597 693.65 64.5364C691.082 64.1131 688.723 63.067 686.872 61.5304C685.02 59.9938 683.758 58.0357 683.247 55.9038C682.736 53.7719 682.997 51.5619 683.999 49.5535C685 47.5451 686.697 45.8284 688.874 44.6206C691.05 43.4127 693.609 42.7681 696.227 42.7681C699.736 42.7681 703.101 43.9249 705.583 45.9844C708.065 48.0438 709.461 50.8373 709.463 53.7507Z" fill="#E5C2A2"/>
<path d="M848.271 53.7507C848.273 55.9244 847.498 58.0498 846.045 59.8579C844.591 61.6659 842.525 63.0755 840.107 63.9083C837.688 64.7411 835.027 64.9597 832.459 64.5364C829.891 64.1131 827.532 63.067 825.68 61.5304C823.828 59.9938 822.567 58.0357 822.056 55.9038C821.544 53.7719 821.806 51.5619 822.807 49.5535C823.809 47.5451 825.505 45.8284 827.682 44.6206C829.859 43.4127 832.418 42.7681 835.036 42.7681C838.545 42.7681 841.91 43.9249 844.392 45.9844C846.874 48.0438 848.269 50.8373 848.271 53.7507Z" fill="#E5C2A2"/>
<path d="M817.072 41.7311L793.351 41.7311L793.351 39.7312L737.92 39.7312L737.92 41.7311L714.19 41.7311L714.19 65.777L737.92 65.777L737.92 67.7702L793.351 67.7702L793.351 65.777L817.072 65.777L817.072 41.7311Z" fill="#E5C2A2"/>
<path d="M921.47 343.345L832.019 343.345L832.019 371.607L921.47 371.607L921.47 343.345Z" fill="#D39E79"/>
<path d="M921.47 334.928L832.019 334.928L832.019 343.345L921.47 343.345L921.47 334.928Z" fill="#BA8C6B"/>
<path d="M921.47 256.771L832.019 256.771L832.019 334.928L921.47 334.928L921.47 256.771Z" fill="#D39E79"/>
<path d="M925.103 253.545L829.172 253.545L829.172 256.771L925.103 256.771L925.103 253.545Z" fill="#D39E79"/>
<path d="M921.462 250.138L832.018 250.138L829.172 246.919L925.103 246.919L921.462 250.138Z" fill="#A0795D"/>
<path d="M925.103 246.919L829.172 246.919L827.574 243.687L926.709 243.687L925.103 246.919Z" fill="#BA8C6B"/>
<path d="M921.462 210.019L832.018 210.019L829.172 206.793L925.103 206.793L921.462 210.019Z" fill="#A0795D"/>
<path d="M926.709 200.349L827.574 200.349L827.574 203.575L926.709 203.575L926.709 200.349Z" fill="#D39E79"/>
<path d="M925.103 206.793L829.172 206.793L827.574 203.575L926.709 203.575L925.103 206.793Z" fill="#BA8C6B"/>
<path d="M921.47 250.138L832.019 250.138L832.019 253.538L921.47 253.538L921.47 250.138Z" fill="#8C6A51"/>
<path d="M921.47 210.019L832.019 210.019L832.019 243.694L921.47 243.694L921.47 210.019Z" fill="#D39E79"/>
<path d="M921.47 147.073L832.019 147.073L832.019 200.349L921.47 200.349L921.47 147.073Z" fill="#D39E79"/>
<path d="M921.462 150.446L832.019 150.446L829.886 147.073L923.603 147.073L921.462 150.446Z" fill="#BA8C6B"/>
<path d="M921.47 150.446L832.019 150.446L832.019 152.136L921.47 152.136L921.47 150.446Z" fill="#A0795D"/>
<path d="M906.653 343.345L846.827 343.345L846.827 371.607L906.653 371.607L906.653 343.345Z" fill="#E5C2A2"/>
<path d="M906.653 334.928L846.827 334.928L846.827 343.345L906.653 343.345L906.653 334.928Z" fill="#C29A7D"/>
<path d="M906.653 256.771L846.827 256.771L846.827 334.928L906.653 334.928L906.653 256.771Z" fill="#E3B391"/>
<path d="M910.295 253.545L843.98 253.545L843.98 256.771L910.295 256.771L910.295 253.545Z" fill="#E5C2A2"/>
<path d="M906.653 250.138L846.827 250.138L843.98 246.919L910.295 246.919L906.653 250.138Z" fill="#C29A7D"/>
<path d="M910.295 246.919L843.98 246.919L842.383 243.687L911.9 243.687L910.295 246.919Z" fill="#E5C2A2"/>
<path d="M906.653 210.019L846.827 210.019L843.98 206.793L910.295 206.793L906.653 210.019Z" fill="#B18D73"/>
<path d="M911.9 200.349L842.383 200.349L842.383 203.575L911.9 203.575L911.9 200.349Z" fill="#E5C2A2"/>
<path d="M910.295 206.793L843.98 206.793L842.383 203.575L911.9 203.575L910.295 206.793Z" fill="#C29A7D"/>
<path d="M910.295 183.468L843.98 183.468L843.98 186.693L910.295 186.693L910.295 183.468Z" fill="#C29A7D"/>
<path d="M910.295 183.468L843.98 183.468L842.383 180.243L911.9 180.243L910.295 183.468Z" fill="#E5C2A2"/>
<path d="M906.653 250.138L846.827 250.138L846.827 253.538L906.653 253.538L906.653 250.138Z" fill="#B18D73"/>
<path d="M906.653 210.019L846.827 210.019L846.827 243.694L906.653 243.694L906.653 210.019Z" fill="#E3B391"/>
<path d="M897.222 217.096L856.259 217.096L856.259 234.624L897.222 234.624L897.222 217.096Z" fill="#E5C2A2"/>
<path d="M906.653 186.693L846.827 186.693L846.827 200.349L906.653 200.349L906.653 186.693Z" fill="#E3B391"/>
<path d="M897.222 189.488L856.259 189.488L856.259 196.646L897.222 196.646L897.222 189.488Z" fill="#E5C2A2"/>
<path d="M891.626 166.169C891.627 168.466 890.809 170.711 889.274 172.621C887.738 174.53 885.555 176.02 883.001 176.899C880.446 177.779 877.634 178.01 874.922 177.563C872.209 177.115 869.717 176.01 867.761 174.387C865.805 172.764 864.472 170.695 863.932 168.443C863.392 166.191 863.669 163.857 864.727 161.735C865.785 159.613 867.577 157.8 869.876 156.524C872.175 155.248 874.879 154.567 877.644 154.567C881.351 154.567 884.906 155.789 887.528 157.965C890.15 160.14 891.624 163.092 891.626 166.169Z" fill="#E5C2A2"/>
<path d="M887.912 166.169C887.914 167.862 887.311 169.517 886.179 170.926C885.047 172.334 883.438 173.432 881.555 174.081C879.671 174.73 877.599 174.9 875.599 174.571C873.599 174.241 871.761 173.427 870.319 172.23C868.876 171.033 867.894 169.508 867.496 167.848C867.097 166.188 867.301 164.467 868.081 162.902C868.861 161.338 870.182 160.001 871.877 159.06C873.572 158.12 875.566 157.617 877.605 157.617C880.337 157.617 882.957 158.518 884.89 160.122C886.823 161.725 887.91 163.9 887.912 166.169Z" fill="#EFD1B6"/>
<path d="M609.801 371.6L699.244 371.6L699.244 343.345L609.801 343.345" fill="#D39E79"/>
<path d="M609.801 343.345L699.244 343.345L699.244 334.928L609.801 334.928" fill="#BA8C6B"/>
<path d="M609.801 334.928L699.244 334.928L699.244 256.771L609.801 256.771" fill="#D39E79"/>
<path d="M606.159 256.771L702.091 256.771L702.091 253.545L606.159 253.545" fill="#D39E79"/>
<path d="M609.801 250.138L699.244 250.138L702.091 246.919L606.159 246.919" fill="#A0795D"/>
<path d="M606.159 246.919L702.091 246.919L703.697 243.687L604.554 243.687" fill="#BA8C6B"/>
<path d="M609.801 210.019L699.244 210.019L702.091 206.793L606.159 206.793" fill="#A0795D"/>
<path d="M604.554 203.575L703.697 203.575L703.697 200.349L604.554 200.349" fill="#D39E79"/>
<path d="M606.159 206.793L702.091 206.793L703.697 203.575L604.554 203.575" fill="#BA8C6B"/>
<path d="M609.801 253.545L699.244 253.545L699.244 250.138L609.801 250.138" fill="#8C6A51"/>
<path d="M609.801 210.019L699.244 210.019L699.244 243.687L609.801 243.687" fill="#D39E79"/>
<path d="M609.801 147.073L699.244 147.073L699.244 200.349L609.801 200.349" fill="#D39E79"/>
<path d="M609.801 150.446L699.245 150.446L701.386 147.073L607.66 147.073" fill="#BA8C6B"/>
<path d="M609.801 152.136L699.244 152.136L699.244 150.446L609.801 150.446" fill="#A0795D"/>
<path d="M684.436 343.345L624.609 343.345L624.609 371.607L684.436 371.607L684.436 343.345Z" fill="#E5C2A2"/>
<path d="M684.436 334.928L624.609 334.928L624.609 343.345L684.436 343.345L684.436 334.928Z" fill="#C29A7D"/>
<path d="M684.436 256.771L624.609 256.771L624.609 334.928L684.436 334.928L684.436 256.771Z" fill="#E3B391"/>
<path d="M687.274 253.545L620.968 253.545L620.968 256.771L687.274 256.771L687.274 253.545Z" fill="#E5C2A2"/>
<path d="M624.609 250.138L684.435 250.138L687.274 246.919L620.968 246.919L624.609 250.138Z" fill="#C29A7D"/>
<path d="M620.968 246.919L687.274 246.919L688.888 243.687L619.362 243.687L620.968 246.919Z" fill="#E5C2A2"/>
<path d="M624.609 210.019L684.435 210.019L687.274 206.793L620.968 206.793L624.609 210.019Z" fill="#B18D73"/>
<path d="M688.88 200.349L619.362 200.349L619.362 203.575L688.88 203.575L688.88 200.349Z" fill="#E5C2A2"/>
<path d="M620.968 206.793L687.274 206.793L688.888 203.575L619.362 203.575L620.968 206.793Z" fill="#C29A7D"/>
<path d="M687.274 183.468L620.968 183.468L620.968 186.693L687.274 186.693L687.274 183.468Z" fill="#C29A7D"/>
<path d="M620.968 183.468L687.274 183.468L688.888 180.243L619.362 180.243L620.968 183.468Z" fill="#E5C2A2"/>
<path d="M684.436 250.138L624.609 250.138L624.609 253.538L684.436 253.538L684.436 250.138Z" fill="#B18D73"/>
<path d="M684.436 210.019L624.609 210.019L624.609 243.694L684.436 243.694L684.436 210.019Z" fill="#E3B391"/>
<path d="M675.004 217.096L634.041 217.096L634.041 234.624L675.004 234.624L675.004 217.096Z" fill="#E5C2A2"/>
<path d="M684.436 186.693L624.609 186.693L624.609 200.349L684.436 200.349L684.436 186.693Z" fill="#E3B391"/>
<path d="M675.004 189.488L634.041 189.488L634.041 196.646L675.004 196.646L675.004 189.488Z" fill="#E5C2A2"/>
<path d="M639.678 166.169C639.676 168.466 640.495 170.711 642.03 172.621C643.565 174.53 645.748 176.02 648.303 176.899C650.858 177.779 653.669 178.01 656.382 177.563C659.094 177.115 661.586 176.01 663.543 174.387C665.499 172.764 666.831 170.695 667.371 168.443C667.911 166.191 667.635 163.857 666.577 161.735C665.519 159.613 663.727 157.8 661.428 156.524C659.128 155.248 656.425 154.567 653.659 154.567C649.952 154.567 646.397 155.789 643.776 157.965C641.154 160.14 639.68 163.092 639.678 166.169Z" fill="#E5C2A2"/>
<path d="M643.359 166.169C643.359 167.861 643.963 169.514 645.095 170.92C646.227 172.327 647.835 173.423 649.717 174.07C651.599 174.717 653.67 174.887 655.668 174.557C657.666 174.227 659.501 173.412 660.942 172.216C662.382 171.02 663.363 169.496 663.76 167.838C664.158 166.179 663.954 164.459 663.174 162.897C662.395 161.334 661.075 159.998 659.381 159.059C657.687 158.119 655.696 157.617 653.659 157.617C650.927 157.617 648.308 158.518 646.376 160.122C644.445 161.726 643.359 163.901 643.359 166.169Z" fill="#EFD1B6"/>
</g>
<g clip-path="url(#clip2_260_38)">
<path d="M1221.85 451.551L1215.93 444.603L1197.15 460.592L1199.26 463.071L1196.69 463.698L1193.55 463.646L1191.65 465.261L1193 466.844L1191.2 468.376L1189.85 466.793L1125.79 521.327L1131.71 528.275L1221.25 452.041C1221.45 451.872 1221.65 451.699 1221.85 451.533L1221.85 451.551Z" fill="#E3B391"/>
<path d="M1273.06 511.711C1272.87 511.877 1272.67 512.05 1272.47 512.219L1182.92 588.457L1188.84 595.405L1252.9 540.861L1251.55 539.278L1253.35 537.746L1254.71 539.334L1256.6 537.719L1257.05 534.599L1258.08 532.163L1260.19 534.646L1278.97 518.658L1273.06 511.714L1273.06 511.711Z" fill="#E3B391"/>
<path d="M1283.53 452.856L1251.05 414.704L1221.33 440.005L1223.44 442.484L1221.64 444.015L1219.07 444.642L1219.65 444.501L1224.23 449.875C1230.36 446.066 1238.08 444.991 1245.92 446.85C1253.75 448.709 1261.18 453.375 1266.8 459.973L1271.89 465.948C1277.51 472.552 1280.94 480.634 1281.53 488.674C1282.11 496.715 1279.82 504.16 1275.07 509.611L1279.64 514.98L1279.41 515.525L1280.44 513.088L1282.24 511.556L1284.35 514.04L1314.08 488.733L1283.53 452.856Z" fill="#B88A6A"/>
<path d="M1279.66 514.998L1274.04 508.398L1273.06 511.711L1278.98 518.659L1279.66 514.998Z" fill="#E5C2A2"/>
<path d="M1278.98 518.659L1273.06 511.711L1271.77 512.814L1277.68 519.762L1278.98 518.659Z" fill="#C29A7D"/>
<path d="M1314.09 488.767L1251.04 414.711L1246.21 418.82L1275.36 453.05L1269.56 459.359L1273.11 463.534L1280.27 458.817L1309.26 492.876L1314.09 488.767Z" fill="#EFD1B6"/>
<path d="M1219.08 444.655L1219.65 444.516L1225.27 451.111L1221.85 451.551L1215.93 444.603L1219.08 444.655Z" fill="#E5C2A2"/>
<path d="M1221.85 451.551L1215.93 444.603L1214.63 445.706L1220.55 452.655L1221.85 451.551Z" fill="#C29A7D"/>
<path d="M1279.66 514.998L1280.46 513.115L1282.29 511.558C1293.69 499.281 1292.1 477.314 1278.23 461.025L1277.76 460.468L1273.11 463.537L1269.56 459.362L1273.32 455.257L1272.7 454.529C1258.84 438.244 1237.4 433.164 1223.46 442.465L1221.64 444.022L1219.65 444.516L1224.27 449.944C1237.14 442.174 1255.18 446.32 1266.82 459.995L1271.91 465.971C1283.55 479.646 1284.76 498.113 1275.04 509.575L1279.66 514.998Z" fill="#E3B391"/>
<path d="M1218.94 357.169L1365.77 529.641L1364.15 531.022L1217.31 358.551" fill="#C6A289"/>
<path d="M1219.04 353.993L1368.92 530.043L1365.77 529.641L1218.93 357.169" fill="#D8B095"/>
<path d="M1238.49 346.959L1378.97 511.962L1364.22 524.52L1223.74 359.517" fill="#E5C2A2"/>
<path d="M1389.61 494.582L1257.35 339.228L1242.59 351.789L1374.86 507.143L1389.61 494.582Z" fill="#D8B095"/>
<path d="M1402.38 462.625L1290.92 331.716L1267.75 351.447L1379.2 482.355L1402.38 462.625Z" fill="#C9A58B"/>
<path d="M1380.35 427.563L1322.02 359.053L1317.49 362.916L1375.81 431.426L1380.35 427.563Z" fill="#C09E86"/>
<path d="M1371.99 417.742C1371.26 406.777 1366.61 395.732 1358.94 386.719C1351.27 377.706 1341.1 371.357 1330.4 368.887L1371.99 417.742Z" fill="#AD8E79"/>
<path d="M1219.44 361.052L1362.02 528.521L1356.68 533.065L1214.11 365.596" fill="#A0795D"/>
<path d="M1229.79 373.203L1223.48 365.793L1218.14 370.34L1224.45 377.75L1229.79 373.203Z" fill="#BA8C6B"/>
<path d="M1241.44 386.891L1235.13 379.482L1229.79 384.029L1236.1 391.438L1241.44 386.891Z" fill="#BA8C6B"/>
<path d="M1253.09 400.58L1246.79 393.175L1241.45 397.722L1247.75 405.127L1253.09 400.58Z" fill="#BA8C6B"/>
<path d="M1264.74 414.264L1258.44 406.859L1253.1 411.406L1259.4 418.811L1264.74 414.264Z" fill="#BA8C6B"/>
<path d="M1276.4 427.952L1270.09 420.547L1264.75 425.094L1271.06 432.499L1276.4 427.952Z" fill="#BA8C6B"/>
<path d="M1288.06 441.645L1281.75 434.235L1276.41 438.783L1282.72 446.192L1288.06 441.645Z" fill="#BA8C6B"/>
<path d="M1299.71 455.333L1293.4 447.924L1288.06 452.471L1294.37 459.881L1299.71 455.333Z" fill="#BA8C6B"/>
<path d="M1311.37 469.022L1305.06 461.612L1299.72 466.159L1306.02 473.569L1311.37 469.022Z" fill="#BA8C6B"/>
<path d="M1323.02 482.71L1316.71 475.301L1311.37 479.848L1317.68 487.258L1323.02 482.71Z" fill="#BA8C6B"/>
<path d="M1334.67 496.399L1328.36 488.989L1323.02 493.536L1329.33 500.946L1334.67 496.399Z" fill="#BA8C6B"/>
<path d="M1346.33 510.091L1340.02 502.682L1334.68 507.229L1340.99 514.639L1346.33 510.091Z" fill="#BA8C6B"/>
<path d="M1357.99 523.78L1351.68 516.37L1346.34 520.918L1352.64 528.327L1357.99 523.78Z" fill="#BA8C6B"/>
<path d="M1211.45 362.475L1359.34 536.186L1355.5 537.4L1209.64 366.077" fill="#E4B58E"/>
<path d="M1307.94 376.088C1306.73 377.121 1305.18 377.698 1303.48 377.746C1301.78 377.794 1300.01 377.311 1298.4 376.358C1296.79 375.404 1295.4 374.024 1294.42 372.39C1293.44 370.757 1292.9 368.944 1292.88 367.181C1292.85 365.419 1293.35 363.785 1294.29 362.488C1295.24 361.19 1296.6 360.287 1298.19 359.891C1299.79 359.496 1301.55 359.627 1303.26 360.268C1304.97 360.908 1306.54 362.03 1307.79 363.49C1309.45 365.447 1310.4 367.874 1310.43 370.236C1310.46 372.598 1309.57 374.703 1307.94 376.088Z" fill="#E5C2A2"/>
<path d="M1373.86 453.514C1372.65 454.547 1371.1 455.124 1369.4 455.172C1367.7 455.22 1365.93 454.737 1364.32 453.784C1362.71 452.83 1361.32 451.45 1360.34 449.816C1359.35 448.183 1358.82 446.37 1358.8 444.608C1358.77 442.845 1359.27 441.211 1360.21 439.914C1361.16 438.616 1362.52 437.713 1364.11 437.317C1365.71 436.922 1367.47 437.053 1369.18 437.694C1370.89 438.334 1372.46 439.456 1373.7 440.916C1375.37 442.873 1376.32 445.3 1376.35 447.662C1376.38 450.025 1375.49 452.129 1373.86 453.514Z" fill="#E5C2A2"/>
<path d="M1365.75 430.404L1354.49 417.172L1355.6 416.223L1329.28 385.304L1328.16 386.253L1316.89 373.017L1303.48 384.437L1314.75 397.673L1313.64 398.619L1339.96 429.538L1341.07 428.591L1352.34 441.823L1365.75 430.404Z" fill="#E5C2A2"/>
<path d="M1247.09 631.87L1204.61 581.975L1188.85 595.396L1231.33 645.291L1247.09 631.87Z" fill="#D39E79"/>
<path d="M1251.79 627.873L1209.31 577.977L1204.61 581.974L1247.09 631.87L1251.79 627.873Z" fill="#BA8C6B"/>
<path d="M1295.38 590.756L1252.9 540.861L1209.31 577.977L1251.79 627.873L1295.38 590.756Z" fill="#D39E79"/>
<path d="M1298.91 591.251L1253.35 537.742L1251.55 539.273L1297.11 592.783L1298.91 591.251Z" fill="#D39E79"/>
<path d="M1299.08 587.602L1256.6 537.711L1257.04 534.595L1302.6 588.105L1299.08 587.602Z" fill="#A0795D"/>
<path d="M1302.6 588.105L1257.05 534.595L1258.09 532.169L1305.17 587.465L1302.6 588.105Z" fill="#BA8C6B"/>
<path d="M1321.46 568.55L1278.98 518.659L1279.43 515.539L1324.98 569.049L1321.46 568.55Z" fill="#A0795D"/>
<path d="M1329.34 566.885L1282.26 511.588L1280.46 513.12L1327.54 568.416L1329.34 566.885Z" fill="#D39E79"/>
<path d="M1324.98 569.049L1279.43 515.539L1280.46 513.12L1327.54 568.416L1324.98 569.049Z" fill="#BA8C6B"/>
<path d="M1299.08 587.607L1256.6 537.711L1254.7 539.326L1297.18 589.222L1299.08 587.607Z" fill="#8C6A51"/>
<path d="M1321.46 568.554L1278.98 518.659L1260.2 534.651L1302.68 584.546L1321.46 568.554Z" fill="#D39E79"/>
<path d="M1356.57 538.662L1314.09 488.767L1284.37 514.067L1326.85 563.963L1356.57 538.662Z" fill="#D39E79"/>
<path d="M1354.69 540.259L1312.21 490.369L1313.08 487.577L1357.58 539.852L1354.69 540.259Z" fill="#BA8C6B"/>
<path d="M1354.69 540.264L1312.21 490.369L1311.27 491.171L1353.75 541.067L1354.69 540.264Z" fill="#A0795D"/>
<path d="M1240.05 623.605L1211.64 590.235L1195.88 603.656L1224.29 637.026L1240.05 623.605Z" fill="#E5C2A2"/>
<path d="M1244.75 619.608L1216.34 586.237L1211.64 590.234L1240.05 623.605L1244.75 619.608Z" fill="#C29A7D"/>
<path d="M1288.35 582.492L1259.93 549.121L1216.34 586.237L1244.75 619.608L1288.35 582.492Z" fill="#E3B391"/>
<path d="M1291.87 582.991L1260.38 546.001L1258.58 547.533L1290.07 584.523L1291.87 582.991Z" fill="#E5C2A2"/>
<path d="M1292.05 579.342L1263.63 545.971L1264.08 542.855L1295.57 579.844L1292.05 579.342Z" fill="#C29A7D"/>
<path d="M1295.57 579.844L1264.08 542.855L1265.12 540.429L1298.14 579.205L1295.57 579.844Z" fill="#E5C2A2"/>
<path d="M1314.42 560.29L1286.01 526.919L1286.46 523.799L1317.95 560.789L1314.42 560.29Z" fill="#B18D73"/>
<path d="M1322.31 558.624L1289.3 519.848L1287.5 521.38L1320.51 560.156L1322.31 558.624Z" fill="#E5C2A2"/>
<path d="M1317.95 560.789L1286.46 523.799L1287.5 521.38L1320.51 560.156L1317.95 560.789Z" fill="#C29A7D"/>
<path d="M1330.96 549.712L1299.47 512.722L1297.67 514.254L1329.16 551.244L1330.96 549.712Z" fill="#C29A7D"/>
<path d="M1330.96 549.712L1299.47 512.723L1300.51 510.3L1333.52 549.076L1330.96 549.712Z" fill="#E5C2A2"/>
<path d="M1292.04 579.342L1263.63 545.971L1261.74 547.586L1290.15 580.957L1292.04 579.342Z" fill="#B18D73"/>
<path d="M1314.42 560.29L1286.01 526.919L1267.23 542.911L1295.64 576.282L1314.42 560.29Z" fill="#E3B391"/>
<path d="M1306 558.39L1286.54 535.541L1276.77 543.865L1296.22 566.714L1306 558.39Z" fill="#E5C2A2"/>
<path d="M1327.43 549.213L1299.02 515.842L1291.41 522.327L1319.82 555.698L1327.43 549.213Z" fill="#E3B391"/>
<path d="M1321.4 545.279L1301.94 522.43L1297.95 525.829L1317.4 548.678L1321.4 545.279Z" fill="#E5C2A2"/>
<path d="M1331.75 531.084C1330.47 532.175 1328.83 532.785 1327.03 532.835C1325.24 532.886 1323.37 532.375 1321.66 531.368C1319.96 530.361 1318.5 528.902 1317.46 527.177C1316.42 525.451 1315.85 523.537 1315.83 521.675C1315.81 519.813 1316.33 518.087 1317.33 516.716C1318.33 515.346 1319.76 514.391 1321.45 513.974C1323.13 513.556 1324.99 513.695 1326.8 514.371C1328.6 515.048 1330.26 516.233 1331.58 517.775C1333.34 519.843 1334.34 522.406 1334.38 524.902C1334.41 527.397 1333.46 529.621 1331.75 531.084Z" fill="#E5C2A2"/>
<path d="M1329.98 529.012C1329.04 529.817 1327.83 530.266 1326.51 530.304C1325.18 530.342 1323.81 529.965 1322.55 529.223C1321.29 528.481 1320.21 527.405 1319.45 526.133C1318.68 524.861 1318.26 523.45 1318.25 522.077C1318.23 520.704 1318.61 519.432 1319.35 518.421C1320.09 517.41 1321.14 516.706 1322.39 516.399C1323.63 516.091 1325 516.193 1326.33 516.692C1327.66 517.191 1328.89 518.064 1329.86 519.201C1331.15 520.725 1331.9 522.615 1331.92 524.454C1331.94 526.294 1331.25 527.933 1329.98 529.012Z" fill="#EFD1B6"/>
<path d="M1083.32 471.441L1125.8 521.332L1141.56 507.914L1099.08 458.023" fill="#D39E79"/>
<path d="M1099.08 458.023L1141.56 507.914L1146.25 503.917L1103.78 454.026" fill="#BA8C6B"/>
<path d="M1103.78 454.026L1146.25 503.917L1189.85 466.801L1147.37 416.91" fill="#D39E79"/>
<path d="M1145.64 414.879L1191.2 468.388L1193 466.857L1147.44 413.347" fill="#D39E79"/>
<path d="M1151.07 413.76L1193.55 463.651L1196.7 463.71L1151.14 410.2" fill="#A0795D"/>
<path d="M1151.14 410.2L1196.7 463.71L1199.26 463.071L1152.18 407.77" fill="#BA8C6B"/>
<path d="M1173.45 394.708L1215.93 444.598L1219.08 444.654L1173.52 391.145" fill="#A0795D"/>
<path d="M1174.55 388.721L1221.64 444.022L1223.43 442.49L1176.35 387.189" fill="#D39E79"/>
<path d="M1173.52 391.145L1219.08 444.655L1221.64 444.022L1174.55 388.721" fill="#BA8C6B"/>
<path d="M1149.17 415.378L1191.65 465.269L1193.55 463.651L1151.07 413.76" fill="#8C6A51"/>
<path d="M1173.45 394.708L1215.93 444.599L1197.15 460.587L1154.67 410.697" fill="#D39E79"/>
<path d="M1208.56 364.815L1251.04 414.706L1221.32 440.007L1178.84 390.116" fill="#D39E79"/>
<path d="M1206.68 366.417L1249.16 416.308L1252.05 415.9L1207.54 363.621" fill="#BA8C6B"/>
<path d="M1205.74 367.22L1248.21 417.111L1249.16 416.308L1206.68 366.417" fill="#A0795D"/>
<path d="M1134.53 499.654L1106.12 466.283L1090.35 479.704L1118.76 513.075L1134.53 499.654Z" fill="#E5C2A2"/>
<path d="M1139.22 495.657L1110.81 462.286L1106.11 466.283L1134.53 499.654L1139.22 495.657Z" fill="#C29A7D"/>
<path d="M1182.82 458.54L1154.41 425.17L1110.81 462.286L1139.22 495.657L1182.82 458.54Z" fill="#E3B391"/>
<path d="M1185.96 458.592L1154.48 421.607L1152.68 423.139L1184.16 460.124L1185.96 458.592Z" fill="#E5C2A2"/>
<path d="M1158.1 422.02L1186.52 455.391L1189.66 455.445L1158.17 418.46L1158.1 422.02Z" fill="#C29A7D"/>
<path d="M1158.17 418.46L1189.66 455.445L1192.23 454.811L1159.21 416.03L1158.17 418.46Z" fill="#E5C2A2"/>
<path d="M1180.48 402.968L1208.89 436.338L1212.04 436.39L1180.55 399.405L1180.48 402.968Z" fill="#B18D73"/>
<path d="M1216.4 434.225L1183.38 395.449L1181.59 396.981L1214.6 435.757L1216.4 434.225Z" fill="#E5C2A2"/>
<path d="M1180.55 399.405L1212.04 436.39L1214.6 435.762L1181.59 396.981L1180.55 399.405Z" fill="#C29A7D"/>
<path d="M1225.05 425.313L1193.56 388.328L1191.77 389.86L1223.25 426.845L1225.05 425.313Z" fill="#C29A7D"/>
<path d="M1193.56 388.328L1225.05 425.313L1227.62 424.682L1194.6 385.901L1193.56 388.328Z" fill="#E5C2A2"/>
<path d="M1186.52 455.391L1158.11 422.02L1156.21 423.635L1184.62 457.006L1186.52 455.391Z" fill="#B18D73"/>
<path d="M1208.89 436.338L1180.48 402.968L1161.7 418.96L1190.11 452.33L1208.89 436.338Z" fill="#E3B391"/>
<path d="M1200.47 434.438L1181.01 411.59L1171.24 419.913L1190.69 442.762L1200.47 434.438Z" fill="#E5C2A2"/>
<path d="M1221.91 425.261L1193.49 391.891L1185.88 398.376L1214.29 431.746L1221.91 425.261Z" fill="#E3B391"/>
<path d="M1215.87 421.328L1196.41 398.479L1192.42 401.878L1211.87 424.727L1215.87 421.328Z" fill="#E5C2A2"/>
<path d="M1212.1 390.549C1210.82 391.639 1209.95 393.161 1209.62 394.925C1209.28 396.688 1209.49 398.613 1210.21 400.456C1210.93 402.298 1212.14 403.976 1213.68 405.277C1215.21 406.578 1217.01 407.443 1218.85 407.763C1220.68 408.083 1222.47 407.844 1223.98 407.076C1225.49 406.308 1226.66 405.045 1227.35 403.447C1228.03 401.85 1228.19 399.989 1227.81 398.101C1227.43 396.212 1226.52 394.381 1225.21 392.838C1223.45 390.77 1221.08 389.368 1218.62 388.939C1216.16 388.509 1213.82 389.089 1212.1 390.549Z" fill="#E5C2A2"/>
<path d="M1213.85 392.603C1212.9 393.406 1212.27 394.528 1212.02 395.827C1211.77 397.126 1211.93 398.544 1212.46 399.901C1212.99 401.258 1213.88 402.494 1215.01 403.451C1216.15 404.409 1217.47 405.046 1218.82 405.282C1220.17 405.517 1221.49 405.341 1222.6 404.774C1223.72 404.208 1224.58 403.278 1225.08 402.101C1225.58 400.924 1225.7 399.554 1225.42 398.163C1225.14 396.772 1224.47 395.423 1223.51 394.286C1222.21 392.763 1220.46 391.729 1218.65 391.414C1216.84 391.098 1215.11 391.526 1213.85 392.603Z" fill="#EFD1B6"/>
</g>
<g clip-path="url(#clip3_260_38)">
<path d="M1377.66 946.26L1379.64 937.354L1355.57 931.983L1354.86 935.16L1352.82 933.486L1350.96 930.942L1348.53 930.399L1348.08 932.429L1345.77 931.914L1346.22 929.885L1264.12 911.565L1262.13 920.471L1376.91 946.081C1377.16 946.138 1377.42 946.196 1377.67 946.252L1377.66 946.26Z" fill="#E3B391"/>
<path d="M1360.45 1023.37C1360.2 1023.32 1359.94 1023.26 1359.69 1023.2L1244.9 997.592L1242.92 1006.5L1325.04 1024.82L1325.49 1022.79L1327.8 1023.31L1327.34 1025.34L1329.77 1025.88L1332.53 1024.36L1335.1 1023.72L1334.39 1026.9L1358.46 1032.27L1360.45 1023.37L1360.45 1023.37Z" fill="#E3B391"/>
<path d="M1413.75 996.302L1424.66 947.398L1386.57 938.898L1385.86 942.076L1383.55 941.561L1381.5 939.887L1381.97 940.264L1380.43 947.153C1387.16 949.76 1392.67 955.27 1395.9 962.649C1399.13 970.028 1399.88 978.769 1398 987.23L1396.29 994.889C1394.4 1003.35 1390.01 1010.96 1383.94 1016.26C1377.87 1021.57 1370.55 1024.22 1363.34 1023.71L1361.8 1030.6L1361.22 1030.73L1363.79 1030.09L1366.1 1030.6L1365.39 1033.79L1403.49 1042.29L1413.75 996.302Z" fill="#B88A6A"/>
<path d="M1361.8 1030.62L1363.68 1022.16L1360.45 1023.37L1358.46 1032.28L1361.8 1030.62Z" fill="#E5C2A2"/>
<path d="M1358.46 1032.28L1360.45 1023.37L1358.79 1023L1356.8 1031.91L1358.46 1032.28Z" fill="#C29A7D"/>
<path d="M1403.47 1042.32L1424.65 947.396L1418.46 946.015L1408.67 989.892L1400.15 989.06L1398.95 994.412L1407.02 997.285L1397.28 1040.94L1403.47 1042.32Z" fill="#EFD1B6"/>
<path d="M1381.5 939.898L1381.95 940.274L1380.07 948.728L1377.66 946.26L1379.64 937.354L1381.5 939.898Z" fill="#E5C2A2"/>
<path d="M1377.66 946.26L1379.64 937.354L1377.98 936.983L1376 945.889L1377.66 946.26Z" fill="#C29A7D"/>
<path d="M1361.8 1030.62L1363.78 1030.12L1366.13 1030.65C1382.8 1032.36 1399.38 1017.87 1404.04 996.99L1404.2 996.276L1398.95 994.411L1400.14 989.059L1405.69 989.597L1405.89 988.663C1410.55 967.789 1401.71 947.614 1385.89 942.082L1383.54 941.559L1381.95 940.274L1380.4 947.232C1394.35 952.828 1401.9 969.73 1397.99 987.258L1396.28 994.918C1392.37 1012.45 1378.35 1024.53 1363.35 1023.67L1361.8 1030.62Z" fill="#E3B391"/>
<path d="M1451.27 887.12L1401.94 1108.2L1399.86 1107.73L1449.19 886.656" fill="#C6A289"/>
<path d="M1453.87 885.289L1403.52 1110.95L1401.94 1108.2L1451.27 887.12" fill="#D8B095"/>
<path d="M1471.19 896.587L1424 1108.09L1405.1 1103.87L1452.29 892.369" fill="#E5C2A2"/>
<path d="M1444.29 1106.13L1488.72 906.992L1469.81 902.773L1425.38 1101.91L1444.29 1106.13Z" fill="#D8B095"/>
<path d="M1477.49 1097.08L1514.93 929.282L1485.22 922.654L1447.78 1090.45L1477.49 1097.08Z" fill="#C9A58B"/>
<path d="M1492.23 1058.39L1511.82 970.571L1506.01 969.274L1486.41 1057.09L1492.23 1058.39Z" fill="#C09E86"/>
<path d="M1495.04 1045.8C1503.35 1038.62 1509.38 1028.26 1511.95 1016.7C1514.53 1005.15 1513.48 993.215 1509.01 983.177L1495.04 1045.8Z" fill="#AD8E79"/>
<path d="M1448.47 889.862L1400.58 1104.53L1393.74 1103L1441.63 888.336" fill="#A0795D"/>
<path d="M1445 905.437L1447.12 895.939L1440.27 894.411L1438.15 903.909L1445 905.437Z" fill="#BA8C6B"/>
<path d="M1441.08 922.983L1443.2 913.485L1436.36 911.957L1434.24 921.455L1441.08 922.983Z" fill="#BA8C6B"/>
<path d="M1437.17 940.529L1439.29 931.037L1432.44 929.509L1430.32 939.001L1437.17 940.529Z" fill="#BA8C6B"/>
<path d="M1433.26 958.069L1435.37 948.577L1428.53 947.05L1426.41 956.542L1433.26 958.069Z" fill="#BA8C6B"/>
<path d="M1429.34 975.615L1431.46 966.123L1424.61 964.595L1422.49 974.087L1429.34 975.615Z" fill="#BA8C6B"/>
<path d="M1425.42 993.167L1427.54 983.669L1420.7 982.141L1418.58 991.639L1425.42 993.167Z" fill="#BA8C6B"/>
<path d="M1421.51 1010.71L1423.63 1001.21L1416.78 999.687L1414.66 1009.19L1421.51 1010.71Z" fill="#BA8C6B"/>
<path d="M1417.59 1028.26L1419.71 1018.76L1412.87 1017.23L1410.75 1026.73L1417.59 1028.26Z" fill="#BA8C6B"/>
<path d="M1413.68 1045.8L1415.8 1036.31L1408.95 1034.78L1406.83 1044.28L1413.68 1045.8Z" fill="#BA8C6B"/>
<path d="M1409.76 1063.35L1411.88 1053.85L1405.04 1052.33L1402.92 1061.82L1409.76 1063.35Z" fill="#BA8C6B"/>
<path d="M1405.85 1080.9L1407.97 1071.4L1401.12 1069.88L1399 1079.37L1405.85 1080.9Z" fill="#BA8C6B"/>
<path d="M1401.93 1098.45L1404.05 1088.95L1397.21 1087.42L1395.09 1096.92L1401.93 1098.45Z" fill="#BA8C6B"/>
<path d="M1442.53 884.335L1392.84 1107L1389.56 1104.66L1438.56 885.057" fill="#E4B58E"/>
<path d="M1489.74 969.583C1488.19 969.238 1486.79 968.345 1485.73 967.017C1484.67 965.69 1483.99 963.987 1483.78 962.125C1483.57 960.263 1483.84 958.326 1484.56 956.557C1485.27 954.789 1486.39 953.269 1487.79 952.19C1489.18 951.111 1490.78 950.522 1492.39 950.496C1493.99 950.471 1495.53 951.01 1496.81 952.047C1498.08 953.083 1499.04 954.57 1499.56 956.319C1500.07 958.068 1500.13 960.001 1499.71 961.872C1499.15 964.381 1497.78 966.603 1495.92 968.049C1494.05 969.495 1491.83 970.047 1489.74 969.583Z" fill="#E5C2A2"/>
<path d="M1467.6 1068.83C1466.05 1068.48 1464.65 1067.59 1463.59 1066.26C1462.53 1064.94 1461.85 1063.23 1461.64 1061.37C1461.43 1059.51 1461.7 1057.57 1462.41 1055.8C1463.12 1054.03 1464.25 1052.51 1465.64 1051.44C1467.04 1050.36 1468.64 1049.77 1470.24 1049.74C1471.85 1049.72 1473.39 1050.26 1474.66 1051.29C1475.94 1052.33 1476.9 1053.82 1477.41 1055.56C1477.93 1057.31 1477.98 1059.25 1477.56 1061.12C1477 1063.63 1475.64 1065.85 1473.77 1067.29C1471.9 1068.74 1469.68 1069.29 1467.6 1068.83Z" fill="#E5C2A2"/>
<path d="M1481.17 1048.44L1484.96 1031.48L1486.39 1031.8L1495.23 992.166L1493.8 991.847L1497.58 974.881L1480.39 971.045L1476.61 988.011L1475.18 987.693L1466.34 1027.33L1467.76 1027.64L1463.98 1044.6L1481.17 1048.44Z" fill="#E5C2A2"/>
<path d="M1248.87 1074.97L1263.14 1011.01L1242.93 1006.5L1228.66 1070.46L1248.87 1074.97Z" fill="#D39E79"/>
<path d="M1254.89 1076.31L1269.16 1012.35L1263.14 1011.01L1248.87 1074.97L1254.89 1076.31Z" fill="#BA8C6B"/>
<path d="M1310.77 1088.78L1325.04 1024.82L1269.16 1012.35L1254.89 1076.31L1310.77 1088.78Z" fill="#D39E79"/>
<path d="M1312.49 1091.89L1327.8 1023.3L1325.49 1022.79L1310.19 1091.38L1312.49 1091.89Z" fill="#D39E79"/>
<path d="M1315.51 1089.83L1329.78 1025.88L1332.53 1024.36L1317.23 1092.95L1315.51 1089.83Z" fill="#A0795D"/>
<path d="M1317.23 1092.95L1332.53 1024.36L1335.1 1023.73L1319.29 1094.61L1317.23 1092.95Z" fill="#BA8C6B"/>
<path d="M1344.2 1096.23L1358.46 1032.28L1361.22 1030.76L1345.92 1099.35L1344.2 1096.23Z" fill="#A0795D"/>
<path d="M1350.27 1101.52L1366.09 1030.64L1363.78 1030.13L1347.96 1101.01L1350.27 1101.52Z" fill="#D39E79"/>
<path d="M1345.92 1099.35L1361.22 1030.76L1363.78 1030.13L1347.97 1101.01L1345.92 1099.35Z" fill="#BA8C6B"/>
<path d="M1315.51 1089.84L1329.78 1025.88L1327.35 1025.34L1313.08 1089.29L1315.51 1089.84Z" fill="#8C6A51"/>
<path d="M1344.19 1096.24L1358.46 1032.28L1334.39 1026.91L1320.12 1090.86L1344.19 1096.24Z" fill="#D39E79"/>
<path d="M1389.2 1106.28L1403.47 1042.32L1365.38 1033.82L1351.11 1097.78L1389.2 1106.28Z" fill="#D39E79"/>
<path d="M1386.79 1105.73L1401.06 1041.78L1403.81 1040.8L1388.86 1107.8L1386.79 1105.73Z" fill="#BA8C6B"/>
<path d="M1386.79 1105.74L1401.06 1041.78L1399.85 1041.51L1385.58 1105.47L1386.79 1105.74Z" fill="#A0795D"/>
<path d="M1251.23 1064.37L1260.78 1021.6L1240.57 1017.09L1231.02 1059.86L1251.23 1064.37Z" fill="#E5C2A2"/>
<path d="M1257.25 1065.72L1266.79 1022.94L1260.77 1021.6L1251.23 1064.37L1257.25 1065.72Z" fill="#C29A7D"/>
<path d="M1313.13 1078.18L1322.67 1035.41L1266.79 1022.94L1257.25 1065.72L1313.13 1078.18Z" fill="#E3B391"/>
<path d="M1314.86 1081.3L1325.43 1033.89L1323.13 1033.37L1312.55 1080.79L1314.86 1081.3Z" fill="#E5C2A2"/>
<path d="M1317.87 1079.24L1327.42 1036.47L1330.17 1034.95L1319.59 1082.36L1317.87 1079.24Z" fill="#C29A7D"/>
<path d="M1319.59 1082.36L1330.17 1034.95L1332.74 1034.32L1321.65 1084.02L1319.59 1082.36Z" fill="#E5C2A2"/>
<path d="M1346.56 1085.64L1356.1 1042.87L1358.86 1041.35L1348.28 1088.76L1346.56 1085.64Z" fill="#B18D73"/>
<path d="M1352.63 1090.94L1363.72 1041.23L1361.42 1040.72L1350.33 1090.42L1352.63 1090.94Z" fill="#E5C2A2"/>
<path d="M1348.28 1088.76L1358.86 1041.35L1361.42 1040.72L1350.33 1090.42L1348.28 1088.76Z" fill="#C29A7D"/>
<path d="M1364.96 1092.48L1375.54 1045.07L1373.23 1044.55L1362.65 1091.97L1364.96 1092.48Z" fill="#C29A7D"/>
<path d="M1364.96 1092.48L1375.54 1045.07L1378.1 1044.44L1367.01 1094.14L1364.96 1092.48Z" fill="#E5C2A2"/>
<path d="M1317.87 1079.24L1327.42 1036.47L1324.99 1035.92L1315.44 1078.7L1317.87 1079.24Z" fill="#B18D73"/>
<path d="M1346.56 1085.64L1356.1 1042.87L1332.02 1037.5L1322.48 1080.27L1346.56 1085.64Z" fill="#E3B391"/>
<path d="M1343 1077.77L1349.54 1048.48L1337.01 1045.69L1330.47 1074.97L1343 1077.77Z" fill="#E5C2A2"/>
<path d="M1363.23 1089.36L1372.78 1046.59L1363.01 1044.41L1353.47 1087.18L1363.23 1089.36Z" fill="#E3B391"/>
<path d="M1362.74 1082.17L1369.28 1052.89L1364.16 1051.74L1357.62 1081.03L1362.74 1082.17Z" fill="#E5C2A2"/>
<path d="M1380.31 1081.89C1378.66 1081.53 1377.19 1080.58 1376.07 1079.18C1374.95 1077.78 1374.23 1075.98 1374.01 1074.01C1373.79 1072.05 1374.07 1070 1374.83 1068.13C1375.58 1066.26 1376.77 1064.66 1378.24 1063.52C1379.71 1062.38 1381.4 1061.76 1383.1 1061.73C1384.79 1061.7 1386.42 1062.27 1387.77 1063.37C1389.12 1064.46 1390.13 1066.03 1390.67 1067.88C1391.22 1069.73 1391.27 1071.77 1390.83 1073.75C1390.24 1076.4 1388.8 1078.74 1386.83 1080.27C1384.85 1081.8 1382.51 1082.38 1380.31 1081.89Z" fill="#E5C2A2"/>
<path d="M1380.9 1079.24C1379.69 1078.97 1378.6 1078.27 1377.77 1077.24C1376.95 1076.21 1376.42 1074.88 1376.26 1073.43C1376.09 1071.98 1376.3 1070.47 1376.86 1069.09C1377.41 1067.72 1378.29 1066.53 1379.37 1065.69C1380.46 1064.85 1381.7 1064.39 1382.96 1064.37C1384.21 1064.35 1385.4 1064.77 1386.4 1065.58C1387.39 1066.39 1388.14 1067.54 1388.54 1068.91C1388.94 1070.27 1388.98 1071.77 1388.66 1073.23C1388.22 1075.19 1387.16 1076.92 1385.7 1078.04C1384.25 1079.17 1382.52 1079.6 1380.9 1079.24Z" fill="#EFD1B6"/>
<path d="M1278.39 847.62L1264.12 911.571L1284.32 916.078L1298.59 852.128" fill="#D39E79"/>
<path d="M1298.59 852.128L1284.32 916.078L1290.34 917.421L1304.61 853.47" fill="#BA8C6B"/>
<path d="M1304.61 853.47L1290.34 917.421L1346.22 929.889L1360.49 865.939" fill="#D39E79"/>
<path d="M1361.07 863.335L1345.76 931.925L1348.07 932.439L1363.37 863.85" fill="#D39E79"/>
<path d="M1365.23 866.997L1350.96 930.948L1352.81 933.496L1368.11 864.907" fill="#A0795D"/>
<path d="M1368.11 864.907L1352.81 933.496L1354.86 935.16L1370.68 864.275" fill="#BA8C6B"/>
<path d="M1393.91 873.397L1379.65 937.348L1381.5 939.898L1396.8 871.308" fill="#A0795D"/>
<path d="M1399.36 870.674L1383.54 941.559L1385.85 942.074L1401.67 871.188" fill="#D39E79"/>
<path d="M1396.8 871.308L1381.5 939.898L1383.54 941.559L1399.36 870.674" fill="#BA8C6B"/>
<path d="M1362.79 866.453L1348.52 930.404L1350.96 930.948L1365.23 866.997" fill="#8C6A51"/>
<path d="M1393.91 873.397L1379.65 937.348L1355.57 931.977L1369.84 868.026" fill="#D39E79"/>
<path d="M1438.92 883.439L1424.65 947.39L1386.56 938.89L1400.83 874.94" fill="#D39E79"/>
<path d="M1436.51 882.901L1422.24 946.852L1424.31 948.921L1439.26 881.908" fill="#BA8C6B"/>
<path d="M1435.3 882.631L1421.03 946.582L1422.24 946.852L1436.51 882.901" fill="#A0795D"/>
<path d="M1286.68 905.49L1296.23 862.715L1276.02 858.207L1266.48 900.982L1286.68 905.49Z" fill="#E5C2A2"/>
<path d="M1292.7 906.833L1302.24 864.058L1296.23 862.716L1286.68 905.49L1292.7 906.833Z" fill="#C29A7D"/>
<path d="M1348.58 919.302L1358.12 876.527L1302.24 864.058L1292.7 906.833L1348.58 919.302Z" fill="#E3B391"/>
<path d="M1350.43 921.846L1361.01 874.438L1358.71 873.923L1348.13 921.331L1350.43 921.846Z" fill="#E5C2A2"/>
<path d="M1362.87 877.585L1353.32 920.36L1355.17 922.903L1365.75 875.495L1362.87 877.585Z" fill="#C29A7D"/>
<path d="M1365.75 875.495L1355.17 922.903L1357.22 924.572L1368.32 874.862L1365.75 875.495Z" fill="#E5C2A2"/>
<path d="M1391.55 883.985L1382.01 926.76L1383.86 929.304L1394.44 881.896L1391.55 883.985Z" fill="#B18D73"/>
<path d="M1388.21 931.48L1399.3 881.776L1397 881.262L1385.91 930.966L1388.21 931.48Z" fill="#E5C2A2"/>
<path d="M1394.44 881.896L1383.86 929.304L1385.9 930.971L1397 881.262L1394.44 881.896Z" fill="#C29A7D"/>
<path d="M1400.54 933.025L1411.12 885.617L1408.81 885.103L1398.23 932.511L1400.54 933.025Z" fill="#C29A7D"/>
<path d="M1411.12 885.617L1400.54 933.025L1402.59 934.694L1413.68 884.984L1411.12 885.617Z" fill="#E5C2A2"/>
<path d="M1353.32 920.36L1362.87 877.585L1360.44 877.042L1350.89 919.817L1353.32 920.36Z" fill="#B18D73"/>
<path d="M1382.01 926.76L1391.55 883.985L1367.47 878.613L1357.93 921.388L1382.01 926.76Z" fill="#E3B391"/>
<path d="M1378.45 918.887L1384.99 889.6L1372.46 886.803L1365.92 916.091L1378.45 918.887Z" fill="#E5C2A2"/>
<path d="M1398.69 930.481L1408.23 887.706L1398.47 885.528L1388.92 928.303L1398.69 930.481Z" fill="#E3B391"/>
<path d="M1398.19 923.292L1404.73 894.004L1399.61 892.862L1393.07 922.15L1398.19 923.292Z" fill="#E5C2A2"/>
<path d="M1420.5 901.754C1418.86 901.386 1417.12 901.614 1415.51 902.407C1413.9 903.2 1412.49 904.523 1411.45 906.209C1410.42 907.895 1409.8 909.869 1409.69 911.879C1409.58 913.89 1409.97 915.848 1410.82 917.506C1411.67 919.163 1412.93 920.446 1414.46 921.191C1415.98 921.937 1417.69 922.112 1419.38 921.694C1421.06 921.276 1422.65 920.284 1423.93 918.843C1425.21 917.403 1426.12 915.579 1426.56 913.601C1427.16 910.951 1426.85 908.214 1425.71 905.993C1424.57 903.771 1422.7 902.246 1420.5 901.754Z" fill="#E5C2A2"/>
<path d="M1419.91 904.386C1418.7 904.117 1417.42 904.285 1416.24 904.869C1415.05 905.454 1414.01 906.43 1413.25 907.672C1412.49 908.914 1412.03 910.368 1411.95 911.849C1411.87 913.33 1412.16 914.772 1412.78 915.993C1413.41 917.213 1414.34 918.158 1415.46 918.707C1416.59 919.255 1417.85 919.384 1419.09 919.076C1420.33 918.768 1421.5 918.037 1422.44 916.976C1423.38 915.915 1424.06 914.571 1424.38 913.115C1424.82 911.162 1424.59 909.145 1423.75 907.508C1422.92 905.871 1421.53 904.748 1419.91 904.386Z" fill="#EFD1B6"/>
</g>
<g clip-path="url(#clip4_260_38)">
<path d="M1091.75 1389.04L1099.81 1384.76L1088.24 1362.98L1085.36 1364.51L1085.3 1361.87L1086.03 1358.8L1084.86 1356.6L1083.02 1357.58L1081.91 1355.49L1083.75 1354.52L1044.27 1280.23L1036.21 1284.52L1091.4 1388.36C1091.53 1388.59 1091.65 1388.82 1091.77 1389.05L1091.75 1389.04Z" fill="#E3B391"/>
<path d="M1021.99 1426.12C1021.87 1425.9 1021.74 1425.66 1021.62 1425.43L966.424 1321.58L958.366 1325.87L997.855 1400.16L999.691 1399.19L1000.8 1401.28L998.958 1402.25L1000.13 1404.45L1003.08 1405.56L1005.24 1407.09L1002.36 1408.62L1013.93 1430.4L1021.98 1426.12L1021.99 1426.12Z" fill="#E3B391"/>
<path d="M1077.21 1449L1121.46 1425.49L1103.14 1391.02L1100.27 1392.55L1099.16 1390.47L1099.1 1387.82L1099.11 1388.42L1092.88 1391.73C1095.28 1398.54 1094.67 1406.3 1091.17 1413.56C1087.67 1420.82 1081.51 1427.07 1073.86 1431.14L1066.93 1434.82C1059.27 1438.89 1050.64 1440.5 1042.66 1439.34C1034.69 1438.19 1027.91 1434.34 1023.61 1428.54L1017.38 1431.85L1016.9 1431.5L1019.06 1433.03L1020.16 1435.11L1017.28 1436.65L1035.61 1471.12L1077.21 1449Z" fill="#B88A6A"/>
<path d="M1017.36 1431.86L1025.01 1427.79L1021.99 1426.12L1013.93 1430.41L1017.36 1431.86Z" fill="#E5C2A2"/>
<path d="M1013.93 1430.41L1021.99 1426.12L1021.19 1424.62L1013.13 1428.9L1013.93 1430.41Z" fill="#C29A7D"/>
<path d="M1035.57 1471.13L1121.45 1425.48L1118.48 1419.88L1078.78 1440.98L1073.87 1433.96L1069.02 1436.54L1072.09 1444.54L1032.6 1465.53L1035.57 1471.13Z" fill="#EFD1B6"/>
<path d="M1099.08 1387.82L1099.1 1388.41L1091.45 1392.48L1091.75 1389.04L1099.81 1384.76L1099.08 1387.82Z" fill="#E5C2A2"/>
<path d="M1091.75 1389.04L1099.81 1384.76L1099.01 1383.26L1090.95 1387.54L1091.75 1389.04Z" fill="#C29A7D"/>
<path d="M1017.36 1431.86L1019.02 1433.04L1020.15 1435.17C1029.69 1448.95 1051.48 1452.12 1070.37 1442.07L1071.02 1441.73L1069.02 1436.53L1073.86 1433.96L1077.06 1438.52L1077.91 1438.07C1096.79 1428.03 1106.37 1408.19 1100.28 1392.58L1099.15 1390.46L1099.1 1388.41L1092.8 1391.76C1097.62 1406 1089.69 1422.72 1073.83 1431.15L1066.9 1434.84C1051.05 1443.26 1032.75 1440.48 1023.65 1428.52L1017.36 1431.86Z" fill="#E3B391"/>
<path d="M1184.55 1406.5L984.537 1512.81L983.536 1510.93L1183.55 1404.62" fill="#C6A289"/>
<path d="M1187.63 1407.28L983.467 1515.79L984.537 1512.81L1184.55 1406.5" fill="#D8B095"/>
<path d="M1190.32 1427.79L998.963 1529.5L989.872 1512.39L1181.23 1410.69" fill="#E5C2A2"/>
<path d="M1013.65 1543.63L1193.81 1447.87L1184.72 1430.76L1004.55 1526.52L1013.65 1543.63Z" fill="#D8B095"/>
<path d="M1042.11 1562.97L1193.93 1482.28L1179.64 1455.4L1027.83 1536.09L1042.11 1562.97Z" fill="#C9A58B"/>
<path d="M1081.09 1549L1160.54 1506.77L1157.75 1501.51L1078.29 1543.74L1081.09 1549Z" fill="#C09E86"/>
<path d="M1092.48 1542.95C1103.35 1544.59 1115.13 1542.43 1125.58 1536.87C1136.04 1531.32 1144.42 1522.76 1149.14 1512.83L1092.48 1542.95Z" fill="#AD8E79"/>
<path d="M1180.65 1406.16L986.437 1509.38L983.148 1503.19L1177.36 1399.97" fill="#A0795D"/>
<path d="M1166.56 1413.65L1175.15 1409.08L1171.86 1402.89L1163.27 1407.46L1166.56 1413.65Z" fill="#BA8C6B"/>
<path d="M1150.69 1422.09L1159.28 1417.52L1155.99 1411.33L1147.39 1415.89L1150.69 1422.09Z" fill="#BA8C6B"/>
<path d="M1134.81 1430.52L1143.4 1425.96L1140.11 1419.77L1131.52 1424.33L1134.81 1430.52Z" fill="#BA8C6B"/>
<path d="M1118.94 1438.96L1127.53 1434.39L1124.24 1428.2L1115.65 1432.76L1118.94 1438.96Z" fill="#BA8C6B"/>
<path d="M1103.07 1447.4L1111.66 1442.83L1108.36 1436.64L1099.78 1441.2L1103.07 1447.4Z" fill="#BA8C6B"/>
<path d="M1087.19 1455.84L1095.78 1451.27L1092.49 1445.07L1083.9 1449.64L1087.19 1455.84Z" fill="#BA8C6B"/>
<path d="M1071.31 1464.27L1079.91 1459.71L1076.61 1453.51L1068.02 1458.08L1071.31 1464.27Z" fill="#BA8C6B"/>
<path d="M1055.44 1472.71L1064.03 1468.14L1060.74 1461.95L1052.15 1466.52L1055.44 1472.71Z" fill="#BA8C6B"/>
<path d="M1039.56 1481.15L1048.16 1476.58L1044.87 1470.39L1036.27 1474.95L1039.56 1481.15Z" fill="#BA8C6B"/>
<path d="M1023.69 1489.58L1032.28 1485.02L1028.99 1478.82L1020.4 1483.39L1023.69 1489.58Z" fill="#BA8C6B"/>
<path d="M1007.81 1498.02L1016.4 1493.46L1013.11 1487.26L1004.52 1491.83L1007.81 1498.02Z" fill="#BA8C6B"/>
<path d="M991.935 1506.46L1000.53 1501.89L997.236 1495.7L988.643 1500.27L991.935 1506.46Z" fill="#BA8C6B"/>
<path d="M1180.98 1398.05L979.528 1505.12L979.17 1501.1L1177.85 1395.5" fill="#E4B58E"/>
<path d="M1146.93 1489.36C1146.18 1487.95 1145.96 1486.31 1146.27 1484.64C1146.59 1482.97 1147.44 1481.35 1148.72 1479.98C1150 1478.61 1151.65 1477.55 1153.45 1476.94C1155.26 1476.33 1157.15 1476.2 1158.87 1476.56C1160.6 1476.91 1162.09 1477.75 1163.15 1478.95C1164.21 1480.15 1164.81 1481.67 1164.85 1483.32C1164.89 1484.96 1164.38 1486.65 1163.39 1488.18C1162.4 1489.71 1160.96 1491.01 1159.27 1491.91C1157 1493.12 1154.43 1493.53 1152.11 1493.05C1149.8 1492.57 1147.94 1491.24 1146.93 1489.36Z" fill="#E5C2A2"/>
<path d="M1057.14 1537.08C1056.39 1535.68 1056.16 1534.03 1056.48 1532.36C1056.8 1530.7 1057.65 1529.07 1058.93 1527.7C1060.21 1526.33 1061.86 1525.28 1063.66 1524.67C1065.47 1524.06 1067.35 1523.92 1069.08 1524.28C1070.81 1524.64 1072.3 1525.47 1073.36 1526.67C1074.42 1527.88 1075.01 1529.4 1075.06 1531.04C1075.1 1532.68 1074.59 1534.38 1073.6 1535.91C1072.61 1537.44 1071.17 1538.73 1069.48 1539.63C1067.21 1540.84 1064.64 1541.25 1062.32 1540.77C1060.01 1540.29 1058.15 1538.96 1057.14 1537.08Z" fill="#E5C2A2"/>
<path d="M1081.46 1534.13L1096.8 1525.97L1097.49 1527.27L1133.35 1508.21L1132.66 1506.92L1148.01 1498.76L1139.74 1483.2L1124.39 1491.36L1123.71 1490.07L1087.85 1509.13L1088.53 1510.42L1073.19 1518.57L1081.46 1534.13Z" fill="#E5C2A2"/>
<path d="M910.225 1374.92L968.089 1344.16L958.372 1325.88L900.508 1356.63L910.225 1374.92Z" fill="#D39E79"/>
<path d="M913.119 1380.36L970.983 1349.61L968.09 1344.16L910.226 1374.92L913.119 1380.36Z" fill="#BA8C6B"/>
<path d="M939.991 1430.92L997.854 1400.16L970.983 1349.61L913.119 1380.36L939.991 1430.92Z" fill="#D39E79"/>
<path d="M938.749 1434.25L1000.8 1401.27L999.696 1399.19L937.64 1432.17L938.749 1434.25Z" fill="#D39E79"/>
<path d="M942.276 1435.21L1000.14 1404.46L1003.08 1405.56L941.028 1438.54L942.276 1435.21Z" fill="#A0795D"/>
<path d="M941.027 1438.54L1003.08 1405.56L1005.23 1407.1L941.1 1441.18L941.027 1438.54Z" fill="#BA8C6B"/>
<path d="M956.07 1461.16L1013.93 1430.41L1016.88 1431.52L954.823 1464.5L956.07 1461.16Z" fill="#A0795D"/>
<path d="M956 1469.22L1020.13 1435.13L1019.02 1433.05L954.891 1467.13L956 1469.22Z" fill="#D39E79"/>
<path d="M954.823 1464.5L1016.88 1431.52L1019.02 1433.05L954.891 1467.13L954.823 1464.5Z" fill="#BA8C6B"/>
<path d="M942.271 1435.21L1000.13 1404.46L998.966 1402.26L941.102 1433.01L942.271 1435.21Z" fill="#8C6A51"/>
<path d="M956.064 1461.16L1013.93 1430.41L1002.35 1408.62L944.486 1439.38L956.064 1461.16Z" fill="#D39E79"/>
<path d="M977.705 1501.88L1035.57 1471.13L1017.25 1436.66L959.388 1467.42L977.705 1501.88Z" fill="#D39E79"/>
<path d="M976.551 1499.69L1034.41 1468.94L1036.95 1470.39L976.326 1502.61L976.551 1499.69Z" fill="#BA8C6B"/>
<path d="M976.546 1499.7L1034.41 1468.94L1033.83 1467.85L975.965 1498.6L976.546 1499.7Z" fill="#A0795D"/>
<path d="M919.81 1369.82L958.51 1349.25L948.793 1330.97L910.093 1351.54L919.81 1369.82Z" fill="#E5C2A2"/>
<path d="M922.704 1375.27L961.404 1354.7L958.51 1349.25L919.81 1369.82L922.704 1375.27Z" fill="#C29A7D"/>
<path d="M949.575 1425.82L988.275 1405.26L961.404 1354.7L922.704 1375.27L949.575 1425.82Z" fill="#E3B391"/>
<path d="M948.329 1429.16L991.226 1406.36L990.117 1404.28L947.22 1427.08L948.329 1429.16Z" fill="#E5C2A2"/>
<path d="M951.856 1430.12L990.556 1409.55L993.504 1410.65L950.607 1433.45L951.856 1430.12Z" fill="#C29A7D"/>
<path d="M950.607 1433.45L993.504 1410.65L995.648 1412.19L950.679 1436.09L950.607 1433.45Z" fill="#E5C2A2"/>
<path d="M965.649 1456.07L1004.35 1435.5L1007.3 1436.61L964.403 1459.41L965.649 1456.07Z" fill="#B18D73"/>
<path d="M965.58 1464.13L1010.55 1440.23L1009.44 1438.14L964.471 1462.04L965.58 1464.13Z" fill="#E5C2A2"/>
<path d="M964.402 1459.41L1007.3 1436.61L1009.44 1438.14L964.47 1462.04L964.402 1459.41Z" fill="#C29A7D"/>
<path d="M972.422 1474.49L1015.32 1451.69L1014.21 1449.61L971.313 1472.41L972.422 1474.49Z" fill="#C29A7D"/>
<path d="M972.422 1474.49L1015.32 1451.69L1017.46 1453.23L972.492 1477.13L972.422 1474.49Z" fill="#E5C2A2"/>
<path d="M951.856 1430.12L990.556 1409.55L989.387 1407.35L950.686 1427.92L951.856 1430.12Z" fill="#B18D73"/>
<path d="M965.649 1456.07L1004.35 1435.5L992.771 1413.72L954.071 1434.28L965.649 1456.07Z" fill="#E3B391"/>
<path d="M969.317 1448.25L995.814 1434.16L989.788 1422.83L963.29 1436.91L969.317 1448.25Z" fill="#E5C2A2"/>
<path d="M973.668 1471.16L1012.37 1450.59L1007.67 1441.75L968.973 1462.32L973.668 1471.16Z" fill="#E3B391"/>
<path d="M978.809 1466.11L1005.31 1452.02L1002.85 1447.39L976.348 1461.48L978.809 1466.11Z" fill="#E5C2A2"/>
<path d="M990.446 1479.27C989.656 1477.78 989.413 1476.05 989.75 1474.28C990.086 1472.52 990.986 1470.81 992.337 1469.36C993.687 1467.91 995.426 1466.8 997.334 1466.15C999.243 1465.51 1001.23 1465.37 1003.06 1465.75C1004.88 1466.12 1006.45 1467 1007.58 1468.27C1008.7 1469.54 1009.33 1471.15 1009.37 1472.89C1009.42 1474.62 1008.88 1476.41 1007.83 1478.03C1006.78 1479.64 1005.27 1481.01 1003.48 1481.96C1001.08 1483.24 998.362 1483.67 995.918 1483.16C993.474 1482.66 991.506 1481.26 990.446 1479.27Z" fill="#E5C2A2"/>
<path d="M992.848 1477.99C992.265 1476.89 992.086 1475.62 992.334 1474.32C992.582 1473.02 993.245 1471.75 994.241 1470.69C995.236 1469.62 996.518 1468.8 997.925 1468.32C999.332 1467.85 1000.8 1467.74 1002.15 1468.02C1003.49 1468.3 1004.65 1468.95 1005.48 1469.88C1006.31 1470.82 1006.77 1472 1006.8 1473.28C1006.83 1474.56 1006.44 1475.88 1005.67 1477.07C1004.89 1478.27 1003.78 1479.28 1002.46 1479.98C1000.69 1480.92 998.684 1481.23 996.882 1480.86C995.081 1480.49 993.63 1479.46 992.848 1477.99Z" fill="#EFD1B6"/>
<path d="M1102.12 1249.48L1044.26 1280.24L1053.98 1298.51L1111.84 1267.76" fill="#D39E79"/>
<path d="M1111.84 1267.76L1053.98 1298.51L1056.87 1303.96L1114.73 1273.21" fill="#BA8C6B"/>
<path d="M1114.73 1273.21L1056.87 1303.96L1083.74 1354.52L1141.6 1323.76" fill="#D39E79"/>
<path d="M1143.96 1322.51L1081.9 1355.49L1083.01 1357.58L1145.07 1324.6" fill="#D39E79"/>
<path d="M1143.88 1328.05L1086.02 1358.81L1085.29 1361.87L1147.34 1328.88" fill="#A0795D"/>
<path d="M1147.34 1328.88L1085.29 1361.87L1085.36 1364.51L1149.49 1330.42" fill="#BA8C6B"/>
<path d="M1157.68 1354.01L1099.82 1384.76L1099.08 1387.82L1161.14 1354.84" fill="#A0795D"/>
<path d="M1163.28 1356.37L1099.15 1390.46L1100.26 1392.54L1164.39 1358.46" fill="#D39E79"/>
<path d="M1161.14 1354.84L1099.08 1387.82L1099.15 1390.46L1163.29 1356.37" fill="#BA8C6B"/>
<path d="M1142.71 1325.85L1084.85 1356.6L1086.02 1358.81L1143.88 1328.05" fill="#8C6A51"/>
<path d="M1157.68 1354.01L1099.82 1384.76L1088.24 1362.98L1146.1 1332.23" fill="#D39E79"/>
<path d="M1179.32 1394.72L1121.46 1425.48L1103.14 1391.01L1161 1360.26" fill="#D39E79"/>
<path d="M1178.16 1392.54L1120.3 1423.29L1120.07 1426.21L1180.7 1393.99" fill="#BA8C6B"/>
<path d="M1177.58 1391.45L1119.72 1422.2L1120.3 1423.29L1178.16 1392.54" fill="#A0795D"/>
<path d="M1063.56 1293.42L1102.26 1272.85L1092.54 1254.57L1053.84 1275.14L1063.56 1293.42Z" fill="#E5C2A2"/>
<path d="M1066.45 1298.87L1105.15 1278.3L1102.26 1272.85L1063.56 1293.42L1066.45 1298.87Z" fill="#C29A7D"/>
<path d="M1093.32 1349.42L1132.02 1328.85L1105.15 1278.3L1066.45 1298.87L1093.32 1349.42Z" fill="#E3B391"/>
<path d="M1092.59 1352.49L1135.49 1329.69L1134.38 1327.6L1091.49 1350.4L1092.59 1352.49Z" fill="#E5C2A2"/>
<path d="M1134.3 1333.15L1095.6 1353.71L1094.87 1356.77L1137.76 1333.98L1134.3 1333.15Z" fill="#C29A7D"/>
<path d="M1137.77 1333.98L1094.87 1356.77L1094.94 1359.42L1139.92 1335.51L1137.77 1333.98Z" fill="#E5C2A2"/>
<path d="M1148.1 1359.1L1109.4 1379.67L1108.67 1382.73L1151.56 1359.93L1148.1 1359.1Z" fill="#B18D73"/>
<path d="M1109.85 1387.45L1154.81 1363.55L1153.71 1361.46L1108.74 1385.36L1109.85 1387.45Z" fill="#E5C2A2"/>
<path d="M1151.56 1359.93L1108.67 1382.73L1108.73 1385.37L1153.71 1361.46L1151.56 1359.93Z" fill="#C29A7D"/>
<path d="M1116.69 1397.82L1159.58 1375.02L1158.47 1372.93L1115.58 1395.73L1116.69 1397.82Z" fill="#C29A7D"/>
<path d="M1159.58 1375.02L1116.69 1397.82L1116.75 1400.46L1161.73 1376.56L1159.58 1375.02Z" fill="#E5C2A2"/>
<path d="M1095.6 1353.71L1134.3 1333.15L1133.13 1330.95L1094.43 1351.51L1095.6 1353.71Z" fill="#B18D73"/>
<path d="M1109.4 1379.67L1148.1 1359.1L1136.52 1337.31L1097.82 1357.88L1109.4 1379.67Z" fill="#E3B391"/>
<path d="M1113.06 1371.85L1139.56 1357.76L1133.54 1346.42L1107.04 1360.51L1113.06 1371.85Z" fill="#E5C2A2"/>
<path d="M1117.42 1394.76L1156.12 1374.19L1151.42 1365.35L1112.72 1385.92L1117.42 1394.76Z" fill="#E3B391"/>
<path d="M1122.56 1389.7L1149.05 1375.62L1146.59 1370.99L1120.09 1385.07L1122.56 1389.7Z" fill="#E5C2A2"/>
<path d="M1153.43 1392.64C1152.64 1391.16 1151.34 1389.99 1149.69 1389.28C1148.04 1388.57 1146.11 1388.36 1144.16 1388.67C1142.2 1388.98 1140.3 1389.79 1138.7 1391.02C1137.1 1392.24 1135.87 1393.81 1135.16 1395.53C1134.45 1397.25 1134.3 1399.05 1134.73 1400.69C1135.15 1402.34 1136.14 1403.75 1137.55 1404.76C1138.96 1405.77 1140.75 1406.33 1142.67 1406.36C1144.6 1406.4 1146.58 1405.91 1148.37 1404.96C1150.77 1403.68 1152.65 1401.67 1153.6 1399.36C1154.54 1397.05 1154.48 1394.63 1153.43 1392.64Z" fill="#E5C2A2"/>
<path d="M1151.04 1393.91C1150.46 1392.82 1149.5 1391.95 1148.29 1391.43C1147.07 1390.91 1145.65 1390.76 1144.21 1390.98C1142.77 1391.21 1141.38 1391.82 1140.2 1392.72C1139.02 1393.62 1138.11 1394.77 1137.59 1396.04C1137.07 1397.31 1136.96 1398.63 1137.27 1399.84C1137.59 1401.05 1138.31 1402.1 1139.35 1402.84C1140.39 1403.58 1141.71 1403.99 1143.12 1404.02C1144.54 1404.04 1146 1403.68 1147.32 1402.98C1149.09 1402.04 1150.47 1400.56 1151.17 1398.86C1151.87 1397.16 1151.82 1395.38 1151.04 1393.91Z" fill="#EFD1B6"/>
</g>
<g clip-path="url(#clip5_260_38)">
<path d="M182.437 1053.17L184.818 1061.98L208.628 1055.54L207.778 1052.4L210.369 1052.93L213.193 1054.32L215.598 1053.67L215.055 1051.66L217.336 1051.04L217.879 1053.05L299.089 1031.1L296.708 1022.29L183.183 1052.98C182.93 1053.05 182.673 1053.11 182.426 1053.18L182.437 1053.17Z" fill="#E3B391"/>
<path d="M161.82 976.894C162.068 976.827 162.325 976.758 162.577 976.69L276.107 946.003L273.726 937.194L192.502 959.148L193.044 961.156L190.763 961.772L190.219 959.759L187.814 960.409L186.077 963.039L184.106 964.802L183.255 961.654L159.446 968.089L161.825 976.893L161.82 976.894Z" fill="#E3B391"/>
<path d="M127.219 1025.64L140.293 1074.01L177.97 1063.83L177.12 1060.68L179.401 1060.07L181.992 1060.6L181.408 1060.48L179.566 1053.67C172.391 1054.49 164.959 1052.17 158.665 1047.14C152.371 1042.11 147.648 1034.72 145.382 1026.35L143.334 1018.77C141.071 1010.4 141.425 1001.63 144.329 994.109C147.234 986.589 152.489 980.837 159.107 977.935L157.267 971.128L157.713 970.736L155.743 972.5L153.462 973.116L152.61 969.968L114.924 980.154L127.219 1025.64Z" fill="#B88A6A"/>
<path d="M157.262 971.105L159.523 979.472L161.821 976.894L159.44 968.085L157.262 971.105Z" fill="#E5C2A2"/>
<path d="M159.439 968.085L161.82 976.894L163.463 976.45L161.082 967.641L159.439 968.085Z" fill="#C29A7D"/>
<path d="M114.925 980.117L140.303 1074.01L146.422 1072.35L134.692 1028.96L142.628 1025.73L141.198 1020.43L132.715 1021.64L121.044 978.463L114.925 980.117Z" fill="#EFD1B6"/>
<path d="M181.994 1060.58L181.415 1060.46L179.155 1052.1L182.437 1053.17L184.818 1061.98L181.994 1060.58Z" fill="#E5C2A2"/>
<path d="M182.436 1053.17L184.817 1061.98L186.46 1061.53L184.079 1052.72L182.436 1053.17Z" fill="#C29A7D"/>
<path d="M157.261 971.105L155.733 972.465L153.414 973.092C137.857 979.322 129.914 999.864 135.497 1020.52L135.687 1021.22L141.202 1020.43L142.633 1025.73L137.473 1027.83L137.723 1028.75C143.303 1049.4 160.515 1063.15 177.092 1060.69L179.411 1060.06L181.415 1060.46L179.554 1053.58C164.603 1055.11 150.06 1043.66 145.374 1026.32L143.326 1018.74C138.64 1001.41 145.433 984.192 159.12 977.981L157.261 971.105Z" fill="#E3B391"/>
<path d="M144.756 1139.75L85.6521 921.084L87.7093 920.528L146.813 1139.19" fill="#C6A289"/>
<path d="M143.308 1142.58L82.9777 919.376L85.652 921.084L144.756 1139.75" fill="#D8B095"/>
<path d="M122.715 1140.63L66.1705 931.433L84.8707 926.379L141.415 1135.58" fill="#E5C2A2"/>
<path d="M49.1225 942.601L102.36 1139.56L121.065 1134.51L67.8275 937.546L49.1225 942.601Z" fill="#D8B095"/>
<path d="M23.9313 966.045L68.792 1132.02L98.1733 1124.07L53.3126 958.104L23.9313 966.045Z" fill="#C9A58B"/>
<path d="M28.8702 1007.16L52.3477 1094.01L58.1001 1092.46L34.6226 1005.6L28.8702 1007.16Z" fill="#C09E86"/>
<path d="M32.2364 1019.61C28.2133 1029.83 27.6967 1041.8 30.7853 1053.23C33.8739 1064.66 40.351 1074.74 48.9784 1081.55L32.2364 1019.61Z" fill="#AD8E79"/>
<path d="M145.956 1136.02L88.5668 923.7L95.3336 921.871L152.723 1134.19" fill="#A0795D"/>
<path d="M141.792 1120.62L144.331 1130.01L151.103 1128.18L148.563 1118.79L141.792 1120.62Z" fill="#BA8C6B"/>
<path d="M137.101 1103.26L139.641 1112.66L146.412 1110.83L143.873 1101.43L137.101 1103.26Z" fill="#BA8C6B"/>
<path d="M132.411 1085.91L134.948 1095.3L141.72 1093.47L139.182 1084.08L132.411 1085.91Z" fill="#BA8C6B"/>
<path d="M127.721 1068.56L130.259 1077.95L137.03 1076.12L134.493 1066.73L127.721 1068.56Z" fill="#BA8C6B"/>
<path d="M123.03 1051.2L125.567 1060.59L132.339 1058.76L129.801 1049.37L123.03 1051.2Z" fill="#BA8C6B"/>
<path d="M118.338 1033.84L120.877 1043.24L127.648 1041.41L125.109 1032.01L118.338 1033.84Z" fill="#BA8C6B"/>
<path d="M113.647 1016.49L116.187 1025.88L122.958 1024.05L120.419 1014.66L113.647 1016.49Z" fill="#BA8C6B"/>
<path d="M108.956 999.134L111.495 1008.53L118.267 1006.7L115.727 997.304L108.956 999.134Z" fill="#BA8C6B"/>
<path d="M104.265 981.78L106.805 991.174L113.576 989.344L111.037 979.949L104.265 981.78Z" fill="#BA8C6B"/>
<path d="M99.5741 964.425L102.113 973.819L108.885 971.989L106.346 962.595L99.5741 964.425Z" fill="#BA8C6B"/>
<path d="M94.8817 947.065L97.4209 956.459L104.192 954.629L101.653 945.235L94.8817 947.065Z" fill="#BA8C6B"/>
<path d="M90.1913 929.71L92.7305 939.104L99.502 937.274L96.9628 927.88L90.1913 929.71Z" fill="#BA8C6B"/>
<path d="M153.792 1138.15L94.2635 917.913L98.2585 918.458L156.969 1135.67" fill="#E4B58E"/>
<path d="M72.3554 1084.63C73.8924 1084.21 75.5435 1084.35 77.0999 1085.03C78.6564 1085.71 80.0482 1086.91 81.0994 1088.46C82.1506 1090.01 82.8139 1091.85 83.0055 1093.75C83.197 1095.64 82.9081 1097.51 82.1754 1099.11C81.4427 1100.72 80.2991 1101.98 78.8891 1102.75C77.4792 1103.52 75.8664 1103.76 74.2546 1103.44C72.6428 1103.11 71.1045 1102.24 69.8343 1100.93C68.5641 1099.62 67.619 1097.94 67.1185 1096.08C66.4478 1093.6 66.6227 1091 67.6047 1088.85C68.5867 1086.7 70.2955 1085.18 72.3554 1084.63Z" fill="#E5C2A2"/>
<path d="M45.8222 986.462C47.3592 986.045 49.0103 986.187 50.5667 986.869C52.1232 987.551 53.515 988.743 54.5662 990.294C55.6174 991.845 56.2807 993.686 56.4723 995.583C56.6638 997.48 56.3749 999.348 55.6422 1000.95C54.9095 1002.55 53.7659 1003.82 52.3559 1004.59C50.946 1005.36 49.3332 1005.6 47.7214 1005.27C46.1096 1004.95 44.5713 1004.08 43.3011 1002.77C42.0309 1001.46 41.0858 999.773 40.5853 997.921C39.9146 995.44 40.0895 992.839 41.0715 990.69C42.0535 988.541 43.7623 987.02 45.8222 986.462Z" fill="#E5C2A2"/>
<path d="M43.2858 1010.82L47.8201 1027.6L46.4058 1027.98L57.0013 1067.18L58.4156 1066.8L62.9514 1083.58L79.9564 1078.98L75.4205 1062.2L76.8301 1061.82L66.2346 1022.62L64.8251 1023L60.2908 1006.23L43.2858 1010.82Z" fill="#E5C2A2"/>
<path d="M236.628 879.341L253.727 942.6L273.713 937.198L256.614 873.939L236.628 879.341Z" fill="#D39E79"/>
<path d="M230.676 880.95L247.774 944.209L253.727 942.6L236.628 879.341L230.676 880.95Z" fill="#BA8C6B"/>
<path d="M175.403 895.889L192.502 959.148L247.774 944.209L230.676 880.95L175.403 895.889Z" fill="#D39E79"/>
<path d="M172.428 893.937L190.765 961.778L193.046 961.162L174.709 893.32L172.428 893.937Z" fill="#D39E79"/>
<path d="M170.714 897.163L187.811 960.416L186.079 963.045L167.742 895.203L170.714 897.163Z" fill="#A0795D"/>
<path d="M167.742 895.203L186.079 963.045L184.099 964.792L165.149 894.685L167.742 895.203Z" fill="#BA8C6B"/>
<path d="M142.342 904.832L159.439 968.085L157.702 970.715L139.365 902.873L142.342 904.832Z" fill="#A0795D"/>
<path d="M134.502 902.969L153.451 973.076L155.732 972.46L136.783 902.353L134.502 902.969Z" fill="#D39E79"/>
<path d="M139.365 902.873L157.702 970.715L155.731 972.46L136.782 902.353L139.365 902.873Z" fill="#BA8C6B"/>
<path d="M170.713 897.157L187.812 960.416L190.216 959.766L173.118 896.507L170.713 897.157Z" fill="#8C6A51"/>
<path d="M142.341 904.826L159.439 968.085L183.254 961.648L166.156 898.389L142.341 904.826Z" fill="#D39E79"/>
<path d="M97.8263 916.858L114.925 980.117L152.601 969.933L135.503 906.674L97.8263 916.858Z" fill="#D39E79"/>
<path d="M100.213 916.219L117.31 979.472L115.332 981.625L97.4182 915.35L100.213 916.219Z" fill="#BA8C6B"/>
<path d="M100.212 916.213L117.311 979.472L118.506 979.149L101.407 915.89L100.212 916.213Z" fill="#A0795D"/>
<path d="M239.46 889.819L250.896 932.128L270.881 926.725L259.446 884.417L239.46 889.819Z" fill="#E5C2A2"/>
<path d="M233.508 891.428L244.943 933.737L250.896 932.128L239.46 889.819L233.508 891.428Z" fill="#C29A7D"/>
<path d="M178.235 906.368L189.671 948.676L244.943 933.736L233.507 891.428L178.235 906.368Z" fill="#E3B391"/>
<path d="M175.259 904.409L187.935 951.306L190.216 950.689L177.54 903.793L175.259 904.409Z" fill="#E5C2A2"/>
<path d="M173.545 907.636L184.981 949.944L183.249 952.572L170.573 905.676L173.545 907.636Z" fill="#C29A7D"/>
<path d="M170.573 905.676L183.249 952.572L181.269 954.32L167.98 905.158L170.573 905.676Z" fill="#E5C2A2"/>
<path d="M145.173 915.304L156.609 957.613L154.872 960.242L142.196 913.346L145.173 915.304Z" fill="#B18D73"/>
<path d="M137.332 913.442L150.62 962.604L152.901 961.987L139.613 912.825L137.332 913.442Z" fill="#E5C2A2"/>
<path d="M142.196 913.346L154.872 960.242L152.901 961.987L139.613 912.825L142.196 913.346Z" fill="#C29A7D"/>
<path d="M125.701 917.804L138.377 964.701L140.658 964.084L127.982 917.188L125.701 917.804Z" fill="#C29A7D"/>
<path d="M125.701 917.804L138.377 964.701L136.401 966.447L123.113 917.285L125.701 917.804Z" fill="#E5C2A2"/>
<path d="M173.545 907.636L184.98 949.944L187.385 949.294L175.95 906.986L173.545 907.636Z" fill="#B18D73"/>
<path d="M145.174 915.304L156.609 957.613L180.424 951.176L168.988 908.867L145.174 915.304Z" fill="#E3B391"/>
<path d="M151.981 920.621L159.811 949.59L172.206 946.239L164.376 917.271L151.981 920.621Z" fill="#E5C2A2"/>
<path d="M128.678 919.763L140.113 962.071L149.771 959.461L138.335 917.153L128.678 919.763Z" fill="#E3B391"/>
<path d="M132.457 925.899L140.287 954.867L145.349 953.499L137.519 924.53L132.457 925.899Z" fill="#E5C2A2"/>
<path d="M117.036 934.313C118.659 933.873 120.403 934.023 122.048 934.744C123.692 935.464 125.162 936.724 126.272 938.362C127.383 940 128.083 941.945 128.286 943.948C128.488 945.952 128.183 947.926 127.409 949.619C126.635 951.313 125.427 952.651 123.937 953.463C122.448 954.276 120.744 954.526 119.042 954.184C117.339 953.841 115.714 952.92 114.372 951.538C113.03 950.156 112.032 948.374 111.503 946.418C110.795 943.797 110.979 941.049 112.017 938.78C113.054 936.51 114.86 934.903 117.036 934.313Z" fill="#E5C2A2"/>
<path d="M117.746 936.94C118.943 936.615 120.229 936.725 121.441 937.256C122.653 937.788 123.737 938.716 124.556 939.924C125.375 941.131 125.892 942.565 126.041 944.042C126.19 945.519 125.965 946.975 125.395 948.223C124.824 949.472 123.934 950.458 122.836 951.057C121.738 951.657 120.482 951.842 119.226 951.589C117.971 951.336 116.773 950.658 115.784 949.639C114.794 948.62 114.058 947.306 113.668 945.864C113.146 943.932 113.282 941.906 114.047 940.233C114.811 938.56 116.142 937.375 117.746 936.94Z" fill="#EFD1B6"/>
<path d="M316.184 1094.35L299.087 1031.1L279.106 1036.5L296.203 1099.75" fill="#D39E79"/>
<path d="M296.202 1099.75L279.106 1036.5L273.153 1038.11L290.25 1101.36" fill="#BA8C6B"/>
<path d="M290.251 1101.36L273.154 1038.11L217.882 1053.04L234.979 1116.3" fill="#D39E79"/>
<path d="M235.675 1118.87L217.337 1051.03L215.056 1051.65L233.394 1119.49" fill="#D39E79"/>
<path d="M230.288 1117.57L213.191 1054.31L210.371 1052.92L228.708 1120.76" fill="#A0795D"/>
<path d="M228.707 1120.76L210.37 1052.91L207.778 1052.4L226.729 1122.51" fill="#BA8C6B"/>
<path d="M201.916 1125.23L184.819 1061.98L181.994 1060.59L200.331 1128.43" fill="#A0795D"/>
<path d="M198.362 1130.18L179.411 1060.06L177.13 1060.68L196.081 1130.79" fill="#D39E79"/>
<path d="M200.331 1128.43L181.994 1060.58L179.41 1060.06L198.361 1130.18" fill="#BA8C6B"/>
<path d="M232.698 1116.91L215.601 1053.66L213.191 1054.31L230.288 1117.57" fill="#8C6A51"/>
<path d="M201.916 1125.23L184.819 1061.98L208.629 1055.55L225.726 1118.8" fill="#D39E79"/>
<path d="M157.401 1137.27L140.304 1074.01L177.981 1063.83L195.078 1127.08" fill="#D39E79"/>
<path d="M159.787 1136.62L142.69 1073.37L139.895 1072.5L157.811 1138.78" fill="#BA8C6B"/>
<path d="M160.982 1136.3L143.885 1073.05L142.69 1073.37L159.787 1136.62" fill="#A0795D"/>
<path d="M281.936 1046.97L293.372 1089.28L313.358 1083.88L301.922 1041.57L281.936 1046.97Z" fill="#E5C2A2"/>
<path d="M275.984 1048.58L287.42 1090.89L293.372 1089.28L281.937 1046.97L275.984 1048.58Z" fill="#C29A7D"/>
<path d="M220.712 1063.52L232.147 1105.83L287.42 1090.89L275.984 1048.58L220.712 1063.52Z" fill="#E3B391"/>
<path d="M217.888 1062.13L230.562 1109.02L232.843 1108.4L220.169 1061.51L217.888 1062.13Z" fill="#E5C2A2"/>
<path d="M227.457 1107.09L216.021 1064.79L213.203 1063.39L225.877 1110.28L227.457 1107.09Z" fill="#C29A7D"/>
<path d="M225.877 1110.28L213.203 1063.39L210.609 1062.87L223.898 1112.04L225.877 1110.28Z" fill="#E5C2A2"/>
<path d="M199.085 1114.76L187.649 1072.45L184.826 1071.06L197.5 1117.95L199.085 1114.76Z" fill="#B18D73"/>
<path d="M179.962 1071.16L193.25 1120.32L195.531 1119.7L182.243 1070.54L179.962 1071.16Z" fill="#E5C2A2"/>
<path d="M197.501 1117.95L184.826 1071.06L182.242 1070.54L195.531 1119.7L197.501 1117.95Z" fill="#C29A7D"/>
<path d="M168.331 1075.52L181.005 1122.41L183.286 1121.8L170.612 1074.91L168.331 1075.52Z" fill="#C29A7D"/>
<path d="M181.005 1122.41L168.331 1075.52L165.742 1075L179.031 1124.16L181.005 1122.41Z" fill="#E5C2A2"/>
<path d="M216.021 1064.79L227.457 1107.09L229.862 1106.44L218.426 1064.14L216.021 1064.79Z" fill="#B18D73"/>
<path d="M187.649 1072.45L199.085 1114.76L222.9 1108.33L211.464 1066.02L187.649 1072.45Z" fill="#E3B391"/>
<path d="M194.457 1077.77L202.287 1106.74L214.683 1103.39L206.853 1074.42L194.457 1077.77Z" fill="#E5C2A2"/>
<path d="M171.154 1076.91L182.59 1119.22L192.247 1116.61L180.811 1074.3L171.154 1076.91Z" fill="#E3B391"/>
<path d="M174.934 1083.05L182.764 1112.02L187.826 1110.65L179.996 1081.68L174.934 1083.05Z" fill="#E5C2A2"/>
<path d="M165.195 1112.49C166.819 1112.05 168.251 1111.04 169.308 1109.59C170.365 1108.14 171.001 1106.31 171.134 1104.34C171.268 1102.36 170.894 1100.33 170.059 1098.5C169.225 1096.66 167.967 1095.11 166.445 1094.04C164.923 1092.97 163.206 1092.42 161.51 1092.47C159.814 1092.52 158.216 1093.16 156.918 1094.31C155.619 1095.47 154.679 1097.08 154.217 1098.95C153.754 1100.82 153.789 1102.86 154.318 1104.82C155.026 1107.44 156.57 1109.72 158.61 1111.16C160.649 1112.6 163.018 1113.07 165.195 1112.49Z" fill="#E5C2A2"/>
<path d="M164.491 1109.88C165.687 1109.56 166.741 1108.82 167.519 1107.75C168.297 1106.68 168.765 1105.33 168.863 1103.88C168.961 1102.42 168.685 1100.93 168.07 1099.58C167.454 1098.23 166.528 1097.08 165.407 1096.29C164.285 1095.5 163.02 1095.1 161.771 1095.14C160.522 1095.17 159.345 1095.65 158.389 1096.5C157.433 1097.35 156.741 1098.54 156.4 1099.91C156.059 1101.29 156.085 1102.79 156.475 1104.24C156.997 1106.17 158.135 1107.85 159.638 1108.91C161.141 1109.97 162.887 1110.32 164.491 1109.88Z" fill="#EFD1B6"/>
</g>
<g clip-path="url(#clip6_260_38)">
<path d="M548.726 1435.7L557.037 1439.47L567.219 1417L564.254 1415.66L566.312 1414L569.181 1412.7L570.209 1410.43L568.315 1409.58L569.291 1407.42L571.185 1408.28L605.913 1331.66L597.601 1327.89L549.054 1435C548.946 1435.24 548.836 1435.48 548.73 1435.72L548.726 1435.7Z" fill="#E3B391"/>
<path d="M476.763 1403.08C476.869 1402.85 476.979 1402.61 477.086 1402.37L525.636 1295.25L517.324 1291.49L482.59 1368.12L484.484 1368.98L483.508 1371.13L481.609 1370.27L480.581 1372.54L481.504 1375.55L481.611 1378.2L478.641 1376.85L468.459 1399.31L476.765 1403.08L476.763 1403.08Z" fill="#E3B391"/>
<path d="M492.36 1460.79L537.997 1481.48L554.109 1445.93L551.144 1444.58L552.119 1442.43L554.177 1440.77L553.713 1441.15L547.285 1438.23C543.355 1444.29 536.836 1448.55 528.951 1450.2C521.066 1451.86 512.359 1450.8 504.462 1447.23L497.314 1443.99C489.414 1440.41 482.872 1434.56 478.918 1427.53C474.963 1420.5 473.869 1412.79 475.84 1405.84L469.417 1402.93L469.399 1402.33L469.506 1404.98L468.53 1407.13L465.56 1405.78L449.444 1441.34L492.36 1460.79Z" fill="#B88A6A"/>
<path d="M469.395 1402.92L477.29 1406.5L476.763 1403.08L468.451 1399.32L469.395 1402.92Z" fill="#E5C2A2"/>
<path d="M468.451 1399.32L476.763 1403.08L477.465 1401.53L469.154 1397.77L468.451 1399.32Z" fill="#C29A7D"/>
<path d="M449.415 1441.32L538.001 1481.47L540.618 1475.69L499.672 1457.13L502.23 1448.96L497.236 1446.69L492.772 1454.01L452.032 1435.54L449.415 1441.32Z" fill="#EFD1B6"/>
<path d="M554.168 1440.76L553.706 1441.13L545.817 1437.56L548.726 1435.7L557.037 1439.47L554.168 1440.76Z" fill="#E5C2A2"/>
<path d="M548.726 1435.7L557.037 1439.47L557.74 1437.92L549.428 1434.15L548.726 1435.7Z" fill="#C29A7D"/>
<path d="M469.395 1402.92L469.473 1404.96L468.481 1407.15C463.391 1423.12 474.187 1442.31 493.672 1451.14L494.338 1451.45L497.237 1446.69L502.232 1448.95L500.571 1454.27L501.442 1454.67C520.923 1463.5 542.48 1458.96 551.131 1444.61L552.123 1442.42L553.706 1441.13L547.213 1438.19C538.881 1450.7 520.792 1454.63 504.434 1447.22L497.286 1443.98C480.928 1436.56 471.967 1420.37 475.883 1405.86L469.395 1402.92Z" fill="#E3B391"/>
<path d="M591.557 1519.85L385.246 1426.35L386.126 1424.4L592.436 1517.91" fill="#C6A289"/>
<path d="M592.817 1522.77L382.227 1427.32L385.246 1426.35L591.556 1519.85" fill="#D8B095"/>
<path d="M578.214 1537.42L380.837 1447.96L388.834 1430.32L586.211 1519.78" fill="#E5C2A2"/>
<path d="M378.609 1468.22L564.443 1552.45L572.442 1534.8L386.608 1450.57L378.609 1468.22Z" fill="#D8B095"/>
<path d="M380.671 1502.57L537.264 1573.54L549.828 1545.82L393.235 1474.85L380.671 1502.57Z" fill="#C9A58B"/>
<path d="M415.531 1524.91L497.482 1562.06L499.942 1556.63L417.991 1519.48L415.531 1524.91Z" fill="#C09E86"/>
<path d="M427.279 1530.24C432.61 1539.85 441.517 1547.86 452.298 1552.75C463.08 1557.63 474.978 1559.05 485.719 1556.72L427.279 1530.24Z" fill="#AD8E79"/>
<path d="M589.444 1516.56L389.119 1425.76L392.012 1419.38L592.338 1510.17" fill="#A0795D"/>
<path d="M574.91 1509.97L583.773 1513.99L586.669 1507.6L577.806 1503.58L574.91 1509.97Z" fill="#BA8C6B"/>
<path d="M558.536 1502.55L567.399 1506.57L570.295 1500.18L561.432 1496.16L558.536 1502.55Z" fill="#BA8C6B"/>
<path d="M542.162 1495.13L551.02 1499.14L553.915 1492.75L545.057 1488.74L542.162 1495.13Z" fill="#BA8C6B"/>
<path d="M525.792 1487.71L534.65 1491.72L537.546 1485.33L528.688 1481.32L525.792 1487.71Z" fill="#BA8C6B"/>
<path d="M509.418 1480.29L518.276 1484.3L521.172 1477.91L512.314 1473.9L509.418 1480.29Z" fill="#BA8C6B"/>
<path d="M493.039 1472.86L501.902 1476.88L504.798 1470.49L495.935 1466.47L493.039 1472.86Z" fill="#BA8C6B"/>
<path d="M476.665 1465.44L485.528 1469.46L488.424 1463.07L479.561 1459.05L476.665 1465.44Z" fill="#BA8C6B"/>
<path d="M460.291 1458.02L469.154 1462.04L472.05 1455.65L463.187 1451.63L460.291 1458.02Z" fill="#BA8C6B"/>
<path d="M443.917 1450.6L452.78 1454.62L455.676 1448.23L446.813 1444.21L443.917 1450.6Z" fill="#BA8C6B"/>
<path d="M427.543 1443.18L436.406 1447.19L439.302 1440.8L430.439 1436.79L427.543 1443.18Z" fill="#BA8C6B"/>
<path d="M411.164 1435.75L420.027 1439.77L422.923 1433.38L414.06 1429.36L411.164 1435.75Z" fill="#BA8C6B"/>
<path d="M394.789 1428.33L403.652 1432.35L406.548 1425.96L397.685 1421.94L394.789 1428.33Z" fill="#BA8C6B"/>
<path d="M596.071 1511.86L388.278 1417.68L391.24 1414.95L596.176 1507.83" fill="#E4B58E"/>
<path d="M502.966 1540.65C503.622 1539.2 504.782 1538.01 506.299 1537.24C507.815 1536.48 509.62 1536.16 511.486 1536.34C513.351 1536.51 515.193 1537.17 516.778 1538.23C518.364 1539.29 519.621 1540.7 520.392 1542.29C521.163 1543.87 521.413 1545.56 521.109 1547.14C520.805 1548.71 519.963 1550.11 518.687 1551.15C517.411 1552.18 515.76 1552.82 513.943 1552.96C512.125 1553.11 510.222 1552.77 508.476 1551.98C506.134 1550.92 504.239 1549.13 503.206 1547C502.173 1544.88 502.086 1542.59 502.966 1540.65Z" fill="#E5C2A2"/>
<path d="M410.349 1498.67C411.005 1497.22 412.165 1496.03 413.681 1495.27C415.198 1494.5 417.003 1494.18 418.868 1494.36C420.734 1494.54 422.576 1495.19 424.161 1496.25C425.747 1497.31 427.004 1498.72 427.775 1500.31C428.546 1501.89 428.795 1503.58 428.492 1505.16C428.188 1506.74 427.345 1508.13 426.07 1509.17C424.794 1510.21 423.143 1510.84 421.325 1510.99C419.508 1511.13 417.605 1510.79 415.858 1510C413.517 1508.94 411.622 1507.15 410.589 1505.02C409.555 1502.9 409.469 1500.61 410.349 1498.67Z" fill="#E5C2A2"/>
<path d="M427.531 1516.12L443.359 1523.3L442.754 1524.63L479.739 1541.39L480.344 1540.06L496.177 1547.24L503.449 1531.19L487.616 1524.02L488.219 1522.69L451.234 1505.92L450.631 1507.25L434.803 1500.08L427.531 1516.12Z" fill="#E5C2A2"/>
<path d="M449.087 1283.3L508.771 1310.36L517.318 1291.5L457.633 1264.45L449.087 1283.3Z" fill="#D39E79"/>
<path d="M446.542 1288.92L506.227 1315.97L508.772 1310.36L449.087 1283.31L446.542 1288.92Z" fill="#BA8C6B"/>
<path d="M422.905 1341.07L482.59 1368.12L506.226 1315.97L446.541 1288.92L422.905 1341.07Z" fill="#D39E79"/>
<path d="M419.505 1342.12L483.514 1371.14L484.489 1368.98L420.481 1339.97L419.505 1342.12Z" fill="#D39E79"/>
<path d="M420.905 1345.5L480.584 1372.55L481.51 1375.56L417.502 1346.54L420.905 1345.5Z" fill="#A0795D"/>
<path d="M417.502 1346.54L481.51 1375.56L481.599 1378.2L415.453 1348.22L417.502 1346.54Z" fill="#BA8C6B"/>
<path d="M408.772 1372.27L468.451 1399.32L469.375 1402.33L405.367 1373.32L408.772 1372.27Z" fill="#A0795D"/>
<path d="M402.347 1377.13L468.492 1407.11L469.468 1404.96L403.322 1374.98L402.347 1377.13Z" fill="#D39E79"/>
<path d="M405.367 1373.32L469.375 1402.33L469.468 1404.96L403.322 1374.98L405.367 1373.32Z" fill="#BA8C6B"/>
<path d="M420.899 1345.5L480.584 1372.55L481.612 1370.28L421.928 1343.23L420.899 1345.5Z" fill="#8C6A51"/>
<path d="M408.766 1372.26L468.451 1399.32L478.635 1376.85L418.95 1349.8L408.766 1372.26Z" fill="#D39E79"/>
<path d="M389.73 1414.26L449.415 1441.32L465.527 1405.77L405.842 1378.72L389.73 1414.26Z" fill="#D39E79"/>
<path d="M390.757 1412.02L450.436 1439.06L450.839 1441.96L388.308 1413.62L390.757 1412.02Z" fill="#BA8C6B"/>
<path d="M390.751 1412.01L450.436 1439.06L450.947 1437.94L391.262 1410.89L390.751 1412.01Z" fill="#A0795D"/>
<path d="M458.974 1287.79L498.892 1305.88L507.438 1287.02L467.52 1268.93L458.974 1287.79Z" fill="#E5C2A2"/>
<path d="M456.428 1293.4L496.346 1311.49L498.891 1305.88L458.973 1287.79L456.428 1293.4Z" fill="#C29A7D"/>
<path d="M432.791 1345.55L472.709 1363.64L496.345 1311.49L456.427 1293.4L432.791 1345.55Z" fill="#E3B391"/>
<path d="M429.387 1346.6L473.634 1366.66L474.609 1364.5L430.362 1344.45L429.387 1346.6Z" fill="#E5C2A2"/>
<path d="M430.786 1349.98L470.704 1368.07L471.63 1371.08L427.383 1351.02L430.786 1349.98Z" fill="#C29A7D"/>
<path d="M427.382 1351.02L471.629 1371.08L471.718 1373.72L425.334 1352.69L427.382 1351.02Z" fill="#E5C2A2"/>
<path d="M418.653 1376.75L458.571 1394.84L459.495 1397.85L415.248 1377.8L418.653 1376.75Z" fill="#B18D73"/>
<path d="M412.228 1381.61L458.612 1402.63L459.588 1400.48L413.204 1379.46L412.228 1381.61Z" fill="#E5C2A2"/>
<path d="M415.248 1377.8L459.494 1397.85L459.587 1400.48L413.203 1379.46L415.248 1377.8Z" fill="#C29A7D"/>
<path d="M408.194 1393.36L452.44 1413.41L453.416 1411.26L409.169 1391.21L408.194 1393.36Z" fill="#C29A7D"/>
<path d="M408.194 1393.36L452.441 1413.41L452.531 1416.05L406.147 1395.03L408.194 1393.36Z" fill="#E5C2A2"/>
<path d="M430.786 1349.98L470.704 1368.07L471.732 1365.8L431.815 1347.71L430.786 1349.98Z" fill="#B18D73"/>
<path d="M418.653 1376.75L458.571 1394.84L468.755 1372.37L428.837 1354.28L418.653 1376.75Z" fill="#E3B391"/>
<path d="M427.086 1374.88L454.418 1387.26L459.719 1375.57L432.387 1363.18L427.086 1374.88Z" fill="#E5C2A2"/>
<path d="M411.599 1392.31L451.517 1410.4L455.646 1401.29L415.728 1383.2L411.599 1392.31Z" fill="#E3B391"/>
<path d="M418.737 1393.3L446.068 1405.68L448.233 1400.91L420.901 1388.52L418.737 1393.3Z" fill="#E5C2A2"/>
<path d="M415.418 1410.55C416.112 1409.02 417.337 1407.76 418.939 1406.95C420.541 1406.14 422.448 1405.81 424.418 1406C426.389 1406.18 428.335 1406.88 430.009 1408C431.684 1409.12 433.013 1410.61 433.827 1412.28C434.641 1413.96 434.905 1415.74 434.584 1417.41C434.263 1419.07 433.373 1420.55 432.025 1421.64C430.678 1422.74 428.934 1423.4 427.014 1423.56C425.094 1423.72 423.084 1423.35 421.239 1422.52C418.765 1421.4 416.763 1419.51 415.672 1417.26C414.58 1415.02 414.489 1412.6 415.418 1410.55Z" fill="#E5C2A2"/>
<path d="M417.897 1411.67C418.408 1410.54 419.311 1409.62 420.492 1409.02C421.673 1408.42 423.079 1408.18 424.532 1408.31C425.985 1408.45 427.419 1408.96 428.654 1409.79C429.889 1410.61 430.869 1411.71 431.469 1412.95C432.07 1414.18 432.264 1415.5 432.028 1416.73C431.791 1417.95 431.135 1419.04 430.142 1419.85C429.148 1420.66 427.862 1421.15 426.447 1421.26C425.031 1421.38 423.549 1421.11 422.189 1420.49C420.366 1419.67 418.89 1418.27 418.085 1416.62C417.28 1414.97 417.213 1413.19 417.897 1411.67Z" fill="#EFD1B6"/>
<path d="M665.587 1358.71L605.907 1331.66L597.363 1350.51L657.042 1377.56" fill="#D39E79"/>
<path d="M657.043 1377.56L597.363 1350.51L594.818 1356.13L654.497 1383.18" fill="#BA8C6B"/>
<path d="M654.497 1383.18L594.817 1356.13L571.181 1408.28L630.86 1435.32" fill="#D39E79"/>
<path d="M633.29 1436.43L569.282 1407.41L568.306 1409.57L632.314 1438.58" fill="#D39E79"/>
<path d="M628.854 1439.75L569.175 1412.7L566.302 1413.99L630.311 1443" fill="#A0795D"/>
<path d="M630.311 1443L566.303 1413.99L564.254 1415.66L630.405 1445.64" fill="#BA8C6B"/>
<path d="M616.722 1466.52L557.042 1439.47L554.168 1440.76L618.176 1469.77" fill="#A0795D"/>
<path d="M618.274 1472.41L552.123 1442.42L551.148 1444.57L617.299 1474.56" fill="#D39E79"/>
<path d="M618.176 1469.77L554.168 1440.76L552.123 1442.42L618.274 1472.41" fill="#BA8C6B"/>
<path d="M629.885 1437.48L570.206 1410.43L569.175 1412.7L628.854 1439.75" fill="#8C6A51"/>
<path d="M616.722 1466.52L557.042 1439.47L567.224 1417.01L626.904 1444.05" fill="#D39E79"/>
<path d="M597.686 1508.52L538.006 1481.47L554.118 1445.92L613.797 1472.97" fill="#D39E79"/>
<path d="M598.706 1506.27L539.027 1479.22L536.578 1480.82L599.114 1509.17" fill="#BA8C6B"/>
<path d="M599.217 1505.14L539.538 1478.09L539.027 1479.22L598.706 1506.27" fill="#A0795D"/>
<path d="M607.243 1354.99L647.161 1373.08L655.708 1354.22L615.79 1336.13L607.243 1354.99Z" fill="#E5C2A2"/>
<path d="M604.698 1360.6L644.616 1378.7L647.162 1373.08L607.244 1354.99L604.698 1360.6Z" fill="#C29A7D"/>
<path d="M581.062 1412.75L620.979 1430.85L644.616 1378.7L604.698 1360.6L581.062 1412.75Z" fill="#E3B391"/>
<path d="M578.192 1414.05L622.434 1434.1L623.409 1431.95L579.168 1411.9L578.192 1414.05Z" fill="#E5C2A2"/>
<path d="M618.973 1435.27L579.056 1417.18L576.188 1418.47L620.43 1438.52L618.973 1435.27Z" fill="#C29A7D"/>
<path d="M620.43 1438.52L576.189 1418.47L574.135 1420.14L620.524 1441.16L620.43 1438.52Z" fill="#E5C2A2"/>
<path d="M606.841 1462.04L566.923 1443.95L564.054 1445.24L608.295 1465.29L606.841 1462.04Z" fill="#B18D73"/>
<path d="M561.034 1449.06L607.418 1470.08L608.393 1467.93L562.009 1446.9L561.034 1449.06Z" fill="#E5C2A2"/>
<path d="M608.296 1465.29L564.054 1445.24L562.004 1446.9L608.394 1467.93L608.296 1465.29Z" fill="#C29A7D"/>
<path d="M557 1460.81L601.241 1480.86L602.217 1478.71L557.975 1458.65L557 1460.81Z" fill="#C29A7D"/>
<path d="M601.241 1480.86L557 1460.81L554.947 1462.47L601.337 1483.49L601.241 1480.86Z" fill="#E5C2A2"/>
<path d="M579.056 1417.18L618.974 1435.27L620.002 1433L580.084 1414.91L579.056 1417.18Z" fill="#B18D73"/>
<path d="M566.923 1443.95L606.841 1462.04L617.025 1439.57L577.107 1421.48L566.923 1443.95Z" fill="#E3B391"/>
<path d="M575.357 1442.08L602.688 1454.47L607.989 1442.77L580.658 1430.38L575.357 1442.08Z" fill="#E5C2A2"/>
<path d="M559.869 1459.51L599.787 1477.6L603.917 1468.49L563.999 1450.4L559.869 1459.51Z" fill="#E3B391"/>
<path d="M567.007 1460.5L594.339 1472.89L596.504 1468.11L569.172 1455.72L567.007 1460.5Z" fill="#E5C2A2"/>
<path d="M583.526 1486.74C584.222 1485.21 584.354 1483.46 583.908 1481.73C583.461 1479.99 582.455 1478.33 581.016 1476.97C579.578 1475.61 577.772 1474.61 575.826 1474.09C573.881 1473.57 571.884 1473.55 570.088 1474.04C568.292 1474.53 566.777 1475.51 565.736 1476.85C564.695 1478.19 564.173 1479.83 564.237 1481.57C564.302 1483.3 564.949 1485.05 566.097 1486.6C567.246 1488.15 568.843 1489.42 570.689 1490.25C573.162 1491.38 575.904 1491.64 578.311 1490.98C580.718 1490.32 582.594 1488.79 583.526 1486.74Z" fill="#E5C2A2"/>
<path d="M581.07 1485.63C581.581 1484.5 581.678 1483.21 581.348 1481.93C581.018 1480.65 580.277 1479.43 579.217 1478.43C578.157 1477.43 576.826 1476.69 575.393 1476.31C573.96 1475.93 572.49 1475.91 571.167 1476.28C569.844 1476.64 568.729 1477.36 567.962 1478.35C567.195 1479.33 566.811 1480.54 566.859 1481.82C566.906 1483.1 567.383 1484.39 568.229 1485.53C569.075 1486.67 570.252 1487.6 571.611 1488.22C573.434 1489.05 575.454 1489.24 577.228 1488.75C579.002 1488.26 580.384 1487.14 581.07 1485.63Z" fill="#EFD1B6"/>
</g>
<defs>
<clipPath id="clip0_260_38">
<rect width="236" height="264.781" fill="white" transform="translate(85.8301 502.669) rotate(-53.1302)"/>
</clipPath>
<clipPath id="clip1_260_38">
<rect width="322.156" height="361.443" fill="white" transform="translate(604.554 10.157)"/>
</clipPath>
<clipPath id="clip2_260_38">
<rect width="236" height="264.781" fill="white" transform="translate(1282.44 296.869) rotate(49.5897)"/>
</clipPath>
<clipPath id="clip3_260_38">
<rect width="236" height="264.781" fill="white" transform="translate(1537.65 901.53) rotate(102.578)"/>
</clipPath>
<clipPath id="clip4_260_38">
<rect width="236" height="264.78" fill="white" transform="translate(1229.78 1481.49) rotate(152.01)"/>
</clipPath>
<clipPath id="clip5_260_38">
<rect width="236" height="264.781" fill="white" transform="translate(61.5791 1167.15) rotate(-105.125)"/>
</clipPath>
<clipPath id="clip6_260_38">
<rect width="236" height="264.781" fill="white" transform="translate(559.781 1601.46) rotate(-155.618)"/>
</clipPath>
</defs>
</svg>
