<svg width="1524" height="1524" viewBox="0 0 1524 1524" fill="none" xmlns="http://www.w3.org/2000/svg">
<mask id="path-1-inside-1_260_10" fill="white">
<path d="M1524 762C1524 661.933 1504.29 562.845 1466 470.395C1427.7 377.945 1371.57 293.943 1300.82 223.185C1230.06 152.426 1146.05 96.2979 1053.6 58.0038C961.155 19.7097 862.067 -4.37408e-06 762 0C661.933 4.37408e-06 562.845 19.7097 470.395 58.0038C377.945 96.2979 293.943 152.426 223.185 223.185C152.426 293.943 96.2979 377.945 58.0038 470.395C19.7097 562.845 -8.74816e-06 661.933 0 762L762 762H1524Z"/>
</mask>
<path d="M1524 762C1524 661.933 1504.29 562.845 1466 470.395C1427.7 377.945 1371.57 293.943 1300.82 223.185C1230.06 152.426 1146.05 96.2979 1053.6 58.0038C961.155 19.7097 862.067 -4.37408e-06 762 0C661.933 4.37408e-06 562.845 19.7097 470.395 58.0038C377.945 96.2979 293.943 152.426 223.185 223.185C152.426 293.943 96.2979 377.945 58.0038 470.395C19.7097 562.845 -8.74816e-06 661.933 0 762L762 762H1524Z" stroke="black" stroke-width="2" mask="url(#path-1-inside-1_260_10)"/>
<mask id="path-2-inside-2_260_10" fill="white">
<path d="M1388 722C1388 639.005 1371.78 556.822 1340.27 480.144C1308.76 403.466 1262.58 333.795 1204.36 275.109C1146.13 216.422 1077.01 169.869 1000.94 138.108C924.871 106.347 843.339 90 761 90C678.661 90 597.129 106.347 521.057 138.108C444.986 169.869 375.866 216.422 317.644 275.109C259.422 333.795 213.237 403.466 181.728 480.144C150.218 556.822 134 639.005 134 722L761 722H1388Z"/>
</mask>
<path d="M1388 722C1388 639.005 1371.78 556.822 1340.27 480.144C1308.76 403.466 1262.58 333.795 1204.36 275.109C1146.13 216.422 1077.01 169.869 1000.94 138.108C924.871 106.347 843.339 90 761 90C678.661 90 597.129 106.347 521.057 138.108C444.986 169.869 375.866 216.422 317.644 275.109C259.422 333.795 213.237 403.466 181.728 480.144C150.218 556.822 134 639.005 134 722L761 722H1388Z" fill="#D9D9D9" stroke="black" stroke-width="2" mask="url(#path-2-inside-2_260_10)"/>
<mask id="path-3-inside-3_260_10" fill="white">
<path d="M1282 722C1282 653.713 1268.56 586.094 1242.46 523.005C1216.35 459.915 1178.08 402.591 1129.84 354.304C1081.6 306.018 1024.33 267.715 961.304 241.583C898.275 215.45 830.722 202 762.5 202C694.278 202 626.725 215.45 563.696 241.583C500.667 267.715 443.398 306.018 395.158 354.305C346.918 402.591 308.652 459.915 282.545 523.005C256.437 586.094 243 653.713 243 722L762.5 722H1282Z"/>
</mask>
<path d="M1282 722C1282 653.713 1268.56 586.094 1242.46 523.005C1216.35 459.915 1178.08 402.591 1129.84 354.304C1081.6 306.018 1024.33 267.715 961.304 241.583C898.275 215.45 830.722 202 762.5 202C694.278 202 626.725 215.45 563.696 241.583C500.667 267.715 443.398 306.018 395.158 354.305C346.918 402.591 308.652 459.915 282.545 523.005C256.437 586.094 243 653.713 243 722L762.5 722H1282Z" fill="#C6C5C5" stroke="black" stroke-width="2" mask="url(#path-3-inside-3_260_10)"/>
</svg>
