<svg width="511" height="168" viewBox="0 0 511 168" fill="none" xmlns="http://www.w3.org/2000/svg">
<path fill-rule="evenodd" clip-rule="evenodd" d="M238.777 15.0599C233.79 16.5725 229.627 17.8353 227.868 25.9332C227.696 26.7215 227.102 27.3634 226.317 27.5464C226.047 27.6092 225.777 27.6722 225.506 27.7356C225.095 27.8319 224.665 27.7934 224.27 27.6417C221.562 26.6003 218.391 26.0013 215 26.0013C206.927 26.0013 200.096 29.3966 197.813 34.0738C197.527 34.6601 197.042 35.1426 196.415 35.3253C191.905 36.6411 187.46 38.0146 183.169 39.4372C182.875 39.5346 182.562 39.563 182.255 39.5195C180.201 39.2279 178.053 38.9241 175.808 38.6065L175.805 38.6061L172.5 38.1386C146.398 34.4442 140.525 40.4359 134.78 46.2974C133.551 47.551 132.329 48.7986 130.915 49.9442C130.574 50.2207 130.145 50.3631 129.706 50.3631L6 50.3631C4.89543 50.3631 4 51.2585 4 52.3631V161.998C4 163.103 4.89543 163.998 6 163.998H504.793C505.898 163.998 506.793 163.103 506.793 161.998V52.3631C506.793 51.2585 505.898 50.3631 504.793 50.3631L381.294 50.3631C380.855 50.3631 380.426 50.2207 380.085 49.9442C378.671 48.7986 377.449 47.551 376.22 46.2974C370.475 40.4359 364.602 34.4442 338.5 38.1386L335.195 38.6061L335.193 38.6064L335.185 38.6076L335.168 38.61C333.868 38.7939 332.6 38.9731 331.365 39.1481C330.698 39.2425 330.028 38.9949 329.583 38.4893L328.608 37.3815C328.324 37.0592 327.944 36.8368 327.525 36.7471L313.56 33.7638C312.996 33.6434 312.522 33.2798 312.194 32.8059C309.425 28.7983 303.15 26.0013 295.854 26.0013C292.471 26.0013 289.309 26.6024 286.613 27.6464C286.231 27.7944 285.815 27.8364 285.414 27.7508L284.696 27.5975C283.899 27.4271 283.291 26.7826 283.113 25.9863C281.298 17.8408 276.978 16.5758 271.802 15.0599C267.143 13.6956 261.791 12.1282 256.946 5.15893C256.038 3.85206 253.99 3.86695 253.102 5.18751C248.429 12.1325 243.269 13.6975 238.777 15.0599Z" fill="#3C3E70"/>
<path d="M238.777 15.0599L237.616 11.2321V11.2321L238.777 15.0599ZM175.808 38.6065L175.247 42.567L175.247 42.5671L175.808 38.6065ZM175.805 38.6061L176.366 34.6457L176.365 34.6456L175.805 38.6061ZM172.5 38.1386L171.939 42.0991L171.94 42.0991L172.5 38.1386ZM134.78 46.2974L137.637 49.0974L137.637 49.0974L134.78 46.2974ZM376.22 46.2974L379.076 43.4975V43.4975L376.22 46.2974ZM338.5 38.1386L339.06 42.0991L339.061 42.0991L338.5 38.1386ZM335.195 38.6061L335.738 42.5692L335.755 42.5667L335.195 38.6061ZM335.193 38.6064L334.651 34.6434L334.634 34.6456L335.193 38.6064ZM335.185 38.6076L334.626 34.6469L334.625 34.6469L335.185 38.6076ZM335.168 38.61L334.608 34.6493L334.608 34.6494L335.168 38.61ZM271.802 15.0599L270.678 18.8987V18.8987L271.802 15.0599ZM256.946 5.15893L253.662 7.44206L256.946 5.15893ZM253.102 5.18751L249.783 2.95467L253.102 5.18751ZM285.414 27.7508L286.25 23.8391L285.414 27.7508ZM313.56 33.7638L314.395 29.852L313.56 33.7638ZM312.194 32.8059L315.485 30.5319L312.194 32.8059ZM504.793 50.3631V54.3631V50.3631ZM381.294 50.3631V46.3631V50.3631ZM380.085 49.9442L382.603 46.8366L380.085 49.9442ZM284.696 27.5975L283.861 31.5093L284.696 27.5975ZM283.113 25.9863L279.209 26.8563L283.113 25.9863ZM197.813 34.0738L194.218 32.3194L197.813 34.0738ZM225.506 27.7356L224.594 23.841L225.506 27.7356ZM224.27 27.6417L222.834 31.3751L224.27 27.6417ZM130.915 49.9442L133.433 53.0519L130.915 49.9442ZM129.706 50.3631V54.3631V50.3631ZM183.169 39.4372L181.91 35.6403L183.169 39.4372ZM182.255 39.5195L182.818 35.5592L182.255 39.5195ZM331.365 39.1481L330.804 35.1876L331.365 39.1481ZM329.583 38.4893L332.586 35.8463L329.583 38.4893ZM6 50.3631L6 46.3631L6 50.3631ZM328.608 37.3815L325.605 40.0245L328.608 37.3815ZM327.525 36.7471L326.689 40.6589L327.525 36.7471ZM227.868 25.9332L231.776 26.7823L227.868 25.9332ZM226.317 27.5464L227.224 31.4422L226.317 27.5464ZM231.776 26.7823C232.518 23.3691 233.63 21.9405 234.621 21.1427C235.796 20.1964 237.298 19.6885 239.938 18.8877L237.616 11.2321C235.269 11.9439 232.197 12.8237 229.604 14.9114C226.826 17.1477 224.976 20.3993 223.959 25.084L231.776 26.7823ZM226.418 31.6303C226.687 31.5673 226.956 31.5046 227.224 31.4422L225.41 23.6506C225.138 23.7137 224.866 23.7772 224.594 23.841L226.418 31.6303ZM215 30.0013C217.93 30.0013 220.612 30.5205 222.834 31.3751L225.706 23.9083C222.513 22.6801 218.851 22.0013 215 22.0013V30.0013ZM201.408 35.8283C202.038 34.5359 203.5 33.067 205.959 31.8933C208.375 30.7396 211.505 30.0013 215 30.0013V22.0013C210.423 22.0013 206.1 22.9606 202.512 24.6739C198.965 26.3672 195.87 28.9345 194.218 32.3194L201.408 35.8283ZM184.427 43.234C188.667 41.8288 193.065 40.4696 197.536 39.1652L195.295 31.4853C190.745 32.8127 186.254 34.2005 181.91 35.6403L184.427 43.234ZM175.247 42.5671C177.493 42.8847 179.64 43.1884 181.693 43.4798L182.818 35.5592C180.762 35.2674 178.613 34.9635 176.368 34.6459L175.247 42.5671ZM175.244 42.5666L175.247 42.567L176.369 34.6461L176.366 34.6457L175.244 42.5666ZM171.94 42.0991L175.245 42.5667L176.365 34.6456L173.06 34.178L171.94 42.0991ZM137.637 49.0974C140.467 46.2096 142.79 43.8842 147.241 42.4391C151.857 40.9408 159.154 40.2894 171.939 42.0991L173.061 34.1781C159.745 32.2933 151.054 32.7906 144.771 34.83C138.325 36.9226 134.838 40.5238 131.924 43.4975L137.637 49.0974ZM133.433 53.0519C135.053 51.7395 136.43 50.3282 137.637 49.0974L131.924 43.4975C130.673 44.7737 129.604 45.8577 128.397 46.8366L133.433 53.0519ZM6 54.3631L129.706 54.3631V46.3631L6 46.3631L6 54.3631ZM8 161.998V52.3631H0V161.998H8ZM504.793 159.998H6V167.998H504.793V159.998ZM502.793 52.3631V161.998H510.793V52.3631H502.793ZM381.294 54.3631L504.793 54.3631V46.3631L381.294 46.3631V54.3631ZM373.363 49.0973C374.57 50.3282 375.947 51.7395 377.567 53.0519L382.603 46.8366C381.396 45.8577 380.327 44.7737 379.076 43.4975L373.363 49.0973ZM339.061 42.0991C351.846 40.2894 359.143 40.9408 363.759 42.4391C368.21 43.8842 370.533 46.2096 373.363 49.0974L379.076 43.4975C376.162 40.5238 372.675 36.9226 366.229 34.83C359.946 32.7906 351.255 32.2933 337.939 34.1781L339.061 42.0991ZM335.755 42.5667L339.06 42.0991L337.94 34.178L334.635 34.6456L335.755 42.5667ZM335.736 42.5694L335.738 42.5692L334.652 34.6431L334.651 34.6434L335.736 42.5694ZM335.744 42.5684L335.752 42.5672L334.634 34.6456L334.626 34.6469L335.744 42.5684ZM335.727 42.5706L335.744 42.5683L334.625 34.6469L334.608 34.6493L335.727 42.5706ZM331.926 43.1086C333.161 42.9337 334.428 42.7545 335.728 42.5706L334.608 34.6494C333.308 34.8333 332.04 35.0126 330.804 35.1876L331.926 43.1086ZM325.605 40.0245L326.581 41.1323L332.586 35.8463L331.61 34.7384L325.605 40.0245ZM312.724 37.6755L326.689 40.6589L328.36 32.8354L314.395 29.852L312.724 37.6755ZM295.854 30.0013C302.365 30.0013 307.138 32.5253 308.903 35.0799L315.485 30.5319C311.711 25.0713 303.935 22.0013 295.854 22.0013V30.0013ZM288.057 31.3765C290.264 30.5217 292.935 30.0013 295.854 30.0013V22.0013C292.008 22.0013 288.353 22.6831 285.168 23.9164L288.057 31.3765ZM283.861 31.5093L284.578 31.6626L286.25 23.8391L285.532 23.6858L283.861 31.5093ZM270.678 18.8987C273.416 19.7005 275.012 20.2192 276.258 21.1911C277.305 22.0077 278.449 23.446 279.209 26.8563L287.018 25.1163C285.962 20.3811 284.039 17.1142 281.178 14.8829C278.516 12.8069 275.364 11.9352 272.926 11.2211L270.678 18.8987ZM253.662 7.44206C259.322 15.585 265.817 17.4751 270.678 18.8987L272.926 11.2211C268.47 9.91614 264.259 8.67145 260.231 2.87581L253.662 7.44206ZM239.938 18.8877C244.655 17.4571 250.95 15.5516 256.421 7.42036L249.783 2.95467C245.909 8.71341 241.883 9.93789 237.616 11.2321L239.938 18.8877ZM260.231 2.87581C257.717 -0.739682 252.243 -0.702366 249.783 2.95467L256.421 7.42036C256.04 7.98569 255.466 8.18472 255.046 8.18782C254.626 8.19092 254.05 8.00059 253.662 7.44206L260.231 2.87581ZM285.168 23.9164C285.455 23.8054 285.831 23.7495 286.25 23.8391L284.578 31.6626C285.799 31.9233 287.007 31.7833 288.057 31.3765L285.168 23.9164ZM314.395 29.852C315.014 29.9841 315.349 30.3361 315.485 30.5319L308.903 35.0799C309.694 36.2235 310.979 37.3027 312.724 37.6755L314.395 29.852ZM510.793 52.3631C510.793 49.0494 508.107 46.3631 504.793 46.3631V54.3631C503.689 54.3631 502.793 53.4676 502.793 52.3631H510.793ZM0 161.998C0 165.312 2.68629 167.998 6 167.998V159.998C7.10457 159.998 8 160.894 8 161.998H0ZM381.294 46.3631C381.713 46.3631 382.188 46.4995 382.603 46.8366L377.567 53.0519C378.665 53.9418 379.997 54.3631 381.294 54.3631V46.3631ZM285.532 23.6858C286.379 23.8668 286.881 24.5047 287.018 25.1163L279.209 26.8563C279.7 29.0605 281.418 30.9874 283.861 31.5093L285.532 23.6858ZM194.218 32.3194C194.308 32.1347 194.606 31.6864 195.295 31.4853L197.536 39.1652C199.477 38.5987 200.745 37.1855 201.408 35.8283L194.218 32.3194ZM504.793 167.998C508.107 167.998 510.793 165.312 510.793 161.998H502.793C502.793 160.894 503.689 159.998 504.793 159.998V167.998ZM224.594 23.841C225.021 23.741 225.409 23.794 225.706 23.9083L222.834 31.3751C223.92 31.7928 225.168 31.9229 226.418 31.6303L224.594 23.841ZM128.397 46.8366C128.812 46.4995 129.287 46.3631 129.706 46.3631V54.3631C131.003 54.3631 132.335 53.9418 133.433 53.0519L128.397 46.8366ZM181.91 35.6403C182.199 35.5444 182.51 35.5155 182.818 35.5592L181.693 43.4798C182.614 43.6105 183.55 43.5248 184.427 43.234L181.91 35.6403ZM330.804 35.1876C331.471 35.0932 332.14 35.3406 332.586 35.8463L326.581 41.1323C327.916 42.6492 329.925 43.3918 331.926 43.1086L330.804 35.1876ZM6 46.3631C2.6863 46.3631 0 49.0493 0 52.3631H8C8 53.4676 7.10456 54.3631 6 54.3631L6 46.3631ZM331.61 34.7384C330.759 33.7717 329.62 33.1045 328.36 32.8354L326.689 40.6589C326.269 40.5692 325.889 40.3468 325.605 40.0245L331.61 34.7384ZM223.959 25.084C224.092 24.4723 224.583 23.8429 225.41 23.6506L227.224 31.4422C229.621 30.884 231.301 28.9707 231.776 26.7823L223.959 25.084Z" fill="#FFAD32"/>
</svg>
