<svg width="509" height="207" viewBox="0 0 509 207" fill="none" xmlns="http://www.w3.org/2000/svg">
<path d="M473.3 81.0603L475.084 79.3084V79.3084L473.3 81.0603ZM35.4929 81.0603L33.7094 79.3083L33.7094 79.3084L35.4929 81.0603ZM103.66 66.348L103.31 68.8234L103.66 66.348ZM109.591 67.1852L109.941 64.7098L109.94 64.7097L109.591 67.1852ZM109.616 67.1888L109.967 64.7135L109.966 64.7134L109.616 67.1888ZM109.632 67.1911L109.282 69.6664L109.322 69.6718L109.632 67.1911ZM109.632 67.1911L109.982 64.7156L109.942 64.7104L109.632 67.1911ZM224.128 24.4308L224.828 26.8308L224.128 24.4308ZM284.667 24.4308L285.367 22.0308L284.667 24.4308ZM399.159 67.1914L399.508 69.6668L399.53 69.6637L399.159 67.1914ZM399.161 67.1911L398.811 64.7156L398.79 64.7187L399.161 67.1911ZM399.41 67.1559L399.061 64.6804L399.061 64.6804L399.41 67.1559ZM401.385 66.8772L401.734 69.3526L401.734 69.3526L401.385 66.8772ZM405.133 66.348L405.483 68.8234L405.483 68.8234L405.133 66.348ZM305.491 46.2639L307.952 45.8255L305.491 46.2639ZM308.582 47.8629L309.617 50.1383L308.582 47.8629ZM252.562 4.13138L254.684 5.45447L252.562 4.13138ZM256.233 4.13139L258.354 2.8083L256.233 4.13139ZM25.2004 90.0509L23.8343 87.9572L25.2004 90.0509ZM146.549 72.4824L146.917 70.0097L146.549 72.4824ZM200.213 47.8633L199.177 50.1387L200.213 47.8633ZM203.304 46.2643L205.765 46.7026L203.304 46.2643ZM360.494 64.3625L357.994 64.3922L360.494 64.3625ZM360.519 64.6741L362.99 64.293L360.519 64.6741ZM361.026 70.1706L358.526 70.2169L361.026 70.1706ZM363.438 72.3049L363.805 74.7779L363.438 72.3049ZM483.593 90.0509L482.227 92.1446L483.593 90.0509ZM473.233 77.4358C472.257 76.4594 470.674 76.4593 469.698 77.4355C468.721 78.4117 468.721 79.9946 469.697 80.971L473.233 77.4358ZM466.026 77.5001C467.065 78.4093 468.645 78.304 469.554 77.265C470.463 76.2259 470.358 74.6465 469.319 73.7372L466.026 77.5001ZM464.982 70.3432C463.845 69.5592 462.289 69.845 461.505 70.9816C460.721 72.1181 461.006 73.675 462.143 74.459L464.982 70.3432ZM457.952 71.9623C459.183 72.5875 460.688 72.0965 461.313 70.8654C461.938 69.6344 461.447 68.1296 460.216 67.5043L457.952 71.9623ZM455.131 65.3227C453.83 64.8583 452.4 65.5359 451.935 66.8361C451.471 68.1364 452.149 69.567 453.449 70.0314L455.131 65.3227ZM448.697 68.6266C450.039 68.9489 451.389 68.1219 451.711 66.7793C452.034 65.4368 451.207 64.0871 449.864 63.7647L448.697 68.6266ZM444.534 62.7342C443.169 62.5285 441.895 63.4686 441.69 64.8339C441.484 66.1992 442.424 67.4727 443.789 67.6784L444.534 62.7342ZM438.776 67.1045C440.152 67.2164 441.359 66.1916 441.47 64.8154C441.582 63.4392 440.558 62.2329 439.181 62.1209L438.776 67.1045ZM433.827 61.8375C432.447 61.8008 431.298 62.8899 431.262 64.2702C431.225 65.6504 432.314 66.799 433.694 66.8357L433.827 61.8375ZM428.583 66.8163C429.964 66.7922 431.063 65.6536 431.039 64.2731C431.015 62.8926 429.876 61.793 428.496 61.8171L428.583 66.8163ZM423.199 62.008C421.821 62.0818 420.763 63.2593 420.837 64.638C420.91 66.0168 422.088 67.0746 423.467 67.0008L423.199 62.008ZM418.324 67.3561C419.7 67.2408 420.722 66.032 420.607 64.6561C420.492 63.2802 419.283 62.2583 417.907 62.3735L418.324 67.3561ZM412.647 62.8831C411.274 63.0331 410.283 64.2675 410.433 65.64C410.583 67.0125 411.818 68.0035 413.19 67.8535L412.647 62.8831ZM408.072 68.4705C409.441 68.2908 410.405 67.0354 410.225 65.6664C410.046 64.2974 408.79 63.3333 407.421 63.513L408.072 68.4705ZM403.847 64.0048C402.48 64.1978 401.528 65.4626 401.721 66.8298C401.914 68.1969 403.179 69.1487 404.546 68.9557L403.847 64.0048ZM402.672 69.2203C404.039 69.0273 404.991 67.7626 404.798 66.3954C404.604 65.0282 403.34 64.0764 401.973 64.2694L402.672 69.2203ZM400.542 64.4714C399.175 64.6643 398.223 65.9291 398.416 67.2962C398.609 68.6634 399.873 69.6153 401.241 69.4223L400.542 64.4714ZM400.253 69.5617C401.621 69.3687 402.572 68.104 402.379 66.7368C402.186 65.3697 400.922 64.4178 399.555 64.6107L400.253 69.5617ZM398.999 64.6892C397.631 64.8822 396.68 66.1469 396.872 67.5141C397.065 68.8813 398.33 69.8331 399.697 69.6401L398.999 64.6892ZM399.573 69.6577C400.94 69.4648 401.892 68.2 401.699 66.8329C401.506 65.4657 400.241 64.5138 398.874 64.7068L399.573 69.6577ZM398.79 64.7188C397.424 64.9236 396.483 66.1966 396.688 67.562C396.893 68.9274 398.166 69.8683 399.531 69.6635L398.79 64.7188ZM399.53 69.6636C400.896 69.4588 401.837 68.1859 401.632 66.8204C401.427 65.455 400.154 64.5141 398.789 64.7189L399.53 69.6636ZM396.575 65.0312C395.208 65.2242 394.256 66.4889 394.449 67.8561C394.642 69.2233 395.907 70.1751 397.274 69.9822L396.575 65.0312ZM392.808 70.6128C394.175 70.4196 395.127 69.1548 394.934 67.7876C394.741 66.4205 393.476 65.4688 392.109 65.6619L392.808 70.6128ZM387.643 66.2935C386.275 66.487 385.324 67.7522 385.518 69.1192C385.711 70.4863 386.976 71.4377 388.343 71.2441L387.643 66.2935ZM383.878 71.8774C385.245 71.6832 386.196 70.4176 386.001 69.0506C385.807 67.6836 384.542 66.7329 383.175 66.9271L383.878 71.8774ZM378.707 67.5633C377.34 67.7585 376.39 69.0248 376.586 70.3916C376.781 71.7584 378.047 72.7083 379.414 72.5131L378.707 67.5633ZM374.952 73.1525C376.318 72.9559 377.267 71.6887 377.07 70.322C376.874 68.9554 375.607 68.0068 374.24 68.2034L374.952 73.1525ZM369.772 68.8491C368.406 69.0475 367.459 70.3161 367.657 71.6825C367.856 73.0488 369.125 73.9956 370.491 73.7971L369.772 68.8491ZM366.032 74.4489C367.398 74.2479 368.342 72.9776 368.141 71.6116C367.94 70.2456 366.67 69.3011 365.304 69.5022L366.032 74.4489ZM363.29 69.8501C361.973 69.435 360.569 70.1659 360.154 71.4828C359.739 72.7996 360.47 74.2036 361.787 74.6187L363.29 69.8501ZM358.949 72.0852C359.519 73.3425 361.001 73.8991 362.258 73.3285C363.516 72.7579 364.072 71.2761 363.502 70.0188L358.949 72.0852ZM363.467 68.6421C363.385 67.2638 362.201 66.2132 360.823 66.2954C359.444 66.3776 358.394 67.5615 358.476 68.9398L363.467 68.6421ZM358.231 66.3556C358.405 67.7254 359.656 68.6953 361.025 68.5219C362.395 68.3485 363.365 67.0976 363.192 65.7278L358.231 66.3556ZM362.992 64.3099C362.834 62.9383 361.594 61.9547 360.222 62.113C358.85 62.2714 357.867 63.5116 358.025 64.8832L362.992 64.3099ZM357.999 64.5525C358.061 65.9318 359.229 66.9999 360.608 66.9382C361.987 66.8764 363.056 65.7082 362.994 64.3289L357.999 64.5525ZM362.643 61.2173C362.353 59.8674 361.023 59.0084 359.674 59.2986C358.324 59.5888 357.465 60.9183 357.755 62.2682L362.643 61.2173ZM356.062 58.2397C356.803 59.4048 358.348 59.7486 359.514 59.0077C360.679 58.2668 361.022 56.7217 360.282 55.5566L356.062 58.2397ZM356.443 51.043C355.423 50.1117 353.842 50.183 352.911 51.2023C351.979 52.2216 352.051 53.8029 353.07 54.7342L356.443 51.043ZM349.226 51.8826C350.406 52.5998 351.944 52.2247 352.661 51.0448C353.378 49.865 353.003 48.3272 351.823 47.61L349.226 51.8826ZM346.774 45.0599C345.499 44.5296 344.036 45.1332 343.506 46.4081C342.976 47.6829 343.579 49.1462 344.854 49.6765L346.774 45.0599ZM340.161 48.0748C341.493 48.439 342.868 47.6546 343.232 46.3228C343.596 44.991 342.812 43.6161 341.48 43.2519L340.161 48.0748ZM336.042 42.0942C334.678 41.882 333.4 42.8161 333.188 44.1804C332.975 45.5447 333.909 46.8227 335.274 47.0348L336.042 42.0942ZM330.283 46.5258C331.662 46.595 332.836 45.5332 332.905 44.1542C332.974 42.7752 331.912 41.6013 330.533 41.5321L330.283 46.5258ZM325.185 41.5231C323.805 41.5876 322.74 42.758 322.804 44.1372C322.869 45.5164 324.039 46.5822 325.418 46.5177L325.185 41.5231ZM320.752 46.9608C322.119 46.7632 323.066 45.4953 322.869 44.1288C322.671 42.7623 321.403 41.8147 320.037 42.0122L320.752 46.9608ZM314.947 43.0166C313.608 43.3548 312.797 44.7141 313.135 46.0528C313.474 47.3914 314.833 48.2025 316.172 47.8643L314.947 43.0166ZM311.744 49.2526C313.035 48.7625 313.684 47.3187 313.194 46.028C312.704 44.7372 311.26 44.0882 309.969 44.5783L311.744 49.2526ZM307.688 45.5589C306.308 45.5154 305.154 46.5988 305.111 47.9789C305.067 49.3589 306.151 50.5129 307.531 50.5564L307.688 45.5589ZM303.894 48.6805C304.727 49.7816 306.295 49.999 307.396 49.1659C308.497 48.3329 308.714 46.765 307.881 45.6639L303.894 48.6805ZM307.38 43.0302C307.065 41.6857 305.72 40.8507 304.376 41.1651C303.031 41.4795 302.196 42.8243 302.511 44.1687L307.38 43.0302ZM301.026 39.3475C301.538 40.6297 302.993 41.254 304.275 40.7418C305.557 40.2297 306.182 38.7751 305.67 37.4929L301.026 39.3475ZM302.848 32.2C302.053 31.0711 300.493 30.8005 299.365 31.5955C298.236 32.3906 297.965 33.9502 298.76 35.079L302.848 32.2ZM295.544 31.7087C296.638 32.5514 298.207 32.3479 299.05 31.2541C299.893 30.1604 299.689 28.5906 298.596 27.748L295.544 31.7087ZM293.377 24.7298C292.111 24.1793 290.638 24.7594 290.088 26.0257C289.537 27.2919 290.118 28.7646 291.384 29.3151L293.377 24.7298ZM286.54 27.5926C287.861 27.9957 289.258 27.252 289.661 25.9314C290.064 24.6108 289.321 23.2135 288 22.8104L286.54 27.5926ZM283.231 21.4019C281.909 21.0052 280.515 21.7557 280.119 23.0782C279.722 24.4007 280.472 25.7944 281.795 26.1911L283.231 21.4019ZM277.394 24.7577C278.693 25.2257 280.125 24.5521 280.593 23.2532C281.061 21.9542 280.388 20.5218 279.089 20.0537L277.394 24.7577ZM275.148 18.4354C273.898 17.8487 272.409 18.3864 271.823 19.6363C271.236 20.8862 271.774 22.375 273.023 22.9616L275.148 18.4354ZM268.821 20.6918C269.995 21.4179 271.536 21.0545 272.262 19.8801C272.988 18.7057 272.625 17.1651 271.451 16.439L268.821 20.6918ZM268.028 14.0252C266.95 13.1629 265.376 13.338 264.514 14.4164C263.652 15.4947 263.827 17.0679 264.905 17.9302L268.028 14.0252ZM261.354 14.7358C262.327 15.7153 263.91 15.7204 264.889 14.7473C265.869 13.7742 265.874 12.1913 264.901 11.2118L261.354 14.7358ZM262.074 8.0558C261.204 6.98335 259.63 6.8189 258.557 7.6885C257.485 8.5581 257.321 10.1325 258.19 11.2049L262.074 8.0558ZM255.39 7.42245C256.165 8.56556 257.719 8.86446 258.862 8.09008C260.005 7.31569 260.304 5.76125 259.53 4.61815L255.39 7.42245ZM256.634 1.19142C255.42 0.535238 253.903 0.988101 253.247 2.20292C252.59 3.41774 253.043 4.93449 254.258 5.59067L256.634 1.19142ZM254.537 5.59067C255.752 4.93449 256.205 3.41774 255.548 2.20292C254.892 0.988103 253.375 0.535237 252.161 1.19142L254.537 5.59067ZM249.265 4.61814C248.491 5.76124 248.79 7.31568 249.933 8.09007C251.076 8.86446 252.63 8.56555 253.405 7.42245L249.265 4.61814ZM250.605 11.2049C251.474 10.1324 251.31 8.5581 250.238 7.6885C249.165 6.81889 247.591 6.98334 246.721 8.05579L250.605 11.2049ZM243.894 11.2118C242.921 12.1913 242.926 13.7742 243.906 14.7473C244.885 15.7204 246.468 15.7153 247.441 14.7358L243.894 11.2118ZM243.89 17.9302C244.968 17.0679 245.143 15.4947 244.281 14.4164C243.418 13.338 241.845 13.1629 240.767 14.0252L243.89 17.9302ZM237.344 16.439C236.17 17.1651 235.807 18.7057 236.533 19.8801C237.259 21.0545 238.799 21.4179 239.974 20.6918L237.344 16.439ZM235.771 22.9616C237.021 22.375 237.559 20.8862 236.972 19.6363C236.386 18.3864 234.897 17.8487 233.647 18.4354L235.771 22.9616ZM229.706 20.0537C228.407 20.5218 227.734 21.9542 228.202 23.2532C228.67 24.5521 230.102 25.2257 231.401 24.7577L229.706 20.0537ZM227 26.1911C228.323 25.7944 229.073 24.4007 228.676 23.0782C228.28 21.7557 226.886 21.0052 225.564 21.4019L227 26.1911ZM220.795 22.8104C219.474 23.2135 218.731 24.6108 219.134 25.9314C219.537 27.252 220.934 27.9957 222.255 27.5926L220.795 22.8104ZM217.411 29.3152C218.677 28.7647 219.258 27.2919 218.707 26.0257C218.156 24.7595 216.684 24.1793 215.417 24.7298L217.411 29.3152ZM210.199 27.7481C209.105 28.5908 208.902 30.1605 209.745 31.2543C210.587 32.348 212.157 32.5515 213.251 31.7088L210.199 27.7481ZM210.035 35.0792C210.83 33.9503 210.559 32.3907 209.43 31.5957C208.301 30.8007 206.742 31.0714 205.947 32.2002L210.035 35.0792ZM203.125 37.4932C202.613 38.7754 203.237 40.23 204.52 40.7421C205.802 41.2543 207.256 40.63 207.769 39.3477L203.125 37.4932ZM206.284 44.1691C206.598 42.8246 205.763 41.4799 204.419 41.1655C203.074 40.8511 201.73 41.6861 201.415 43.0306L206.284 44.1691ZM200.913 45.6643C200.08 46.7654 200.298 48.3333 201.399 49.1664C202.5 49.9994 204.068 49.7821 204.901 48.681L200.913 45.6643ZM201.264 50.5568C202.644 50.5134 203.728 49.3594 203.684 47.9793C203.641 46.5993 202.487 45.5158 201.107 45.5593L201.264 50.5568ZM198.825 44.5786C197.535 44.0885 196.091 44.7375 195.601 46.0282C195.11 47.319 195.759 48.7627 197.05 49.2529L198.825 44.5786ZM192.623 47.8644C193.962 48.2026 195.321 47.3916 195.659 46.053C195.997 44.7143 195.186 43.3549 193.848 43.0167L192.623 47.8644ZM188.757 42.0123C187.391 41.8147 186.123 42.7623 185.925 44.1288C185.728 45.4953 186.675 46.7633 188.042 46.9608L188.757 42.0123ZM183.376 46.5177C184.755 46.5822 185.925 45.5164 185.99 44.1372C186.054 42.758 184.989 41.5876 183.609 41.5231L183.376 46.5177ZM178.25 41.5326C176.871 41.6021 175.81 42.7762 175.879 44.1552C175.949 45.5341 177.123 46.5957 178.502 46.5263L178.25 41.5326ZM173.493 47.0391C174.857 46.8262 175.79 45.5476 175.577 44.1834C175.364 42.8192 174.086 41.886 172.721 42.099L173.493 47.0391ZM167.264 43.2656C165.932 43.6313 165.149 45.007 165.515 46.3384C165.881 47.6698 167.257 48.4527 168.588 48.087L167.264 43.2656ZM163.881 49.7012C165.154 49.1686 165.755 47.7042 165.223 46.4304C164.69 45.1565 163.226 44.5555 161.952 45.0881L163.881 49.7012ZM156.889 47.6596C155.711 48.3802 155.341 49.919 156.061 51.0969C156.782 52.2747 158.321 52.6454 159.498 51.9249L156.889 47.6596ZM155.653 54.7994C156.668 53.8634 156.732 52.2818 155.796 51.2668C154.86 50.2518 153.278 50.1877 152.263 51.1237L155.653 54.7994ZM148.434 55.6802C147.702 56.8508 148.058 58.3933 149.228 59.1255C150.399 59.8577 151.941 59.5023 152.673 58.3317L148.434 55.6802ZM151.015 62.3852C151.29 61.0323 150.416 59.7122 149.063 59.4368C147.71 59.1614 146.39 60.035 146.115 61.388L151.015 62.3852ZM145.856 65.859C145.974 67.2346 147.185 68.254 148.561 68.1358C149.937 68.0176 150.956 66.8066 150.838 65.431L145.856 65.859ZM151.149 67.2333C150.801 65.8972 149.436 65.0962 148.1 65.4442C146.763 65.7923 145.962 67.1575 146.31 68.4937L151.149 67.2333ZM146.695 69.8404C146.493 71.2062 147.436 72.4775 148.802 72.68C150.168 72.8825 151.439 71.9395 151.641 70.5737L146.695 69.8404ZM148.963 74.4744C150.182 73.8273 150.647 72.314 150 71.0943C149.353 69.8746 147.839 69.4104 146.62 70.0574L148.963 74.4744ZM144.61 69.6674C143.244 69.4656 141.973 70.4093 141.771 71.7752C141.57 73.1411 142.513 74.4119 143.879 74.6137L144.61 69.6674ZM139.271 73.9381C140.637 74.137 141.906 73.1907 142.105 71.8244C142.304 70.4581 141.358 69.1892 139.992 68.9902L139.271 73.9381ZM135.375 68.3217C134.008 68.1248 132.741 69.073 132.544 70.4396C132.347 71.8062 133.295 73.0737 134.662 73.2706L135.375 68.3217ZM130.05 72.609C131.417 72.8043 132.683 71.8547 132.879 70.4879C133.074 69.121 132.125 67.8546 130.758 67.6593L130.05 72.609ZM126.141 67.0013C124.774 66.8069 123.508 67.7576 123.314 69.1246C123.119 70.4915 124.07 71.7572 125.437 71.9515L126.141 67.0013ZM120.822 71.2968C122.189 71.4904 123.454 70.5391 123.648 69.1721C123.841 67.805 122.89 66.5398 121.523 66.3462L120.822 71.2968ZM116.907 65.6934C115.54 65.5002 114.275 66.4519 114.082 67.8191C113.889 69.1862 114.841 70.4511 116.208 70.6442L116.907 65.6934ZM111.592 69.9925C112.959 70.1855 114.224 69.2336 114.417 67.8664C114.61 66.4993 113.658 65.2345 112.291 65.0416L111.592 69.9925ZM109.942 64.7104C108.572 64.5391 107.323 65.511 107.152 66.881C106.98 68.2511 107.952 69.5005 109.322 69.6718L109.942 64.7104ZM109.322 69.6718C110.692 69.843 111.942 68.8712 112.113 67.5012C112.284 66.1311 111.312 64.8816 109.942 64.7104L109.322 69.6718ZM109.979 64.7152C108.612 64.5216 107.346 65.4728 107.153 66.8399C106.959 68.207 107.91 69.4722 109.277 69.6658L109.979 64.7152ZM109.269 69.6647C110.636 69.8583 111.902 68.907 112.095 67.54C112.289 66.1729 111.338 64.9077 109.971 64.7141L109.269 69.6647ZM109.96 64.7125C108.593 64.5192 107.328 65.4707 107.134 66.8378C106.941 68.2049 107.892 69.4699 109.259 69.6633L109.96 64.7125ZM109.247 69.6615C110.614 69.8548 111.879 68.9033 112.072 67.5362C112.266 66.1691 111.314 64.9041 109.947 64.7107L109.247 69.6615ZM108.457 64.5005C107.09 64.3075 105.825 65.2594 105.632 66.6266C105.439 67.9937 106.391 69.2585 107.758 69.4514L108.457 64.5005ZM104.793 69.0328C106.16 69.2258 107.425 68.274 107.618 66.9068C107.811 65.5397 106.859 64.2749 105.492 64.0819L104.793 69.0328ZM101.372 63.513C100.003 63.3333 98.7472 64.2974 98.5675 65.6664C98.3878 67.0354 99.3519 68.2908 100.721 68.4705L101.372 63.513ZM95.6028 67.8535C96.9753 68.0035 98.2096 67.0125 98.3597 65.64C98.5098 64.2675 97.5188 63.0331 96.1463 62.8831L95.6028 67.8535ZM90.8862 62.3735C89.5103 62.2583 88.3015 63.2802 88.1862 64.6561C88.071 66.032 89.0929 67.2408 90.4688 67.3561L90.8862 62.3735ZM85.3263 67.0008C86.7051 67.0746 87.8826 66.0168 87.9564 64.638C88.0302 63.2593 86.9723 62.0818 85.5936 62.008L85.3263 67.0008ZM80.297 61.8171C78.9165 61.793 77.7779 62.8926 77.7538 64.2731C77.7297 65.6536 78.8293 66.7922 80.2098 66.8163L80.297 61.8171ZM75.0988 66.8357C76.479 66.799 77.5682 65.6504 77.5315 64.2702C77.4948 62.8899 76.3462 61.8008 74.9659 61.8375L75.0988 66.8357ZM69.6116 62.1209C68.2354 62.2329 67.2106 63.4392 67.3225 64.8154C67.4344 66.1916 68.6408 67.2164 70.017 67.1045L69.6116 62.1209ZM65.0037 67.6784C66.369 67.4727 67.3091 66.1992 67.1034 64.8339C66.8977 63.4686 65.6242 62.5285 64.2589 62.7342L65.0037 67.6784ZM58.929 63.7647C57.5864 64.0871 56.7594 65.4368 57.0818 66.7793C57.4041 68.1219 58.7538 68.9489 60.0963 68.6266L58.929 63.7647ZM55.3442 70.0314C56.6445 69.567 57.322 68.1364 56.8576 66.8361C56.3932 65.5359 54.9627 64.8583 53.6624 65.3227L55.3442 70.0314ZM48.577 67.5043C47.3459 68.1296 46.8549 69.6344 47.4801 70.8654C48.1054 72.0965 49.6102 72.5875 50.8412 71.9623L48.577 67.5043ZM46.65 74.459C47.7865 73.675 48.0723 72.1181 47.2884 70.9816C46.5044 69.845 44.9475 69.5592 43.811 70.3432L46.65 74.459ZM39.4743 73.7372C38.4352 74.6465 38.3299 76.2259 39.2391 77.2649C40.1483 78.304 41.7278 78.4093 42.7668 77.5001L39.4743 73.7372ZM39.0956 80.971C40.0718 79.9946 40.0717 78.4117 39.0953 77.4355C38.1189 76.4592 36.536 76.4594 35.5598 77.4358L39.0956 80.971ZM31.3246 81.7115C30.3421 82.6816 30.3319 84.2645 31.302 85.247C32.272 86.2295 33.8549 86.2396 34.8374 85.2696L31.3246 81.7115ZM29.5236 90.023C30.6104 89.1713 30.801 87.6 29.9494 86.5132C29.0977 85.4264 27.5263 85.2358 26.4396 86.0874L29.5236 90.023ZM23.9138 87.9133C22.6583 88.488 22.1064 89.9715 22.6811 91.227C23.2558 92.4824 24.7394 93.0343 25.9948 92.4596L23.9138 87.9133ZM24.7659 92.8188C26.133 92.6257 27.0848 91.3609 26.8917 89.9937C26.6985 88.6266 25.4337 87.6748 24.0666 87.868L24.7659 92.8188ZM21.7439 87.863C20.3632 87.863 19.2439 88.9823 19.2439 90.363C19.2439 91.7437 20.3632 92.863 21.7439 92.863V87.863ZM16.96 92.863C18.3407 92.863 19.46 91.7437 19.46 90.363C19.46 88.9823 18.3407 87.863 16.96 87.863V92.863ZM12.176 87.863C10.7953 87.863 9.67597 88.9823 9.67597 90.363C9.67597 91.7437 10.7953 92.863 12.176 92.863V87.863ZM7.39199 92.863C8.7727 92.863 9.89199 91.7437 9.89199 90.363C9.89199 88.9823 8.7727 87.863 7.39199 87.863V92.863ZM0.5 94.8547C0.5 96.2355 1.61929 97.3547 3 97.3547C4.38071 97.3547 5.5 96.2355 5.5 94.8547H0.5ZM5.5 99.8382C5.5 98.4575 4.38071 97.3382 3 97.3382C1.61929 97.3382 0.5 98.4575 0.5 99.8382H5.5ZM0.5 104.822C0.5 106.202 1.61929 107.322 3 107.322C4.38071 107.322 5.5 106.202 5.5 104.822H0.5ZM5.5 109.805C5.5 108.424 4.38071 107.305 3 107.305C1.61929 107.305 0.5 108.424 0.5 109.805H5.5ZM0.5 114.788C0.5 116.169 1.61929 117.288 3 117.288C4.38071 117.288 5.5 116.169 5.5 114.788H0.5ZM5.5 119.772C5.5 118.391 4.38071 117.272 3 117.272C1.61929 117.272 0.5 118.391 0.5 119.772H5.5ZM0.5 124.755C0.5 126.136 1.61929 127.255 3 127.255C4.38071 127.255 5.5 126.136 5.5 124.755H0.5ZM5.5 129.739C5.5 128.358 4.38071 127.239 3 127.239C1.61929 127.239 0.5 128.358 0.5 129.739H5.5ZM0.5 134.722C0.5 136.103 1.61929 137.222 3 137.222C4.38071 137.222 5.5 136.103 5.5 134.722H0.5ZM5.5 139.706C5.5 138.325 4.38071 137.206 3 137.206C1.61929 137.206 0.5 138.325 0.5 139.706H5.5ZM0.5 144.689C0.5 146.07 1.61929 147.189 3 147.189C4.38071 147.189 5.5 146.07 5.5 144.689H0.5ZM5.5 149.672C5.5 148.292 4.38071 147.172 3 147.172C1.61929 147.172 0.5 148.292 0.5 149.672H5.5ZM0.5 154.656C0.5 156.037 1.61929 157.156 3 157.156C4.38071 157.156 5.5 156.037 5.5 154.656H0.5ZM5.5 159.639C5.5 158.259 4.38071 157.139 3 157.139C1.61929 157.139 0.5 158.259 0.5 159.639H5.5ZM0.5 164.623C0.5 166.003 1.61929 167.123 3 167.123C4.38071 167.123 5.5 166.003 5.5 164.623H0.5ZM5.5 169.606C5.5 168.225 4.38071 167.106 3 167.106C1.61929 167.106 0.5 168.225 0.5 169.606H5.5ZM0.5 174.59C0.5 175.97 1.61929 177.09 3 177.09C4.38071 177.09 5.5 175.97 5.5 174.59H0.5ZM5.5 179.573C5.5 178.192 4.38071 177.073 3 177.073C1.61929 177.073 0.5 178.192 0.5 179.573H5.5ZM0.5 184.556C0.5 185.937 1.61929 187.056 3 187.056C4.38071 187.056 5.5 185.937 5.5 184.556H0.5ZM5.5 189.54C5.5 188.159 4.38071 187.04 3 187.04C1.61929 187.04 0.5 188.159 0.5 189.54H5.5ZM0.5 194.523C0.5 195.904 1.61929 197.023 3 197.023C4.38071 197.023 5.5 195.904 5.5 194.523H0.5ZM5.5 199.507C5.5 198.126 4.38071 197.007 3 197.007C1.61929 197.007 0.5 198.126 0.5 199.507H5.5ZM7.49397 206.498C8.87468 206.498 9.99397 205.379 9.99397 203.998C9.99397 202.618 8.87468 201.498 7.49397 201.498V206.498ZM12.4819 201.498C11.1012 201.498 9.9819 202.618 9.9819 203.998C9.9819 205.379 11.1012 206.498 12.4819 206.498V201.498ZM17.4698 206.498C18.8505 206.498 19.9698 205.379 19.9698 203.998C19.9698 202.618 18.8505 201.498 17.4698 201.498V206.498ZM22.4578 201.498C21.0771 201.498 19.9578 202.618 19.9578 203.998C19.9578 205.379 21.0771 206.498 22.4578 206.498V201.498ZM27.4457 206.498C28.8264 206.498 29.9457 205.379 29.9457 203.998C29.9457 202.618 28.8264 201.498 27.4457 201.498V206.498ZM32.4336 201.498C31.0529 201.498 29.9336 202.618 29.9336 203.998C29.9336 205.379 31.0529 206.498 32.4336 206.498V201.498ZM37.4216 206.498C38.8023 206.498 39.9216 205.379 39.9216 203.998C39.9216 202.618 38.8023 201.498 37.4216 201.498V206.498ZM42.4095 201.498C41.0288 201.498 39.9095 202.618 39.9095 203.998C39.9095 205.379 41.0288 206.498 42.4095 206.498V201.498ZM47.3974 206.498C48.7781 206.498 49.8974 205.379 49.8974 203.998C49.8974 202.618 48.7781 201.498 47.3974 201.498V206.498ZM52.3854 201.498C51.0047 201.498 49.8854 202.618 49.8854 203.998C49.8854 205.379 51.0047 206.498 52.3854 206.498V201.498ZM57.3733 206.498C58.754 206.498 59.8733 205.379 59.8733 203.998C59.8733 202.618 58.754 201.498 57.3733 201.498V206.498ZM62.3612 201.498C60.9805 201.498 59.8612 202.618 59.8612 203.998C59.8612 205.379 60.9805 206.498 62.3612 206.498V201.498ZM67.3492 206.498C68.7299 206.498 69.8492 205.379 69.8492 203.998C69.8492 202.618 68.7299 201.498 67.3492 201.498V206.498ZM72.3371 201.498C70.9564 201.498 69.8371 202.618 69.8371 203.998C69.8371 205.379 70.9564 206.498 72.3371 206.498V201.498ZM77.325 206.498C78.7057 206.498 79.825 205.379 79.825 203.998C79.825 202.618 78.7057 201.498 77.325 201.498V206.498ZM82.313 201.498C80.9323 201.498 79.813 202.618 79.813 203.998C79.813 205.379 80.9323 206.498 82.313 206.498V201.498ZM87.3009 206.498C88.6816 206.498 89.8009 205.379 89.8009 203.998C89.8009 202.618 88.6816 201.498 87.3009 201.498V206.498ZM92.2888 201.498C90.9081 201.498 89.7888 202.618 89.7888 203.998C89.7888 205.379 90.9081 206.498 92.2888 206.498V201.498ZM97.2768 206.498C98.6575 206.498 99.7768 205.379 99.7768 203.998C99.7768 202.618 98.6575 201.498 97.2768 201.498V206.498ZM102.265 201.498C100.884 201.498 99.7647 202.618 99.7647 203.998C99.7647 205.379 100.884 206.498 102.265 206.498V201.498ZM107.253 206.498C108.633 206.498 109.753 205.379 109.753 203.998C109.753 202.618 108.633 201.498 107.253 201.498V206.498ZM112.241 201.498C110.86 201.498 109.741 202.618 109.741 203.998C109.741 205.379 110.86 206.498 112.241 206.498V201.498ZM117.228 206.498C118.609 206.498 119.728 205.379 119.728 203.998C119.728 202.618 118.609 201.498 117.228 201.498V206.498ZM122.216 201.498C120.836 201.498 119.716 202.618 119.716 203.998C119.716 205.379 120.836 206.498 122.216 206.498V201.498ZM127.204 206.498C128.585 206.498 129.704 205.379 129.704 203.998C129.704 202.618 128.585 201.498 127.204 201.498V206.498ZM132.192 201.498C130.812 201.498 129.692 202.618 129.692 203.998C129.692 205.379 130.812 206.498 132.192 206.498V201.498ZM137.18 206.498C138.561 206.498 139.68 205.379 139.68 203.998C139.68 202.618 138.561 201.498 137.18 201.498V206.498ZM142.168 201.498C140.787 201.498 139.668 202.618 139.668 203.998C139.668 205.379 140.787 206.498 142.168 206.498V201.498ZM147.156 206.498C148.537 206.498 149.656 205.379 149.656 203.998C149.656 202.618 148.537 201.498 147.156 201.498V206.498ZM152.144 201.498C150.763 201.498 149.644 202.618 149.644 203.998C149.644 205.379 150.763 206.498 152.144 206.498V201.498ZM157.132 206.498C158.513 206.498 159.632 205.379 159.632 203.998C159.632 202.618 158.513 201.498 157.132 201.498V206.498ZM162.12 201.498C160.739 201.498 159.62 202.618 159.62 203.998C159.62 205.379 160.739 206.498 162.12 206.498V201.498ZM167.108 206.498C168.489 206.498 169.608 205.379 169.608 203.998C169.608 202.618 168.489 201.498 167.108 201.498V206.498ZM172.096 201.498C170.715 201.498 169.596 202.618 169.596 203.998C169.596 205.379 170.715 206.498 172.096 206.498V201.498ZM177.084 206.498C178.464 206.498 179.584 205.379 179.584 203.998C179.584 202.618 178.464 201.498 177.084 201.498V206.498ZM182.072 201.498C180.691 201.498 179.572 202.618 179.572 203.998C179.572 205.379 180.691 206.498 182.072 206.498V201.498ZM187.06 206.498C188.44 206.498 189.56 205.379 189.56 203.998C189.56 202.618 188.44 201.498 187.06 201.498V206.498ZM192.047 201.498C190.667 201.498 189.547 202.618 189.547 203.998C189.547 205.379 190.667 206.498 192.047 206.498V201.498ZM197.035 206.498C198.416 206.498 199.535 205.379 199.535 203.998C199.535 202.618 198.416 201.498 197.035 201.498V206.498ZM202.023 201.498C200.643 201.498 199.523 202.618 199.523 203.998C199.523 205.379 200.643 206.498 202.023 206.498V201.498ZM207.011 206.498C208.392 206.498 209.511 205.379 209.511 203.998C209.511 202.618 208.392 201.498 207.011 201.498V206.498ZM211.999 201.498C210.618 201.498 209.499 202.618 209.499 203.998C209.499 205.379 210.618 206.498 211.999 206.498V201.498ZM216.987 206.498C218.368 206.498 219.487 205.379 219.487 203.998C219.487 202.618 218.368 201.498 216.987 201.498V206.498ZM221.975 201.498C220.594 201.498 219.475 202.618 219.475 203.998C219.475 205.379 220.594 206.498 221.975 206.498V201.498ZM226.963 206.498C228.344 206.498 229.463 205.379 229.463 203.998C229.463 202.618 228.344 201.498 226.963 201.498V206.498ZM231.951 201.498C230.57 201.498 229.451 202.618 229.451 203.998C229.451 205.379 230.57 206.498 231.951 206.498V201.498ZM236.939 206.498C238.32 206.498 239.439 205.379 239.439 203.998C239.439 202.618 238.32 201.498 236.939 201.498V206.498ZM241.927 201.498C240.546 201.498 239.427 202.618 239.427 203.998C239.427 205.379 240.546 206.498 241.927 206.498V201.498ZM246.915 206.498C248.295 206.498 249.415 205.379 249.415 203.998C249.415 202.618 248.295 201.498 246.915 201.498V206.498ZM251.903 201.498C250.522 201.498 249.403 202.618 249.403 203.998C249.403 205.379 250.522 206.498 251.903 206.498V201.498ZM256.891 206.498C258.271 206.498 259.391 205.379 259.391 203.998C259.391 202.618 258.271 201.498 256.891 201.498V206.498ZM261.878 201.498C260.498 201.498 259.378 202.618 259.378 203.998C259.378 205.379 260.498 206.498 261.878 206.498V201.498ZM266.866 206.498C268.247 206.498 269.366 205.379 269.366 203.998C269.366 202.618 268.247 201.498 266.866 201.498V206.498ZM271.854 201.498C270.474 201.498 269.354 202.618 269.354 203.998C269.354 205.379 270.474 206.498 271.854 206.498V201.498ZM276.842 206.498C278.223 206.498 279.342 205.379 279.342 203.998C279.342 202.618 278.223 201.498 276.842 201.498V206.498ZM281.83 201.498C280.45 201.498 279.33 202.618 279.33 203.998C279.33 205.379 280.45 206.498 281.83 206.498V201.498ZM286.818 206.498C288.199 206.498 289.318 205.379 289.318 203.998C289.318 202.618 288.199 201.498 286.818 201.498V206.498ZM291.806 201.498C290.425 201.498 289.306 202.618 289.306 203.998C289.306 205.379 290.425 206.498 291.806 206.498V201.498ZM296.794 206.498C298.175 206.498 299.294 205.379 299.294 203.998C299.294 202.618 298.175 201.498 296.794 201.498V206.498ZM301.782 201.498C300.401 201.498 299.282 202.618 299.282 203.998C299.282 205.379 300.401 206.498 301.782 206.498V201.498ZM306.77 206.498C308.151 206.498 309.27 205.379 309.27 203.998C309.27 202.618 308.151 201.498 306.77 201.498V206.498ZM311.758 201.498C310.377 201.498 309.258 202.618 309.258 203.998C309.258 205.379 310.377 206.498 311.758 206.498V201.498ZM316.746 206.498C318.127 206.498 319.246 205.379 319.246 203.998C319.246 202.618 318.127 201.498 316.746 201.498V206.498ZM321.734 201.498C320.353 201.498 319.234 202.618 319.234 203.998C319.234 205.379 320.353 206.498 321.734 206.498V201.498ZM326.722 206.498C328.102 206.498 329.222 205.379 329.222 203.998C329.222 202.618 328.102 201.498 326.722 201.498V206.498ZM331.71 201.498C330.329 201.498 329.21 202.618 329.21 203.998C329.21 205.379 330.329 206.498 331.71 206.498V201.498ZM336.698 206.498C338.078 206.498 339.198 205.379 339.198 203.998C339.198 202.618 338.078 201.498 336.698 201.498V206.498ZM341.686 201.498C340.305 201.498 339.186 202.618 339.186 203.998C339.186 205.379 340.305 206.498 341.686 206.498V201.498ZM346.674 206.498C348.054 206.498 349.174 205.379 349.174 203.998C349.174 202.618 348.054 201.498 346.674 201.498V206.498ZM351.661 201.498C350.281 201.498 349.161 202.618 349.161 203.998C349.161 205.379 350.281 206.498 351.661 206.498V201.498ZM356.649 206.498C358.03 206.498 359.149 205.379 359.149 203.998C359.149 202.618 358.03 201.498 356.649 201.498V206.498ZM361.637 201.498C360.257 201.498 359.137 202.618 359.137 203.998C359.137 205.379 360.257 206.498 361.637 206.498V201.498ZM366.625 206.498C368.006 206.498 369.125 205.379 369.125 203.998C369.125 202.618 368.006 201.498 366.625 201.498V206.498ZM371.613 201.498C370.233 201.498 369.113 202.618 369.113 203.998C369.113 205.379 370.233 206.498 371.613 206.498V201.498ZM376.601 206.498C377.982 206.498 379.101 205.379 379.101 203.998C379.101 202.618 377.982 201.498 376.601 201.498V206.498ZM381.589 201.498C380.208 201.498 379.089 202.618 379.089 203.998C379.089 205.379 380.208 206.498 381.589 206.498V201.498ZM386.577 206.498C387.958 206.498 389.077 205.379 389.077 203.998C389.077 202.618 387.958 201.498 386.577 201.498V206.498ZM391.565 201.498C390.184 201.498 389.065 202.618 389.065 203.998C389.065 205.379 390.184 206.498 391.565 206.498V201.498ZM396.553 206.498C397.934 206.498 399.053 205.379 399.053 203.998C399.053 202.618 397.934 201.498 396.553 201.498V206.498ZM401.541 201.498C400.16 201.498 399.041 202.618 399.041 203.998C399.041 205.379 400.16 206.498 401.541 206.498V201.498ZM406.529 206.498C407.91 206.498 409.029 205.379 409.029 203.998C409.029 202.618 407.91 201.498 406.529 201.498V206.498ZM411.517 201.498C410.136 201.498 409.017 202.618 409.017 203.998C409.017 205.379 410.136 206.498 411.517 206.498V201.498ZM416.505 206.498C417.885 206.498 419.005 205.379 419.005 203.998C419.005 202.618 417.885 201.498 416.505 201.498V206.498ZM421.493 201.498C420.112 201.498 418.993 202.618 418.993 203.998C418.993 205.379 420.112 206.498 421.493 206.498V201.498ZM426.481 206.498C427.861 206.498 428.981 205.379 428.981 203.998C428.981 202.618 427.861 201.498 426.481 201.498V206.498ZM431.469 201.498C430.088 201.498 428.969 202.618 428.969 203.998C428.969 205.379 430.088 206.498 431.469 206.498V201.498ZM436.457 206.498C437.837 206.498 438.957 205.379 438.957 203.998C438.957 202.618 437.837 201.498 436.457 201.498V206.498ZM441.445 201.498C440.064 201.498 438.945 202.618 438.945 203.998C438.945 205.379 440.064 206.498 441.445 206.498V201.498ZM446.432 206.498C447.813 206.498 448.932 205.379 448.932 203.998C448.932 202.618 447.813 201.498 446.432 201.498V206.498ZM451.42 201.498C450.04 201.498 448.92 202.618 448.92 203.998C448.92 205.379 450.04 206.498 451.42 206.498V201.498ZM456.408 206.498C457.789 206.498 458.908 205.379 458.908 203.998C458.908 202.618 457.789 201.498 456.408 201.498V206.498ZM461.396 201.498C460.016 201.498 458.896 202.618 458.896 203.998C458.896 205.379 460.016 206.498 461.396 206.498V201.498ZM466.384 206.498C467.765 206.498 468.884 205.379 468.884 203.998C468.884 202.618 467.765 201.498 466.384 201.498V206.498ZM471.372 201.498C469.991 201.498 468.872 202.618 468.872 203.998C468.872 205.379 469.991 206.498 471.372 206.498V201.498ZM476.36 206.498C477.741 206.498 478.86 205.379 478.86 203.998C478.86 202.618 477.741 201.498 476.36 201.498V206.498ZM481.348 201.498C479.967 201.498 478.848 202.618 478.848 203.998C478.848 205.379 479.967 206.498 481.348 206.498V201.498ZM486.336 206.498C487.717 206.498 488.836 205.379 488.836 203.998C488.836 202.618 487.717 201.498 486.336 201.498V206.498ZM491.324 201.498C489.943 201.498 488.824 202.618 488.824 203.998C488.824 205.379 489.943 206.498 491.324 206.498V201.498ZM496.312 206.498C497.693 206.498 498.812 205.379 498.812 203.998C498.812 202.618 497.693 201.498 496.312 201.498V206.498ZM501.3 201.498C499.919 201.498 498.8 202.618 498.8 203.998C498.8 205.379 499.919 206.498 501.3 206.498V201.498ZM508.293 199.507C508.293 198.126 507.174 197.007 505.793 197.007C504.413 197.007 503.293 198.126 503.293 199.507H508.293ZM503.293 194.523C503.293 195.904 504.413 197.023 505.793 197.023C507.174 197.023 508.293 195.904 508.293 194.523H503.293ZM508.293 189.54C508.293 188.159 507.174 187.04 505.793 187.04C504.413 187.04 503.293 188.159 503.293 189.54H508.293ZM503.293 184.556C503.293 185.937 504.413 187.056 505.793 187.056C507.174 187.056 508.293 185.937 508.293 184.556H503.293ZM508.293 179.573C508.293 178.192 507.174 177.073 505.793 177.073C504.413 177.073 503.293 178.192 503.293 179.573H508.293ZM503.293 174.59C503.293 175.97 504.413 177.09 505.793 177.09C507.174 177.09 508.293 175.97 508.293 174.59H503.293ZM508.293 169.606C508.293 168.225 507.174 167.106 505.793 167.106C504.413 167.106 503.293 168.225 503.293 169.606H508.293ZM503.293 164.623C503.293 166.003 504.413 167.123 505.793 167.123C507.174 167.123 508.293 166.003 508.293 164.623H503.293ZM508.293 159.639C508.293 158.259 507.174 157.139 505.793 157.139C504.413 157.139 503.293 158.259 503.293 159.639H508.293ZM503.293 154.656C503.293 156.037 504.413 157.156 505.793 157.156C507.174 157.156 508.293 156.037 508.293 154.656H503.293ZM508.293 149.672C508.293 148.292 507.174 147.172 505.793 147.172C504.413 147.172 503.293 148.292 503.293 149.672H508.293ZM503.293 144.689C503.293 146.07 504.413 147.189 505.793 147.189C507.174 147.189 508.293 146.07 508.293 144.689H503.293ZM508.293 139.706C508.293 138.325 507.174 137.206 505.793 137.206C504.413 137.206 503.293 138.325 503.293 139.706H508.293ZM503.293 134.722C503.293 136.103 504.413 137.222 505.793 137.222C507.174 137.222 508.293 136.103 508.293 134.722H503.293ZM508.293 129.739C508.293 128.358 507.174 127.239 505.793 127.239C504.413 127.239 503.293 128.358 503.293 129.739H508.293ZM503.293 124.755C503.293 126.136 504.413 127.255 505.793 127.255C507.174 127.255 508.293 126.136 508.293 124.755H503.293ZM508.293 119.772C508.293 118.391 507.174 117.272 505.793 117.272C504.413 117.272 503.293 118.391 503.293 119.772H508.293ZM503.293 114.788C503.293 116.169 504.413 117.288 505.793 117.288C507.174 117.288 508.293 116.169 508.293 114.788H503.293ZM508.293 109.805C508.293 108.424 507.174 107.305 505.793 107.305C504.413 107.305 503.293 108.424 503.293 109.805H508.293ZM503.293 104.822C503.293 106.202 504.413 107.322 505.793 107.322C507.174 107.322 508.293 106.202 508.293 104.822H503.293ZM508.293 99.8382C508.293 98.4574 507.174 97.3382 505.793 97.3382C504.413 97.3382 503.293 98.4574 503.293 99.8382H508.293ZM503.293 94.8547C503.293 96.2354 504.413 97.3547 505.793 97.3547C507.174 97.3547 508.293 96.2354 508.293 94.8547H503.293ZM501.401 87.863C500.021 87.863 498.901 88.9823 498.901 90.363C498.901 91.7437 500.021 92.863 501.401 92.863V87.863ZM496.617 92.863C497.998 92.863 499.117 91.7437 499.117 90.363C499.117 88.9823 497.998 87.863 496.617 87.863V92.863ZM491.833 87.863C490.452 87.863 489.333 88.9823 489.333 90.363C489.333 91.7437 490.452 92.863 491.833 92.863V87.863ZM487.049 92.863C488.43 92.863 489.549 91.7437 489.549 90.363C489.549 88.9823 488.43 87.863 487.049 87.863V92.863ZM484.726 87.868C483.359 87.6748 482.094 88.6266 481.901 89.9937C481.708 91.3609 482.66 92.6257 484.027 92.8188L484.726 87.868ZM482.798 92.4596C484.054 93.0343 485.537 92.4824 486.112 91.227C486.687 89.9715 486.135 88.488 484.879 87.9133L482.798 92.4596ZM482.353 86.0874C481.267 85.2358 479.695 85.4264 478.844 86.5132C477.992 87.6 478.183 89.1713 479.269 90.023L482.353 86.0874ZM473.956 85.2696C474.938 86.2397 476.521 86.2295 477.491 85.247C478.461 84.2645 478.451 82.6816 477.468 81.7115L473.956 85.2696ZM475.084 79.3084C474.477 78.6903 473.86 78.0623 473.233 77.4358L469.697 80.971C470.306 81.5793 470.907 82.1916 471.517 82.8122L475.084 79.3084ZM469.319 73.7372C467.986 72.5711 466.557 71.4292 464.982 70.3432L462.143 74.459C463.532 75.4173 464.81 76.4363 466.026 77.5001L469.319 73.7372ZM460.216 67.5043C458.653 66.7104 456.967 65.9786 455.131 65.3227L453.449 70.0314C455.087 70.6165 456.578 71.2647 457.952 71.9623L460.216 67.5043ZM449.864 63.7647C448.196 63.3643 446.424 63.0189 444.534 62.7342L443.789 67.6784C445.545 67.9429 447.176 68.2615 448.697 68.6266L449.864 63.7647ZM439.181 62.1209C437.483 61.9828 435.701 61.8873 433.827 61.8375L433.694 66.8357C435.482 66.8832 437.174 66.9741 438.776 67.1045L439.181 62.1209ZM428.496 61.8171C426.799 61.8467 425.035 61.9097 423.199 62.008L423.467 67.0008C425.246 66.9056 426.95 66.8448 428.583 66.8163L428.496 61.8171ZM417.907 62.3735C416.21 62.5156 414.458 62.6851 412.647 62.8831L413.19 67.8535C414.961 67.6598 416.672 67.4945 418.324 67.3561L417.907 62.3735ZM407.421 63.513C406.555 63.6268 405.676 63.7466 404.784 63.8725L405.483 68.8234C406.359 68.6997 407.222 68.5821 408.072 68.4705L407.421 63.513ZM404.784 63.8725L403.847 64.0048L404.546 68.9557L405.483 68.8234L404.784 63.8725ZM401.973 64.2694L401.035 64.4017L401.734 69.3526L402.672 69.2203L401.973 64.2694ZM401.036 64.4017L400.542 64.4714L401.241 69.4223L401.734 69.3526L401.036 64.4017ZM399.555 64.6107L399.061 64.6804L399.76 69.6313L400.253 69.5617L399.555 64.6107ZM399.061 64.6804L398.999 64.6892L399.697 69.6401L399.76 69.6313L399.061 64.6804ZM398.874 64.7068L398.811 64.7156L399.51 69.6665L399.573 69.6577L398.874 64.7068ZM398.79 64.7187L398.79 64.7188L399.531 69.6635L399.532 69.6634L398.79 64.7187ZM398.789 64.7189L398.788 64.719L399.53 69.6637L399.53 69.6636L398.789 64.7189ZM398.81 64.7159C398.059 64.8218 397.314 64.927 396.575 65.0312L397.274 69.9822C398.013 69.8779 398.758 69.7728 399.508 69.6668L398.81 64.7159ZM392.109 65.6619C390.594 65.876 389.105 66.0864 387.643 66.2935L388.343 71.2441C389.805 71.0371 391.293 70.8268 392.808 70.6128L392.109 65.6619ZM383.175 66.9271C381.656 67.1428 380.167 67.3548 378.707 67.5633L379.414 72.5131C380.872 72.3048 382.36 72.0929 383.878 71.8774L383.175 66.9271ZM374.24 68.2034C372.717 68.4224 371.228 68.6375 369.772 68.8491L370.491 73.7971C371.944 73.586 373.431 73.3712 374.952 73.1525L374.24 68.2034ZM365.304 69.5022C364.55 69.6131 363.806 69.723 363.071 69.832L363.805 74.7779C364.537 74.6692 365.28 74.5595 366.032 74.4489L365.304 69.5022ZM363.071 69.832C363.142 69.8215 363.22 69.8279 363.29 69.8501L361.787 74.6187C362.419 74.8181 363.106 74.8815 363.805 74.7779L363.071 69.832ZM363.502 70.0188C363.516 70.0506 363.525 70.0872 363.526 70.1244L358.526 70.2169C358.539 70.8802 358.689 71.5139 358.949 72.0852L363.502 70.0188ZM363.526 70.1244C363.517 69.6416 363.497 69.1476 363.467 68.6421L358.476 68.9398C358.502 69.3802 358.519 69.8058 358.526 70.2169L363.526 70.1244ZM363.192 65.7278C363.132 65.2588 363.065 64.7806 362.99 64.293L358.048 65.0551C358.117 65.4998 358.178 65.9332 358.231 66.3556L363.192 65.7278ZM362.99 64.293C362.991 64.2996 362.992 64.3052 362.992 64.3099L358.025 64.8832C358.032 64.9398 358.039 64.9971 358.048 65.0551L362.99 64.293ZM362.994 64.3289C362.994 64.3307 362.994 64.3319 362.994 64.3327L357.994 64.3922C357.995 64.445 357.996 64.4985 357.999 64.5525L362.994 64.3289ZM362.994 64.3327C362.981 63.2756 362.862 62.2352 362.643 61.2173L357.755 62.2682C357.905 62.9655 357.986 63.6738 357.994 64.3922L362.994 64.3327ZM360.282 55.5566C359.246 53.9278 357.948 52.4182 356.443 51.043L353.07 54.7342C354.289 55.848 355.29 57.0252 356.062 58.2397L360.282 55.5566ZM351.823 47.61C350.26 46.6598 348.569 45.8066 346.774 45.0599L344.854 49.6765C346.431 50.3325 347.894 51.0728 349.226 51.8826L351.823 47.61ZM341.48 43.2519C339.733 42.7741 337.916 42.3856 336.042 42.0942L335.274 47.0348C336.966 47.298 338.6 47.6477 340.161 48.0748L341.48 43.2519ZM330.533 41.5321C329.62 41.4863 328.697 41.463 327.766 41.463V46.463C328.614 46.463 329.453 46.4842 330.283 46.5258L330.533 41.5321ZM327.766 41.463C326.898 41.463 326.037 41.4832 325.185 41.5231L325.418 46.5177C326.193 46.4814 326.976 46.463 327.766 46.463V41.463ZM320.037 42.0122C318.289 42.2649 316.589 42.6018 314.947 43.0166L316.172 47.8643C317.642 47.4927 319.172 47.1892 320.752 46.9608L320.037 42.0122ZM309.969 44.5783C309.14 44.8931 308.332 45.2298 307.546 45.5875L309.617 50.1383C310.303 49.8261 311.013 49.5304 311.744 49.2526L309.969 44.5783ZM307.546 45.5875C307.592 45.5666 307.643 45.5574 307.688 45.5589L307.531 50.5564C308.225 50.5783 308.939 50.4469 309.617 50.1383L307.546 45.5875ZM307.881 45.6639C307.915 45.709 307.942 45.7666 307.952 45.8255L303.03 46.7022C303.162 47.4475 303.469 48.1184 303.894 48.6805L307.881 45.6639ZM307.952 45.8255C307.779 44.8524 307.588 43.9213 307.38 43.0302L302.511 44.1687C302.698 44.9676 302.871 45.8111 303.03 46.7022L307.952 45.8255ZM305.67 37.4929C304.863 35.4732 303.921 33.7235 302.848 32.2L298.76 35.079C299.586 36.2517 300.349 37.6513 301.026 39.3475L305.67 37.4929ZM298.596 27.748C296.951 26.4805 295.19 25.5178 293.377 24.7298L291.384 29.3151C292.917 29.9816 294.299 30.7496 295.544 31.7087L298.596 27.748ZM288 22.8104C287.13 22.545 286.247 22.2873 285.367 22.0308L283.967 26.8308C284.852 27.0889 285.706 27.3378 286.54 27.5926L288 22.8104ZM285.367 22.0308C284.656 21.8234 283.947 21.6165 283.231 21.4019L281.795 26.1911C282.532 26.412 283.259 26.6242 283.967 26.8308L285.367 22.0308ZM279.089 20.0537C277.776 19.5808 276.462 19.0521 275.148 18.4354L273.023 22.9616C274.503 23.6562 275.965 24.2428 277.394 24.7577L279.089 20.0537ZM271.451 16.439C270.309 15.7335 269.167 14.9362 268.028 14.0252L264.905 17.9302C266.208 18.9714 267.515 19.8842 268.821 20.6918L271.451 16.439ZM264.901 11.2118C263.956 10.2608 263.012 9.21339 262.074 8.0558L258.19 11.2049C259.232 12.4897 260.287 13.6626 261.354 14.7358L264.901 11.2118ZM259.53 4.61815C259.137 4.03747 258.744 3.43454 258.354 2.8083L254.111 5.45447C254.535 6.13292 254.961 6.78861 255.39 7.42245L259.53 4.61815ZM258.354 2.8083C257.913 2.10112 257.312 1.5576 256.634 1.19142L254.258 5.59067C254.199 5.55848 254.145 5.50852 254.111 5.45447L258.354 2.8083ZM252.161 1.19142C251.483 1.55759 250.882 2.10111 250.441 2.80829L254.684 5.45447C254.65 5.50852 254.596 5.55849 254.537 5.59067L252.161 1.19142ZM250.441 2.80829C250.051 3.43453 249.658 4.03746 249.265 4.61814L253.405 7.42245C253.834 6.78861 254.26 6.13292 254.684 5.45447L250.441 2.80829ZM246.721 8.05579C245.782 9.21338 244.839 10.2608 243.894 11.2118L247.441 14.7358C248.508 13.6626 249.563 12.4897 250.605 11.2049L246.721 8.05579ZM240.767 14.0252C239.628 14.9362 238.485 15.7335 237.344 16.439L239.974 20.6918C241.28 19.8842 242.587 18.9714 243.89 17.9302L240.767 14.0252ZM233.647 18.4354C232.333 19.0521 231.019 19.5808 229.706 20.0537L231.401 24.7577C232.83 24.2428 234.292 23.6562 235.771 22.9616L233.647 18.4354ZM225.564 21.4019C224.848 21.6165 224.139 21.8234 223.428 22.0308L224.828 26.8308C225.536 26.6242 226.263 26.412 227 26.1911L225.564 21.4019ZM223.428 22.0308C222.548 22.2873 221.665 22.545 220.795 22.8104L222.255 27.5926C223.089 27.3378 223.943 27.0889 224.828 26.8308L223.428 22.0308ZM215.417 24.7298C213.605 25.5179 211.844 26.4806 210.199 27.7481L213.251 31.7088C214.496 30.7497 215.878 29.9817 217.411 29.3152L215.417 24.7298ZM205.947 32.2002C204.874 33.7237 203.932 35.4735 203.125 37.4932L207.769 39.3477C208.446 37.6515 209.209 36.2519 210.035 35.0792L205.947 32.2002ZM201.415 43.0306C201.207 43.9217 201.016 44.8528 200.843 45.826L205.765 46.7026C205.924 45.8115 206.097 44.968 206.284 44.1691L201.415 43.0306ZM200.843 45.826C200.853 45.7671 200.879 45.7094 200.913 45.6643L204.901 48.681C205.326 48.1188 205.633 47.4479 205.765 46.7026L200.843 45.826ZM201.107 45.5593C201.152 45.5579 201.203 45.567 201.249 45.5879L199.177 50.1387C199.855 50.4473 200.57 50.5787 201.264 50.5568L201.107 45.5593ZM201.249 45.5879C200.463 45.2302 199.654 44.8935 198.825 44.5786L197.05 49.2529C197.782 49.5307 198.491 49.8264 199.177 50.1387L201.249 45.5879ZM193.848 43.0167C192.206 42.6019 190.505 42.265 188.757 42.0123L188.042 46.9608C189.622 47.1893 191.152 47.4928 192.623 47.8644L193.848 43.0167ZM183.609 41.5231C182.757 41.4832 181.896 41.463 181.028 41.463V46.463C181.818 46.463 182.601 46.4814 183.376 46.5177L183.609 41.5231ZM181.028 41.463C180.093 41.463 179.167 41.4865 178.25 41.5326L178.502 46.5263C179.335 46.4844 180.177 46.463 181.028 46.463V41.463ZM172.721 42.099C170.841 42.3926 169.017 42.7841 167.264 43.2656L168.588 48.087C170.155 47.6567 171.794 47.3043 173.493 47.0391L172.721 42.099ZM161.952 45.0881C160.151 45.841 158.456 46.7015 156.889 47.6596L159.498 51.9249C160.833 51.1087 162.299 50.3625 163.881 49.7012L161.952 45.0881ZM152.263 51.1237C150.758 52.5119 149.463 54.036 148.434 55.6802L152.673 58.3317C153.439 57.1084 154.435 55.9222 155.653 54.7994L152.263 51.1237ZM146.115 61.388C145.907 62.4117 145.799 63.4574 145.799 64.5194H150.799C150.799 63.7973 150.872 63.0856 151.015 62.3852L146.115 61.388ZM145.799 64.5194C145.799 64.9687 145.818 65.4154 145.856 65.859L150.838 65.431C150.812 65.1293 150.799 64.8254 150.799 64.5194H145.799ZM146.31 68.4937C146.422 68.9226 146.551 69.3466 146.698 69.7651L151.418 68.1175C151.316 67.8242 151.226 67.5294 151.149 67.2333L146.31 68.4937ZM146.698 69.7651C146.694 69.755 146.705 69.778 146.695 69.8404L151.641 70.5737C151.757 69.7952 151.708 68.9474 151.418 68.1175L146.698 69.7651ZM146.62 70.0574C146.648 70.0424 146.692 70.0242 146.751 70.0135C146.811 70.0025 146.869 70.0025 146.917 70.0097L146.18 74.9551C147.196 75.1065 148.156 74.9026 148.963 74.4744L146.62 70.0574ZM146.917 70.0097C146.158 69.8966 145.389 69.7825 144.61 69.6674L143.879 74.6137C144.657 74.7285 145.424 74.8423 146.18 74.9551L146.917 70.0097ZM139.992 68.9902C138.488 68.7713 136.95 68.5486 135.375 68.3217L134.662 73.2706C136.234 73.4972 137.771 73.7196 139.271 73.9381L139.992 68.9902ZM130.758 67.6593C129.25 67.4438 127.711 67.2245 126.141 67.0013L125.437 71.9515C127.007 72.1746 128.544 72.3937 130.05 72.609L130.758 67.6593ZM121.523 66.3462C120.012 66.1323 118.474 65.9148 116.907 65.6934L116.208 70.6442C117.774 70.8655 119.312 71.083 120.822 71.2968L121.523 66.3462ZM112.291 65.0416C111.528 64.9338 110.758 64.8252 109.982 64.7156L109.283 69.6666C110.059 69.7761 110.829 69.8848 111.592 69.9925L112.291 65.0416ZM109.942 64.7104L109.942 64.7104L109.322 69.6718L109.322 69.6718L109.942 64.7104ZM109.942 64.7104L109.942 64.7104L109.322 69.6718H109.322L109.942 64.7104ZM109.983 64.7158L109.979 64.7152L109.277 69.6658L109.282 69.6664L109.983 64.7158ZM109.971 64.7141L109.967 64.7135L109.265 69.6641L109.269 69.6647L109.971 64.7141ZM109.966 64.7134L109.96 64.7125L109.259 69.6633L109.266 69.6642L109.966 64.7134ZM109.947 64.7107L109.941 64.7098L109.24 69.6606L109.247 69.6615L109.947 64.7107ZM109.94 64.7097C109.448 64.6403 108.954 64.5706 108.457 64.5005L107.758 69.4514C108.255 69.5215 108.75 69.5913 109.241 69.6607L109.94 64.7097ZM105.492 64.0819C105 64.0125 104.506 63.9427 104.009 63.8725L103.31 68.8234C103.807 68.8936 104.301 68.9634 104.793 69.0328L105.492 64.0819ZM104.009 63.8725C103.117 63.7466 102.238 63.6268 101.372 63.513L100.721 68.4705C101.571 68.5821 102.434 68.6997 103.31 68.8234L104.009 63.8725ZM96.1463 62.8831C94.3352 62.6851 92.5827 62.5156 90.8862 62.3735L90.4688 67.3561C92.1213 67.4945 93.8318 67.6598 95.6028 67.8535L96.1463 62.8831ZM85.5936 62.008C83.7579 61.9097 81.9937 61.8467 80.297 61.8171L80.2098 66.8163C81.8433 66.8448 83.5474 66.9056 85.3263 67.0008L85.5936 62.008ZM74.9659 61.8375C73.0925 61.8873 71.31 61.9828 69.6116 62.1209L70.017 67.1045C71.6193 66.9741 73.3107 66.8833 75.0988 66.8357L74.9659 61.8375ZM64.2589 62.7342C62.3688 63.0189 60.5965 63.3643 58.929 63.7647L60.0963 68.6266C61.6166 68.2615 63.2475 67.9429 65.0037 67.6784L64.2589 62.7342ZM53.6624 65.3227C51.8261 65.9786 50.1401 66.7104 48.577 67.5043L50.8412 71.9623C52.2146 71.2647 53.7059 70.6165 55.3442 70.0314L53.6624 65.3227ZM43.811 70.3432C42.2364 71.4292 40.8069 72.5711 39.4743 73.7372L42.7668 77.5001C43.9826 76.4363 45.2606 75.4173 46.65 74.459L43.811 70.3432ZM35.5598 77.4358C34.9334 78.0623 34.3165 78.6903 33.7094 79.3083L37.2763 82.8122C37.886 82.1916 38.4874 81.5793 39.0956 80.971L35.5598 77.4358ZM33.7094 79.3084C32.9074 80.1248 32.1223 80.9239 31.3246 81.7115L34.8374 85.2696C35.667 84.4506 36.4788 83.6241 37.2763 82.8122L33.7094 79.3084ZM26.4396 86.0874C25.6107 86.737 24.7468 87.3618 23.8343 87.9572L26.5665 92.1446C27.6108 91.4633 28.5919 90.7531 29.5236 90.023L26.4396 86.0874ZM23.8343 87.9572C23.8606 87.94 23.8872 87.9254 23.9138 87.9133L25.9948 92.4596C26.1912 92.3697 26.3824 92.2647 26.5665 92.1446L23.8343 87.9572ZM24.0666 87.868C24.0904 87.8646 24.1136 87.863 24.1359 87.863V92.863C24.3465 92.863 24.557 92.8483 24.7659 92.8188L24.0666 87.868ZM24.1359 87.863H21.7439V92.863H24.1359V87.863ZM16.96 87.863H12.176V92.863H16.96V87.863ZM7.39199 87.863H5V92.863H7.39199V87.863ZM5 87.863C2.51472 87.863 0.5 89.8777 0.5 92.363H5.5C5.5 92.6392 5.27614 92.863 5 92.863V87.863ZM0.5 92.363V94.8547H5.5V92.363H0.5ZM0.5 99.8382V104.822H5.5V99.8382H0.5ZM0.5 109.805V114.788H5.5V109.805H0.5ZM0.5 119.772V124.755H5.5V119.772H0.5ZM0.5 129.739V134.722H5.5V129.739H0.5ZM0.5 139.706V144.689H5.5V139.706H0.5ZM0.5 149.672V154.656H5.5V149.672H0.5ZM0.5 159.639V164.623H5.5V159.639H0.5ZM0.5 169.606V174.59H5.5V169.606H0.5ZM0.5 179.573V184.556H5.5V179.573H0.5ZM0.5 189.54V194.523H5.5V189.54H0.5ZM0.5 199.507V201.998H5.5V199.507H0.5ZM0.5 201.998C0.5 204.484 2.51472 206.498 5 206.498V201.498C5.27614 201.498 5.5 201.722 5.5 201.998H0.5ZM5 206.498H7.49397V201.498H5V206.498ZM12.4819 206.498H17.4698V201.498H12.4819V206.498ZM22.4578 206.498H27.4457V201.498H22.4578V206.498ZM32.4336 206.498H37.4216V201.498H32.4336V206.498ZM42.4095 206.498H47.3974V201.498H42.4095V206.498ZM52.3854 206.498H57.3733V201.498H52.3854V206.498ZM62.3612 206.498H67.3492V201.498H62.3612V206.498ZM72.3371 206.498H77.325V201.498H72.3371V206.498ZM82.313 206.498H87.3009V201.498H82.313V206.498ZM92.2888 206.498H97.2768V201.498H92.2888V206.498ZM102.265 206.498H107.253V201.498H102.265V206.498ZM112.241 206.498H117.228V201.498H112.241V206.498ZM122.216 206.498H127.204V201.498H122.216V206.498ZM132.192 206.498H137.18V201.498H132.192V206.498ZM142.168 206.498H147.156V201.498H142.168V206.498ZM152.144 206.498H157.132V201.498H152.144V206.498ZM162.12 206.498H167.108V201.498H162.12V206.498ZM172.096 206.498H177.084V201.498H172.096V206.498ZM182.072 206.498H187.06V201.498H182.072V206.498ZM192.047 206.498H197.035V201.498H192.047V206.498ZM202.023 206.498H207.011V201.498H202.023V206.498ZM211.999 206.498H216.987V201.498H211.999V206.498ZM221.975 206.498H226.963V201.498H221.975V206.498ZM231.951 206.498H236.939V201.498H231.951V206.498ZM241.927 206.498H246.915V201.498H241.927V206.498ZM251.903 206.498H256.891V201.498H251.903V206.498ZM261.878 206.498H266.866V201.498H261.878V206.498ZM271.854 206.498H276.842V201.498H271.854V206.498ZM281.83 206.498H286.818V201.498H281.83V206.498ZM291.806 206.498H296.794V201.498H291.806V206.498ZM301.782 206.498H306.77V201.498H301.782V206.498ZM311.758 206.498H316.746V201.498H311.758V206.498ZM321.734 206.498H326.722V201.498H321.734V206.498ZM331.71 206.498H336.698V201.498H331.71V206.498ZM341.686 206.498H346.674V201.498H341.686V206.498ZM351.661 206.498H356.649V201.498H351.661V206.498ZM361.637 206.498H366.625V201.498H361.637V206.498ZM371.613 206.498H376.601V201.498H371.613V206.498ZM381.589 206.498H386.577V201.498H381.589V206.498ZM391.565 206.498H396.553V201.498H391.565V206.498ZM401.541 206.498H406.529V201.498H401.541V206.498ZM411.517 206.498H416.505V201.498H411.517V206.498ZM421.493 206.498H426.481V201.498H421.493V206.498ZM431.469 206.498H436.457V201.498H431.469V206.498ZM441.445 206.498H446.432V201.498H441.445V206.498ZM451.42 206.498H456.408V201.498H451.42V206.498ZM461.396 206.498H466.384V201.498H461.396V206.498ZM471.372 206.498H476.36V201.498H471.372V206.498ZM481.348 206.498H486.336V201.498H481.348V206.498ZM491.324 206.498H496.312V201.498H491.324V206.498ZM501.3 206.498H503.793V201.498H501.3V206.498ZM503.793 206.498C506.279 206.498 508.293 204.484 508.293 201.998H503.293C503.293 201.722 503.517 201.498 503.793 201.498V206.498ZM508.293 201.998V199.507H503.293V201.998H508.293ZM508.293 194.523V189.54H503.293V194.523H508.293ZM508.293 184.556V179.573H503.293V184.556H508.293ZM508.293 174.59V169.606H503.293V174.59H508.293ZM508.293 164.623V159.639H503.293V164.623H508.293ZM508.293 154.656V149.672H503.293V154.656H508.293ZM508.293 144.689V139.706H503.293V144.689H508.293ZM508.293 134.722V129.739H503.293V134.722H508.293ZM508.293 124.755V119.772H503.293V124.755H508.293ZM508.293 114.788V109.805H503.293V114.788H508.293ZM508.293 104.822V99.8382H503.293V104.822H508.293ZM508.293 94.8547V92.363H503.293V94.8547H508.293ZM508.293 92.363C508.293 89.8777 506.279 87.863 503.793 87.863V92.863C503.517 92.863 503.293 92.6392 503.293 92.363H508.293ZM503.793 87.863H501.401V92.863H503.793V87.863ZM496.617 87.863H491.833V92.863H496.617V87.863ZM487.049 87.863H484.657V92.863H487.049V87.863ZM484.657 87.863C484.679 87.863 484.703 87.8646 484.726 87.868L484.027 92.8188C484.236 92.8483 484.447 92.863 484.657 92.863V87.863ZM484.879 87.9133C484.906 87.9254 484.932 87.94 484.959 87.9572L482.227 92.1446C482.411 92.2647 482.602 92.3697 482.798 92.4596L484.879 87.9133ZM484.959 87.9572C484.046 87.3618 483.182 86.737 482.353 86.0874L479.269 90.023C480.201 90.7531 481.182 91.4633 482.227 92.1446L484.959 87.9572ZM477.468 81.7115C476.671 80.9239 475.886 80.1248 475.084 79.3084L471.517 82.8122C472.314 83.6241 473.126 84.4506 473.956 85.2696L477.468 81.7115Z" fill="#642150"/>
</svg>
