<svg width="742" height="209" viewBox="0 0 742 209" fill="none" xmlns="http://www.w3.org/2000/svg">
<g filter="url(#filter0_d_260_762)">
<path fill-rule="evenodd" clip-rule="evenodd" d="M0 209C4.5 203 9 202 16 202C25 175 43 169 74 166.5H655C686 169 704 175 713 202C720 202 724.5 203 729 209V166.5V165V163.5L728.936 163.654C727.449 130.734 700.288 104.5 667 104.5H656.77C644.977 88.1458 625.761 77.5001 604.059 77.5001H591.941C582.973 63.6584 567.391 54.5001 549.671 54.5001H439C402 54.5 385 46 366 26C347 46 330 54.5 293 54.5001H183.329C165.609 54.5001 150.027 63.6584 141.059 77.5001H128.941C107.239 77.5001 88.0226 88.1458 76.2302 104.5H62C28.7121 104.5 1.55134 130.734 0.0641441 163.654L0 163.5V165V166.5V209Z" fill="#FFAB2D"/>
</g>
<defs>
<filter id="filter0_d_260_762" x="0" y="0" width="742" height="209" filterUnits="userSpaceOnUse" color-interpolation-filters="sRGB">
<feFlood flood-opacity="0" result="BackgroundImageFix"/>
<feColorMatrix in="SourceAlpha" type="matrix" values="0 0 0 0 0 0 0 0 0 0 0 0 0 0 0 0 0 0 127 0" result="hardAlpha"/>
<feOffset dx="7" dy="-20"/>
<feGaussianBlur stdDeviation="3"/>
<feComposite in2="hardAlpha" operator="out"/>
<feColorMatrix type="matrix" values="0 0 0 0 0 0 0 0 0 0 0 0 0 0 0 0 0 0 0.25 0"/>
<feBlend mode="normal" in2="BackgroundImageFix" result="effect1_dropShadow_260_762"/>
<feBlend mode="normal" in="SourceGraphic" in2="effect1_dropShadow_260_762" result="shape"/>
</filter>
</defs>
</svg>
